<svg xmlns="http://www.w3.org/2000/svg" viewBox="0 0 88.91 670.7"><defs><style>.cls-1,.cls-2{fill:#231f20;}.cls-2,.cls-3,.cls-5{fill-rule:evenodd;}.cls-3{fill:#808285;}.cls-4,.cls-5{fill:#fff;}</style></defs><g id="Layer_2" data-name="Layer 2"><g id="Skyscrapers"><path class="cls-1" d="M78,460.55a64.23,64.23,0,0,1-.33,9.35c-.11,1.41-.23,2.86-.31,4.29v.2l0,.19c.83,2.92,5,19,6.24,48.95.53,12.84,1,30.17,1.55,51.5l.69,33.34s.09,2,.09,2l1.19-1.25h-83l1.19,1.15c-.75-18.27-1.23-36.85-1.69-54.82l-.77-28.15-.39-15c-.11-4.69-.16-8.44-.16-11.14V500H1.2l1.18,1.19c0-22.41,5.07-78.38,5.28-80.75v-.16c0-.26-1.17-27-2.34-60.77-1.12-32.42,4.26-78.07,4.87-83.17l0-.15,0-.15c-.32-2.39-1.89-15.56-1.59-40.49a389.92,389.92,0,0,1,4.91-53.87l0-.2,0-.19c-.15-.88-.65-4.12-1.18-8.79,0-.09-.2-1.08-.2-1.08l-1,1.39,1.1-.19a6,6,0,0,0,0-1.12c-.78-7.13-1.23-14-1.33-20.33-.25-15,3.74-33.22,4.2-35.25l0-.19,0-.19-.05-.45v-.17l-.06-.15-.15-.36-.62,1.64.83-.34a4,4,0,0,0,0-.92c-.29-2.91-1-10.84-1.21-21.63-.25-12.3,4.71-24.84,5.7-27.24l.12-.27,0-.3c-.15-1.5-.64-7.13-.64-16.61,0-10.27,4.57-19.41,5.48-21.14l.13-.24v-.27a50.21,50.21,0,0,1,1.32-9.76c1.06-4,4.33-8.46,5.31-9.72l.12-.16.06-.18c.4-1.15,2-4.91,5.19-4.91a7.46,7.46,0,0,1,5.27,2.56l.35.35h.49l-.83-.35a27,27,0,0,1,4.62,6.93c2.8,5.61,5.58,21.88,5.89,23.71l0,.14.06.14A75.4,75.4,0,0,1,57,51.42c1.53,8.53,2.2,26.11,2.27,28.08v.19l.06.17c.49,1.36,2.23,6.82,4.17,20.36,2.15,15.08.79,39.7.63,42.45v.18l0,.17c.49,2,4.74,19.91,4.74,33.44s-.47,42.73-.53,46v.16l0,.16c.37,1.37,2.26,9.53,3.69,35.6,1.28,23.61.52,54.38.13,66.51.08,2.12,0,3.58,0,3.85v.2l0,.18c.77,2.75,3.44,14.36,5.68,48.47,1.85,28.14.85,64,.09,82.81v.13Zm2.38,0c.77-18.89,1.77-54.81-.09-83.06-2.26-34.34-5-46.14-5.76-48.94l0,.38c0-.29.09-1.85,0-4,.39-12.08,1.16-42.93-.13-66.63-1.4-25.65-3.23-34.1-3.76-36.08l0,.33c0-3.29.52-32.53.52-46.06s-4-30.69-4.8-34l0,.35c.16-2.78,1.53-27.62-.65-42.93-2-13.76-3.78-19.42-4.29-20.83l.07.37c-.07-2-.75-19.73-2.3-28.42a78.79,78.79,0,0,0-4.67-16.08l.08.27c-.51-3-3.21-18.59-6.11-24.39a28.72,28.72,0,0,0-5.07-7.54l-.35-.35h-.49l.83.35a9.8,9.8,0,0,0-7-3.26c-4.8,0-6.9,5-7.44,6.51l.19-.34c-1.05,1.35-4.56,6.11-5.74,10.57A52.28,52.28,0,0,0,22.23,27l.14-.51C21,29.05,16.6,38.2,16.6,48.76c0,9.59.5,15.32.66,16.85l.08-.58c-1,2.47-6.14,15.42-5.89,28.2.22,10.88.93,18.89,1.23,21.82l.74-1.22-1.19.49a6.43,6.43,0,0,0,.5,1.18s0,0,.06.17l-.08-.32,0,.45,0-.38c-.75,3.35-4.5,20.86-4.26,35.81.11,6.44.57,13.35,1.35,20.55l1-1.31-1.19.21a6.79,6.79,0,0,0,.15,1.2l.19,1c.52,4.64,1,7.92,1.17,8.82v-.39a394,394,0,0,0-4.95,54.24c-.29,25.1,1.3,38.42,1.62,40.83v-.3c-.62,5.12-6,50.95-4.89,83.54,1.16,33.82,2.32,60.53,2.34,60.79v-.15C5.08,422.62,0,478.7,0,501.14v1.2a7.91,7.91,0,0,0,1.19.06L0,501.21c0,2.72,0,6.48.16,11.2l.39,15,.76,28.14c.47,18,1,36.57,1.69,54.85l.05,1.15H88.45l-.06-1.25-.09-2S87.61,575,87.61,575c-.5-21.34-1-38.68-1.55-51.54-1.24-30.25-5.49-46.54-6.32-49.5l0,.39c.07-1.4.19-2.83.31-4.22a67.31,67.31,0,0,0,.33-9.71Z"/><path class="cls-1" d="M9.79,428c-1.41,16.31-4.61,55.31-4.61,73.17v.07h0c0,2.79.06,6.58.16,11.09s.23,9.45.39,15c.8,27,2.27,63.91,2.89,79.12H40.92c-6.26-34-13-67.9-18.77-101.67Q15.64,466.35,9.79,428Z"/><path class="cls-1" d="M11.66,288.65C10,305.39,7.3,336.08,8.11,359.45c.55,15.85,1.09,30.19,1.52,40.95h.1c5,34.57,10.47,69.13,16.33,103.68,5.81,34.24,11.27,68.31,17.54,102.32H74.24C70.42,586.39,41.3,434,27.61,371.05c-8.41-38.68-13.3-66.06-15.95-82.4Z"/><path class="cls-1" d="M52.09,42.92a58.46,58.46,0,0,0-2.22-6.15l-.15-.49c0-.05-2.89-17.61-5.67-23.18a23.87,23.87,0,0,0-4.12-6.19h0a4.93,4.93,0,0,0-3.31-1.74C34.92,5.16,34,8.4,34,8.41l-.35.65A140.55,140.55,0,0,1,52.09,42.92Z"/><path class="cls-1" d="M61.94,124.4a173.91,173.91,0,0,0-1.18-23.79c-2.24-15.69-4.07-20-4.08-20l-.16-.72s-.15-4.45-.48-10c-4.56-29.73-19.82-52-24.33-58.12a23.1,23.1,0,0,0-3.09,6.3,49.26,49.26,0,0,0-1.25,9.61l-.26.93s-.2.37-.53,1c3.77,7.91,27.65,58.68,35.36,94.79Z"/><path class="cls-1" d="M65.91,202.76c.13-9.26.24-19.66.24-26.3a94.15,94.15,0,0,0-.66-10.4C64,152.82,60.93,136.6,58.14,124,51,91.53,30.87,47.33,24.65,34.06a42.73,42.73,0,0,0-2.87,14.7,157.93,157.93,0,0,0,.67,16.82l-.15,1s-.25.55-.63,1.53h0c.1.21,30,65,44.22,134.66Z"/><path class="cls-1" d="M69.94,304.81c.2-13.91.21-31.56-.6-46.28-1.58-29-3.62-35.13-3.63-35.15l-.09-.63,0-1.23C55,155.27,26.83,88.72,19.92,73.06a65.39,65.39,0,0,0-3.31,20.07c.21,10.49.9,18.27,1.19,21.18C19.45,118.55,27.49,140,42.43,192c9.85,34.28,19.18,74.11,25.11,101.55.84,3.87,1.64,7.66,2.4,11.28Z"/><path class="cls-1" d="M76,437.12c.4-18.37.43-40.56-.8-59.34-2.64-40.15-5.73-48.38-5.74-48.41l-.12-.75s.06-1.34.13-3.64a37.54,37.54,0,0,0-.6-5.35h0c-.57-3-1.29-6.64-2.15-10.82-.82-4-1.84-8.8-3-14.43C57.75,267,48.44,227.26,38.62,193.07c-11.11-38.64-18.36-60.29-22-70.55-1.3,7-3.09,18.5-2.92,28.63.13,7.88.78,15.36,1.41,20.89C16.59,180,25.94,229.38,32.93,256h0c1.1,4.2,2.45,9.48,4,15.53s3.26,13,5.22,20.92C51.86,331.77,65,386.44,71,412.82c2.19,9.7,3.81,17.72,5,24.3Z"/><path class="cls-1" d="M83.13,606.39c-.09-5.16-.32-17.12-.65-31.31-.39-16.53-.92-36.1-1.55-51.44-1.34-32.62-6.2-48.55-6.22-48.59l-.08-.68c0-.06.31-5.4.65-13.94-.33-4.85-1.78-18.66-8.15-46.74-5.95-26.28-19.1-80.92-28.85-120.3-1.83-7.4-3.59-14.46-5.22-20.91-1.58-6.29-2.94-11.57-4-15.48h0c-4.71-17.94-10.5-46.25-14.24-65.29a375.36,375.36,0,0,0-3.47,43.91,259.41,259.41,0,0,0,2.55,41.83c1.94,13.2,6.94,43.94,17.56,92.78C45.35,434,74,589.87,77.15,606.39Z"/><path class="cls-2" d="M6.92,610.79l-3.85,0,0,54.94,3.16,1.53,0-18.66s.23-17.13,2.25-22.2c-.53-5.25-1.05-10.48-1.56-15.63Z"/><path class="cls-3" d="M8.48,626.42c-2,5.07-2.25,22.2-2.25,22.2l0,17.54L12,668.49Z"/><path class="cls-1" d="M12.64,669.6h4.25l-.1-1.25-.07-.73-.27-2c-.66-7.63-1.42-16.29-.76-23.51a58,58,0,0,1,8.45-24.08l.09-.13.13-.19-.91.25.31.2.2.14c7,5.34,12.85,14,15.65,23.17l.26.93.26,1a166.58,166.58,0,0,1,4.08,24.83l.06.63.06.59,0,.26.09,1h5.14a8.71,8.71,0,0,0,0-1.25l-.06-.73L49,663.9c-.68-7.39-1.39-15-.77-21.74A57.84,57.84,0,0,1,56.8,618l.13-.18L56,618l.31.2c4.64,3.31,9.43,9.28,13.11,16.35a48.36,48.36,0,0,1,3.26,8.85c.84,3.29,1.59,6.9,2.29,11,.77,4.77,1.4,9,1.85,13.81l.06.59,0,.26.08,1h5.21L82,668.76l-4-29-1.47.77.09.22,1.48,3.6V640l-.12-.9c-.66-5-1.66-12.54-.16-17.45l-1.32.3.18.29,0,.07c4.39,7.7,6.14,17.44,6.83,24.25.16,1.6.27,3.12.35,4.61v0a.32.32,0,0,1,0,.08v-.12c0,.1,0,.35,0,.35s0,.18,0,.18a1.48,1.48,0,0,0,0,.16s0,1,0,1l0,1,0,.92.19,5.44c.08,2.48.16,5.71.29,8.3,0,.11,0,.22,0,.22l.06,1h.73l2.1-.67.8-.39.6-1.14-.52-56.82-.32-1.14H6l.12,1.27L9,640.53l2.85,28.11.09,1Zm.79-1.27-2.85-28.1L7.7,610.57l-.79,1.27H87.27l-.79-1.11L86.71,668l.8-1.13h-2.1l.79,1c0-.1,0-.19,0-.19-.12-2.56-.2-5.11-.28-7.58l-.19-5.46,0-.92,0-1,0-1a1.42,1.42,0,0,0,0-.15v-.49a.73.73,0,0,0,0-.13c-.08-1.46-.2-3-.35-4.6C84.47,639.19,82.65,629,78,621l-.06-.11-.21-.33-.83-1.34-.5,1.62c-1.69,5.54-.64,13.49.06,18.75l.11.89v-.2l1.49-.55-.1-.22-1.46.77,4,28.95.79-.71H77.71l.79.37,0-.28,0-.6c-.47-4.87-1.1-9.17-1.88-14-.72-4.22-1.49-7.91-2.35-11.29a50.84,50.84,0,0,0-3.46-9.37c-3.83-7.38-8.82-13.59-13.71-17.08l-.34-.21-.51-.33-.39.57-.14.2a60.74,60.74,0,0,0-9,25.41c-.64,7,.08,14.83.78,22.36L47.9,669l.06.74.79-1.25H45.14l.78,1,0-.28-.06-.6-.06-.63a167.72,167.72,0,0,0-4.16-25.3s-.27-1-.27-1-.27-1-.27-1C38.13,631,32,622,24.69,616.37l-.24-.17s-.34-.22-.34-.22l-.52-.33-.39.58-.13.2-.1.14a60.87,60.87,0,0,0-8.85,25.26c-.69,7.55.08,16.35.75,24.11l.28,1.94.06.73.79-1.24H12.64Z"/><path class="cls-4" d="M79.23,460.47c.09,1.38.09,2,.09,2h-.17c-.27,6.35-.5,10.61-.56,11.77.72,2.54,5,18.86,6.28,49.22C85.5,538.75,86,558.37,86.42,575s.63,30.13.69,33.35l.09,2h-83c-1.13-27.66-1.63-55.32-2.46-83-.16-5.46-.3-10.55-.39-15s-.16-8.33-.16-11.17h0v-.07c0-22.29,5-77.72,5.29-80.79-.09-2-1.21-28-2.34-60.78S8.58,279.87,9,276.21c-.27-2-1.9-15.38-1.6-40.66a388.29,388.29,0,0,1,4.93-54.05c-.16-1-.66-4.25-1.18-8.85l-.19-1h.08c-.61-5.54-1.22-12.8-1.34-20.44-.25-15,3.63-32.89,4.22-35.53l0-.45c-.07-.17-.11-.26-.11-.27l.08,0c-.29-2.79-1-10.77-1.23-21.73-.24-12.49,4.71-25.1,5.8-27.71-.16-1.64-.65-7.25-.65-16.73,0-10.46,4.53-19.63,5.63-21.7a51.34,51.34,0,0,1,1.36-10C25.9,12.76,29.36,8.11,30.3,6.9c.47-1.34,2.29-5.71,6.31-5.71A8.63,8.63,0,0,1,42.72,4.1h0a28,28,0,0,1,4.84,7.23c2.87,5.74,5.64,21.9,6,24.06a76.65,76.65,0,0,1,4.6,15.82c1.52,8.51,2.19,25.69,2.28,28.25.52,1.43,2.28,7,4.23,20.59,2.16,15.16.81,39.73.64,42.69.6,2.46,4.77,20.12,4.77,33.72s-.47,42.82-.52,46c.44,1.66,2.3,9.93,3.72,35.83,1.31,24,.48,55.79.13,66.62.08,2,0,3.52,0,3.88.82,2.93,3.48,14.62,5.72,48.7,1.84,28,.87,63.59.09,82.94ZM9.79,428c-1.41,16.31-4.61,55.31-4.61,73.17v.07h0c0,2.79.06,6.58.16,11.09s.23,9.45.39,15c.8,27,2.27,63.91,2.89,79.12l32.32-.18c-6.26-34-13-67.72-18.78-101.49Q15.64,466.35,9.79,428Zm1.87-139.32C10,305.39,7.3,336.08,8.11,359.45c.55,15.85,1.09,30.19,1.52,40.95h.1c5,34.57,10.47,69.13,16.33,103.68,5.81,34.24,11,68.31,17.31,102.32H75.14C71.32,586.39,41.3,434,27.61,371.05c-8.41-38.68-13.3-66.06-15.95-82.4ZM52.09,42.92a58.46,58.46,0,0,0-2.22-6.15l-.15-.49c0-.05-2.89-17.61-5.67-23.18a23.87,23.87,0,0,0-4.12-6.19h0a4.93,4.93,0,0,0-3.31-1.74C34.92,5.16,34,8.4,34,8.41l-.35.65A140.55,140.55,0,0,1,52.09,42.92Zm9.85,81.48a173.91,173.91,0,0,0-1.18-23.79c-2.24-15.69-4.07-20-4.08-20l-.16-.72s-.15-4.45-.48-10c-4.56-29.73-19.82-52-24.33-58.12a23.1,23.1,0,0,0-3.09,6.3,49.26,49.26,0,0,0-1.25,9.61l-.26.93s-.2.37-.53,1c3.77,7.91,27.65,58.68,35.36,94.79Zm4,78.36c.13-9.26.24-19.66.24-26.3a94.15,94.15,0,0,0-.66-10.4C64,152.82,60.93,136.6,58.14,124,51,91.53,30.87,47.33,24.65,34.06a42.73,42.73,0,0,0-2.87,14.7,157.93,157.93,0,0,0,.67,16.82l-.15,1s-.25.55-.63,1.53h0c.1.21,30,65,44.22,134.66Zm4,102.05c.2-13.91.21-31.56-.6-46.28-1.58-29-3.62-35.13-3.63-35.15l-.09-.63,0-1.23C55,155.27,26.83,88.72,19.92,73.06a65.39,65.39,0,0,0-3.31,20.07c.21,10.49.9,18.27,1.19,21.18C19.45,118.55,27.49,140,42.43,192c9.85,34.28,19.18,74.11,25.11,101.55.84,3.87,1.64,7.66,2.4,11.28ZM76,437.12c.4-18.37.43-40.56-.8-59.34-2.64-40.15-5.73-48.38-5.74-48.41l-.12-.75s.06-1.34.13-3.64a37.54,37.54,0,0,0-.6-5.35h0c-.57-3-1.29-6.64-2.15-10.82-.82-4-1.84-8.8-3-14.43C57.75,267,48.44,227.26,38.62,193.07c-11.11-38.64-18.36-60.29-22-70.55-1.3,7-3.09,18.5-2.92,28.63.13,7.88.78,15.36,1.41,20.89C16.59,180,25.94,229.38,32.93,256h0c1.1,4.2,2.45,9.48,4,15.53s3.26,13,5.22,20.92C51.86,331.77,65,386.44,71,412.82c2.19,9.7,3.81,17.72,5,24.3Zm7.13,169.27c-.09-5.16-.32-17.12-.65-31.31-.39-16.53-.92-36.1-1.55-51.44-1.34-32.62-6.2-48.55-6.22-48.59l-.08-.68c0-.06.31-5.4.65-13.94-.33-4.85-1.78-18.66-8.15-46.74-5.95-26.28-19.1-80.92-28.85-120.3-1.83-7.4-3.59-14.46-5.22-20.91-1.58-6.29-2.94-11.57-4-15.48h0c-4.71-17.94-10.5-46.25-14.24-65.29a375.36,375.36,0,0,0-3.47,43.91,259.41,259.41,0,0,0,2.55,41.83c1.94,13.2,6.94,43.94,17.56,92.78C45.35,434,74.22,589.87,77.37,606.39Z"/><path class="cls-4" d="M66.07,189.41l0-1.58c-1.28-.11-2.48-.29-3.6-.5l.39,1.67c1,.17,2.07.31,3.19.41Zm0-4.67v-1.58a39.42,39.42,0,0,1-4.82-.71l.42,1.69a41.25,41.25,0,0,0,4.39.6Zm0-4.57v-1.58a39.81,39.81,0,0,1-6-.93l.44,1.71a40.67,40.67,0,0,0,5.61.8Zm0-4.83c0-.52,0-1.05,0-1.58a50.31,50.31,0,0,1-7.28-1l.46,1.7a49.15,49.15,0,0,0,6.87.86Zm-.2-4.48c0-.53-.08-1.05-.13-1.58a48,48,0,0,1-8.19-.92l.46,1.69a49.44,49.44,0,0,0,7.86.81Zm-.44-4.71v-.09c0-.49-.11-1-.17-1.48a47.45,47.45,0,0,1-8.94-.65l.47,1.67a48.6,48.6,0,0,0,8.65.55Zm-.47-4-.21-1.58a43.4,43.4,0,0,1-9.59-.72l.48,1.69a45.23,45.23,0,0,0,9.32.61Zm-.67-4.79-.23-1.57A41.17,41.17,0,0,1,54,155.57l.48,1.65a42.39,42.39,0,0,0,9.92.19Zm-.78-5.13-.25-1.55a37.5,37.5,0,0,1-10.89-.19l.51,1.67a38.68,38.68,0,0,0,10.63.07Zm-.77-4.6-.27-1.56a39,39,0,0,1-11.63-.5l.53,1.7a40.66,40.66,0,0,0,11.37.36Zm-.8-4.53-.29-1.55a39.81,39.81,0,0,1-12.35-.84l.55,1.73a41.08,41.08,0,0,0,12.09.66Zm-.91-4.83-.3-1.56a46.59,46.59,0,0,1-13-.95l.57,1.73a48.17,48.17,0,0,0,12.78.78Zm-.91-4.63-.31-1.55a45.64,45.64,0,0,1-13.62-.81l.57,1.72a46.59,46.59,0,0,0,13.36.64Zm-1-4.89-.33-1.55a44.57,44.57,0,0,1-14.12-.39l.59,1.7a46.06,46.06,0,0,0,13.86.24Zm-.86-4-.18-.85-.16-.7a41.57,41.57,0,0,1-14.67-.49l.6,1.72a42.56,42.56,0,0,0,14.41.32Zm-1.14-5c-.13-.51-.25-1-.39-1.54a40,40,0,0,1-15,.1l.61,1.69a41.13,41.13,0,0,0,14.8-.25Zm-1.32-5.1-.42-1.53a37.09,37.09,0,0,1-15.52.07l.63,1.73a38.8,38.8,0,0,0,15.31-.27Zm-1.25-4.43-.45-1.53a39,39,0,0,1-16.1-.55l.66,1.77a40.73,40.73,0,0,0,15.89.31Zm-1.32-4.4-.48-1.53a39.71,39.71,0,0,1-16.64-1.16l.69,1.82a41.46,41.46,0,0,0,16.43.87Zm-1.5-4.73-.51-1.53a47.5,47.5,0,0,1-17-1.4l.69,1.8a48.58,48.58,0,0,0,16.84,1.13Zm-1.53-4.59-.52-1.52a46.43,46.43,0,0,1-17.27-1.37l.71,1.81a47.55,47.55,0,0,0,17.08,1.08Zm-1.67-4.82L48,90.27a46.19,46.19,0,0,1-17.36-1L31.4,91a47.14,47.14,0,0,0,17.19.75Zm-1.41-3.9-.55-1.52A43.56,43.56,0,0,1,29,85l.75,1.83a44.49,44.49,0,0,0,17.48,1.06ZM45.4,83.07l-.56-1.51a42.48,42.48,0,0,1-17.68-.86l.75,1.8a43.59,43.59,0,0,0,17.49.57Zm-1.76-4.63-.58-1.5a43.34,43.34,0,0,1-17.86-.87l.77,1.8a43.94,43.94,0,0,0,17.67.57Zm-1.88-4.8-.6-1.51A45.61,45.61,0,0,1,23,71l.8,1.82a46.69,46.69,0,0,0,18,.83Zm-2-5-.62-1.52a49.44,49.44,0,0,1-16.81-1l-.05.37s-.18.4-.47,1.13a51.34,51.34,0,0,0,18,1ZM38,64.36l-.62-1.51a45.63,45.63,0,0,1-15.2-.52c0,.64.08,1.18.12,1.63a47,47,0,0,0,15.7.4Zm-2-4.91-.64-1.51a49,49,0,0,1-13.38-.32c0,.57.05,1.1.07,1.61a49.86,49.86,0,0,0,14,.22Zm-2.1-4.91L33.2,53a51.15,51.15,0,0,1-11.39.06c0,.55,0,1.08,0,1.59a52.75,52.75,0,0,0,12-.14Zm-1.79-4.13-.67-1.51a45.06,45.06,0,0,1-9.61.15c0,.55,0,1.07,0,1.59a46.9,46.9,0,0,0,10.27-.23Zm-2.17-4.89L29.21,44a50.73,50.73,0,0,1-7.13.2c-.07.51-.12,1-.17,1.57a51.55,51.55,0,0,0,8-.25Zm-2-4.43-.7-1.54c-1.45.08-2.88.09-4.25.05-.13.51-.25,1-.36,1.57a49.94,49.94,0,0,0,5.31-.08Z"/><path class="cls-4" d="M51.65,41.54c-.2-.62-.4-1.2-.59-1.71l-.21,0,.7,1.74.1,0Zm-1.79-4.79-.14-.47s-.08-.44-.2-1.19l-.76-.17.78,1.76.32.07ZM49,32.12c-.09-.52-.2-1.07-.31-1.65-.77-.17-1.53-.34-2.27-.52.29.59.58,1.18.87,1.79l1.71.38Zm-.9-4.63c-.11-.55-.23-1.1-.35-1.67-1.38-.3-2.71-.62-4-.94l1,1.82c1.08.27,2.2.53,3.35.79Zm-1-4.66c-.14-.57-.27-1.13-.41-1.68-2.08-.47-4.06-1-5.88-1.47l1.11,1.87q2.44.66,5.18,1.28Zm-1.21-4.71c-.17-.59-.34-1.16-.52-1.7-2.92-.68-5.62-1.42-8-2.11.4.61.83,1.25,1.27,1.94,2.17.63,4.61,1.27,7.21,1.87Zm-1.71-4.83-.09-.19c-.28-.57-.57-1.1-.85-1.62-3.66-.9-6.9-1.86-9.43-2.67l-.13.25c.33.42.75,1,1.25,1.68,2.57.8,5.74,1.71,9.25,2.55ZM41,8.08a12.29,12.29,0,0,0-1-1.17h0a8.58,8.58,0,0,0-1.2-1c-.85-.23-1.66-.47-2.43-.7a2.59,2.59,0,0,0-1.39,1.16c1.78.55,3.82,1.14,6,1.72Z"/><path class="cls-4" d="M61.85,115.2c0-.54,0-1.08-.05-1.61-.85,0-1.69,0-2.53-.09.14.54.29,1.08.43,1.62l2.15.08Zm-.18-4.53-.09-1.61c-1.21,0-2.41,0-3.6-.08.16.54.32,1.08.47,1.62,1.07,0,2.14.07,3.22.07Zm-.3-4.49c0-.54-.09-1.08-.14-1.61-1.55,0-3.09,0-4.61-.11.17.54.33,1.08.5,1.62,1.4.07,2.82.1,4.25.1Zm-.46-4.48c0-.37-.09-.74-.15-1.09l-.07-.53c-1.86,0-3.71,0-5.51-.15.17.54.35,1.08.52,1.62,1.71.09,3.45.15,5.21.15Zm-.65-4.49c-.09-.56-.17-1.09-.26-1.62-2.14,0-4.27-.08-6.34-.21.19.55.37,1.09.55,1.63,2,.12,4,.2,6,.2Zm-.74-4.49c-.1-.56-.2-1.1-.29-1.61-2.43,0-4.83-.11-7.14-.28l.57,1.63c2.22.16,4.53.25,6.86.26Zm-.85-4.49c-.12-.57-.24-1.11-.35-1.61-2.69,0-5.34-.16-7.87-.37L51,87.89c2.46.2,5,.32,7.63.34Zm-1-4.49q-.26-1-.45-1.62c-2.9,0-5.75-.2-8.44-.45l.61,1.64c2.65.24,5.44.4,8.28.43Zm-1.14-4.5c0-.38,0-.93-.07-1.61-3.26,0-6.45-.26-9.43-.57l.63,1.65c2.82.28,5.81.48,8.87.53Zm-.2-4.48-.08-1.61a108.6,108.6,0,0,1-11-.71l.65,1.65c3.28.36,6.83.62,10.46.67Zm-.24-4.48,0-.41c-.07-.4-.13-.8-.2-1.2a111.67,111.67,0,0,1-12.5-.87L44,69.46a112.1,112.1,0,0,0,12.05.82Zm-.72-4.49c-.11-.54-.21-1.08-.32-1.61a113.55,113.55,0,0,1-13.59-1l.69,1.67a115,115,0,0,0,13.22,1Zm-1-4.49c-.12-.54-.25-1.08-.38-1.62a114.46,114.46,0,0,1-14.53-1.22l.7,1.68A117.06,117.06,0,0,0,54.39,61.3Zm-1.11-4.5-.45-1.62a117.86,117.86,0,0,1-15.35-1.43l.72,1.69A119.66,119.66,0,0,0,53.28,56.8ZM52,52.29c-.17-.54-.34-1.08-.52-1.62a121,121,0,0,1-16-1.64l.74,1.69A122.35,122.35,0,0,0,52,52.29Zm-1.49-4.51-.57-1.63a124.54,124.54,0,0,1-16.6-1.88L34.08,46a126.38,126.38,0,0,0,16.41,1.8Zm-1.66-4.54c-.22-.55-.43-1.09-.65-1.63a128.6,128.6,0,0,1-17-2.12L32,41.21a128.27,128.27,0,0,0,16.88,2ZM47,38.68,46.25,37A130.91,130.91,0,0,1,29,34.68l.8,1.73A131.26,131.26,0,0,0,47,38.68Zm-2.07-4.59c-.26-.56-.53-1.11-.79-1.65a132.24,132.24,0,0,1-17-2.52l.18,1.17v.08l.2.41a135.91,135.91,0,0,0,17.38,2.51Zm-2.28-4.63-.88-1.67a131.5,131.5,0,0,1-14.26-2.16c0,.66-.07,1.2-.08,1.55a132.77,132.77,0,0,0,15.22,2.28Zm-2.53-4.68c-.32-.58-.65-1.14-1-1.69C34.69,22.6,30.8,21.92,28,21.35q-.12.79-.21,1.53c3.08.62,7.41,1.38,12.34,1.9ZM37.29,20c-.37-.6-.73-1.17-1.08-1.72C33.46,18,31,17.54,28.9,17.16c-.11.3-.2.6-.28.89l-.15.6c2.43.46,5.44,1,8.82,1.39Zm-3.13-4.83c-.44-.65-.85-1.23-1.22-1.76l-2.09-.33c-.27.46-.54.94-.8,1.43,1.26.23,2.64.45,4.11.66Z"/><path class="cls-4" d="M70,294.61V293c-.9-.06-1.78-.12-2.65-.2l.15.7.2.92c.75.06,1.52.12,2.3.16Zm0-4.25v-1.59q-1.86-.11-3.6-.27l.35,1.62c1.06.09,2.14.17,3.25.24Zm0-4.26v-1.59c-1.56-.08-3.08-.2-4.54-.35l.36,1.63c1.35.12,2.75.23,4.19.31Zm0-4.27,0-1.58c-1.91-.09-3.74-.25-5.48-.43l.37,1.63c1.63.16,3.35.3,5.13.38ZM70,277.57l0-1.58c-2.25-.11-4.39-.29-6.39-.51l.36,1.63c1.92.2,3.94.36,6,.46Zm-.08-4.27,0-1.58c-2.58-.12-5-.33-7.3-.59l.38,1.64c2.17.24,4.51.43,6.95.53ZM69.77,269l0-1.58c-2.91-.12-5.67-.37-8.18-.67l.38,1.64c2.43.28,5.07.5,7.84.61Zm-.14-4.27-.06-1.58c-3.24-.13-6.29-.41-9-.76l.38,1.64c2.67.33,5.61.59,8.71.7Zm-.19-4.27c0-.54,0-1.07-.08-1.59-3.56-.13-6.89-.45-9.85-.84l.39,1.65c2.89.36,6.12.66,9.54.78Zm-.23-4.28-.09-1.59a101.93,101.93,0,0,1-10.64-.93l.39,1.65c3.09.41,6.6.75,10.34.87Zm-.27-4.55-.11-1.58a102.55,102.55,0,0,1-11.4-.76l.39,1.64a107.48,107.48,0,0,0,11.12.7Zm-.3-4.29-.12-1.58A103.93,103.93,0,0,1,56.37,245l.4,1.64a106.09,106.09,0,0,0,11.87.77Zm-.33-4.29c0-.55-.1-1.07-.14-1.59a103.1,103.1,0,0,1-12.87-.89l.41,1.65a107.06,107.06,0,0,0,12.6.83Zm-.39-4.3c0-.54-.1-1.07-.15-1.58a105.42,105.42,0,0,1-13.55-1l.41,1.65a106,106,0,0,0,13.29.89Zm-.44-4.29c-.06-.56-.12-1.08-.18-1.59a103.42,103.42,0,0,1-14.17-1l.41,1.65a106,106,0,0,0,13.94,1Zm-.53-4.3c-.08-.57-.15-1.09-.23-1.58A104.78,104.78,0,0,1,52,227.49l.42,1.66a105.23,105.23,0,0,0,14.51,1Zm-.68-4.29c-.12-.68-.23-1.2-.32-1.59a103.8,103.8,0,0,1-15.06-1.2l.43,1.67a107.17,107.17,0,0,0,14.95,1.12Zm-.63-4.3v-.08c-.08-.5-.16-1-.25-1.5a105.18,105.18,0,0,1-15.64-1.29l.44,1.67a106.42,106.42,0,0,0,15.45,1.2Zm-.7-4.29-.27-1.59a104.49,104.49,0,0,1-16.08-1.38L49,216a109,109,0,0,0,15.9,1.29Zm-.76-4.3-.29-1.58a105.78,105.78,0,0,1-16.47-1.49l.45,1.68A107.59,107.59,0,0,0,64.18,213Zm-.81-4.32-.31-1.58a102.36,102.36,0,0,1-16.8-1.44l.46,1.68a104.31,104.31,0,0,0,16.65,1.34Zm-.85-4.28c-.11-.53-.21-1.06-.32-1.59a104.74,104.74,0,0,1-17.15-1.55l.47,1.68a104.58,104.58,0,0,0,17,1.46Zm-.89-4.29-.34-1.58a104.75,104.75,0,0,1-17.47-1.69l.47,1.69a105.71,105.71,0,0,0,17.34,1.58Zm-.93-4.29-.35-1.59a104.51,104.51,0,0,1-17.79-1.81l.48,1.7a107.05,107.05,0,0,0,17.66,1.7Zm-1-4.29L59.36,190A106.9,106.9,0,0,1,41.28,188l.49,1.7a107.42,107.42,0,0,0,18,1.84Zm-1-4.3-.39-1.59A106,106,0,0,1,40,183.55l.5,1.72a108.64,108.64,0,0,0,18.23,2Zm-1.06-4.3-.39-1.59a105.48,105.48,0,0,1-18.58-2.25l.5,1.72a107.53,107.53,0,0,0,18.47,2.12Zm-1.08-4.3-.41-1.6a105.93,105.93,0,0,1-18.8-2.4l.51,1.73a109,109,0,0,0,18.7,2.27Zm-1.13-4.31-.42-1.6a106.9,106.9,0,0,1-19-2.56l.52,1.74a108.19,108.19,0,0,0,18.89,2.42Zm-1.15-4.28-.44-1.6a127,127,0,0,1-19-2.26l.51,1.72a129.75,129.75,0,0,0,18.94,2.14ZM53,165.45l-.45-1.59a140.23,140.23,0,0,1-19.09-2.18l.52,1.7a141.88,141.88,0,0,0,19,2.07Zm-1.32-4.64-.47-1.61A173.62,173.62,0,0,1,32,156.8l.53,1.7a172.81,172.81,0,0,0,19.19,2.31Zm-1.28-4.34-.48-1.62a177.93,177.93,0,0,1-19.35-2.53l.54,1.71a176,176,0,0,0,19.29,2.44Zm-1.31-4.36-.5-1.62a182.13,182.13,0,0,1-19.42-2.66l.54,1.71a180,180,0,0,0,19.38,2.57Zm-1.35-4.36-.51-1.63a186.66,186.66,0,0,1-19.49-2.79l.55,1.72a186.64,186.64,0,0,0,19.45,2.7Zm-1.38-4.37-.52-1.64a187.4,187.4,0,0,1-19.56-2.93l.56,1.73a188,188,0,0,0,19.52,2.84ZM45,139l-.53-1.64a190.42,190.42,0,0,1-19.61-3.06l.57,1.74A192.83,192.83,0,0,0,45,139Zm-1.45-4.4L43,133a194,194,0,0,1-19.66-3.2l.59,1.74a191.33,191.33,0,0,0,19.62,3.1ZM42,130.18l-.56-1.65a192.66,192.66,0,0,1-19.72-3.34l.61,1.76A197.7,197.7,0,0,0,42,130.18Zm-1.52-4.42-.58-1.66a193.73,193.73,0,0,1-19.79-3.49l.63,1.77a196.22,196.22,0,0,0,19.74,3.38Zm-1.63-4.65-.6-1.66a188.53,188.53,0,0,1-19.87-3.58l.66,1.78a188.91,188.91,0,0,0,19.81,3.46Zm-1.6-4.46L36.66,115a193.28,193.28,0,0,1-19.12-3.56c.05.62.1,1.17.15,1.66a193.29,193.29,0,0,0,19.58,3.57Zm-1.64-4.48L35,110.48c-7.16-1-13.57-2.38-17.8-3.39,0,.58.08,1.13.12,1.66,4.43,1,11,2.43,18.3,3.42ZM34,107.67l-.64-1.7c-6.58-1-12.43-2.25-16.35-3.19q0,.85.09,1.65c4.12,1,10.16,2.26,16.9,3.24Zm-1.71-4.53-.66-1.7c-5.95-.94-11.2-2.09-14.81-3,0,.56,0,1.1.06,1.64,3.81.91,9.27,2.08,15.41,3Zm-1.76-4.53-.67-1.72C24.54,96,19.92,95,16.64,94.21c0,.55,0,1.1,0,1.64,3.48.82,8.32,1.87,13.8,2.76ZM28.68,94,28,92.32c-4.48-.8-8.4-1.66-11.33-2.35,0,.53,0,1.07-.05,1.61,3.12.74,7.32,1.65,12.07,2.46Zm-1.84-4.58-.71-1.74c-3.51-.65-6.62-1.33-9.09-1.91-.07.52-.13,1-.18,1.58,2.69.63,6.12,1.37,10,2.07ZM25,84.85l-.73-1.75c-2.43-.48-4.63-1-6.51-1.39-.1.51-.2,1-.29,1.56,2.15.5,4.7,1,7.53,1.58ZM23,80.23l-.75-1.77c-1.31-.27-2.54-.54-3.66-.79-.13.5-.25,1-.37,1.54,1.44.33,3,.67,4.78,1Zm-2-4.66-.78-1.79-.51-.11c-.15.49-.3,1-.45,1.52l1.74.38Z"/><path class="cls-4" d="M11.37,291.52l.61,0-.26-1.59h-.19l-.16,1.6ZM10.94,296l1.79,0-.27-1.58-1.37,0L10.94,296Zm-.4,4.45,3-.06-.28-1.58-2.54.05-.14,1.59Zm-.38,4.44c1.34,0,2.72,0,4.13-.07L14,303.21c-1.26,0-2.5.06-3.71.06l-.13,1.59Zm-.36,4.43c1.7,0,3.47,0,5.29-.07l-.29-1.58c-1.67.05-3.3.07-4.88.06l-.12,1.59Zm-.33,4.42c2,0,4.21,0,6.44-.06l-.29-1.59c-2.09.07-4.11.09-6,.07l-.11,1.58Zm-.31,4.41c2.39.06,4.94.05,7.59,0l-.3-1.59c-2.5.09-4.91.1-7.18.06l-.11,1.57Zm-.28,4.41c2.71.08,5.65.09,8.72,0l-.31-1.59c-2.92.11-5.72.1-8.31,0l-.1,1.57Zm-.24,4.41c3,.1,6.33.12,9.82,0l-.31-1.58c-3.34.12-6.53.1-9.43,0l-.08,1.58Zm-.22,4.4c3.29.13,7,.17,10.92,0L19,329.77c-3.76.15-7.34.11-10.53,0l-.07,1.58Zm-.18,4.39c3.56.16,7.66.23,12,.06l-.32-1.59c-4.19.17-8.15.11-11.61,0l-.06,1.57Zm-.14,4.39c3.8.2,8.28.29,13,.09l-.32-1.59c-4.61.2-9,.11-12.66-.07l-.05,1.57ZM8,344.51a139.2,139.2,0,0,0,14,.12l-.31-1.51,0-.07c-5,.22-9.75.11-13.67-.11l0,1.57Zm0,4.39a142.07,142.07,0,0,0,15,.16l-.32-1.59A139.08,139.08,0,0,1,8,347.33v1.57Zm0,4.39a142.05,142.05,0,0,0,15.88.19l-.33-1.59A139.27,139.27,0,0,1,8,351.71c0,.53,0,1.05,0,1.58Zm.08,4.38a141.62,141.62,0,0,0,16.73.23l-.33-1.59A139.41,139.41,0,0,1,8,356.1c0,.53,0,1,0,1.57Zm.14,4.4a143.39,143.39,0,0,0,17.53.25l-.34-1.58a140.94,140.94,0,0,1-17.25-.25l.06,1.58Zm.15,4.39a143.18,143.18,0,0,0,18.32.28l-.34-1.58a142.36,142.36,0,0,1-18-.28l0,1.58Zm.16,4.39a143.39,143.39,0,0,0,19.12.31l0-.11-.32-1.48a139.34,139.34,0,0,1-18.83-.3l0,1.58Zm.16,4.39a145.43,145.43,0,0,0,19.92.34L28.25,374a141.41,141.41,0,0,1-19.64-.34l.06,1.58Zm.16,4.38a144,144,0,0,0,20.7.38l-.34-1.58a143.32,143.32,0,0,1-20.42-.37l.06,1.57ZM9,384a144.18,144.18,0,0,0,21.48.42l-.34-1.59a142.3,142.3,0,0,1-21.2-.4L9,384Zm.16,4.39a144.88,144.88,0,0,0,22.25.44l-.34-1.58a141.26,141.26,0,0,1-22-.44l.06,1.58Zm.17,4.38a144.89,144.89,0,0,0,23,.48L32,391.67a142.7,142.7,0,0,1-22.74-.48l.06,1.58Zm.17,4.38a144.87,144.87,0,0,0,23.77.52l-.34-1.59a142.81,142.81,0,0,1-23.49-.51l.06,1.58Zm.4,4.39a143.06,143.06,0,0,0,24.29.54l-.33-1.58A142.64,142.64,0,0,1,9.61,400l0,.45h.1l.17,1.15Zm.64,4.43a144,144,0,0,0,24.57.54l-.33-1.59a142.18,142.18,0,0,1-24.47-.54l.23,1.59Zm.64,4.43a144.33,144.33,0,0,0,24.84.52l-.32-1.59A141.38,141.38,0,0,1,11,408.8l.23,1.6Zm.65,4.42a143.19,143.19,0,0,0,25.11.52l-.33-1.59a141.36,141.36,0,0,1-25-.52l.23,1.59Zm.66,4.43a144.11,144.11,0,0,0,25.36.51l-.33-1.59a141.49,141.49,0,0,1-25.27-.51l.24,1.59Zm.66,4.43a144,144,0,0,0,25.6.5l-.32-1.59a141.23,141.23,0,0,1-25.52-.51l.24,1.6Zm.67,4.43a144.09,144.09,0,0,0,25.84.48L39.34,427a140.44,140.44,0,0,1-25.76-.49l.24,1.6Zm.67,4.43a143,143,0,0,0,26.07.47l-.32-1.59a141.25,141.25,0,0,1-26-.48l.24,1.6Zm.68,4.43a143.13,143.13,0,0,0,26.3.45l-.33-1.59a139.53,139.53,0,0,1-26.21-.46l.24,1.6Zm.69,4.43a141.92,141.92,0,0,0,26.51.44L42,440.25a140.28,140.28,0,0,1-26.43-.45l.25,1.6Zm.69,4.43a142.61,142.61,0,0,0,26.72.43l-.33-1.59a140.07,140.07,0,0,1-26.64-.44l.25,1.6Zm.69,4.43a141.69,141.69,0,0,0,26.92.41l-.32-1.59A140.31,140.31,0,0,1,17,448.67l.25,1.59Zm.7,4.43a140.77,140.77,0,0,0,27.12.39l-.32-1.58a140.94,140.94,0,0,1-27-.4l.25,1.59Zm.71,4.43a141.2,141.2,0,0,0,27.3.38l-.32-1.59a139.18,139.18,0,0,1-27.24-.38l.26,1.59Zm.71,4.44a141.29,141.29,0,0,0,27.49.35l-.33-1.58A139.63,139.63,0,0,1,19.1,462l.26,1.6Zm.71,4.43a140.93,140.93,0,0,0,27.67.34l-.32-1.59a139.66,139.66,0,0,1-27.6-.34l.25,1.59Zm.72,4.43a140.53,140.53,0,0,0,27.84.33l-.32-1.6a138.67,138.67,0,0,1-27.77-.32l.25,1.59Zm.73,4.44a141.13,141.13,0,0,0,28,.3l-.32-1.59a137.58,137.58,0,0,1-27.94-.31l.26,1.6Zm.73,4.44a140.26,140.26,0,0,0,28.16.27L50.09,480A137.49,137.49,0,0,1,22,479.7l.26,1.6Zm.73,4.43A139.81,139.81,0,0,0,51.3,486L51,484.4a138.75,138.75,0,0,1-28.26-.26l.26,1.59Zm.74,4.44a140.28,140.28,0,0,0,28.46.23l-.32-1.59a137.74,137.74,0,0,1-28.41-.24l.27,1.6Zm.74,4.43a139.22,139.22,0,0,0,28.61.21l-.32-1.59A137.6,137.6,0,0,1,24.19,493l.27,1.59Zm.75,4.44a138.89,138.89,0,0,0,28.74.18l-.32-1.58a137.68,137.68,0,0,1-28.69-.2l.27,1.6Zm.75,4.44a139.2,139.2,0,0,0,28.88.16l-.32-1.6a136.94,136.94,0,0,1-28.83-.16l.27,1.6Zm.75,4.44a138.89,138.89,0,0,0,29,.13l-.32-1.59a136.52,136.52,0,0,1-29-.14l.27,1.6Zm.75,4.44a139.24,139.24,0,0,0,29.14.1l-.32-1.59a136.25,136.25,0,0,1-29.09-.11l.27,1.6Zm.74,4.43a138.71,138.71,0,0,0,29.28.09l-.32-1.6a136.09,136.09,0,0,1-29.23-.08l.27,1.59Zm.73,4.44a138.57,138.57,0,0,0,29.43.06l-.32-1.6a135.75,135.75,0,0,1-29.37-.06l.26,1.6Zm.74,4.43a137.52,137.52,0,0,0,29.57,0l-.32-1.6a135,135,0,0,1-29.52,0l.27,1.59Zm.73,4.44a137.4,137.4,0,0,0,29.72,0l-.32-1.59a135.93,135.93,0,0,1-29.67,0l.27,1.6Zm.73,4.44a137.21,137.21,0,0,0,29.86,0l-.31-1.6a135.35,135.35,0,0,1-29.82,0l.27,1.6Zm.72,4.43a137.06,137.06,0,0,0,30,0l-.32-1.59a134.92,134.92,0,0,1-30,0l.26,1.6Zm.73,4.44a137,137,0,0,0,30.17-.07l-.32-1.59a134.84,134.84,0,0,1-30.11.06l.26,1.6Zm.73,4.43a136,136,0,0,0,30.31-.09l-.32-1.6a133.49,133.49,0,0,1-30.25.09l.26,1.6Zm.73,4.44a136.46,136.46,0,0,0,30.45-.12l-.31-1.59a133.92,133.92,0,0,1-30.4.11l.26,1.6Zm.73,4.43a135.66,135.66,0,0,0,30.6-.14l-.32-1.6a133.92,133.92,0,0,1-30.54.15l.26,1.59Zm.74,4.44A135.42,135.42,0,0,0,66.24,561l-.32-1.59a133.54,133.54,0,0,1-30.68.16l.27,1.6Zm.74,4.43a134.48,134.48,0,0,0,30.86-.19l-.32-1.6c-12.39,1.75-25,.81-30.81.2l.27,1.59ZM37,570a135.43,135.43,0,0,0,31-.22l-.31-1.6c-12.43,1.78-25.13.84-30.95.22L37,570Zm.75,4.44a134.55,134.55,0,0,0,31.11-.25l-.32-1.6c-12.44,1.81-25.19.87-31.06.25l.27,1.6Zm.76,4.44c6.07.62,18.79,1.52,31.22-.28L69.4,577c-12.46,1.83-25.26.9-31.17.28l.27,1.6Zm.76,4.44c6.12.63,18.88,1.51,31.32-.31l-.31-1.6c-12.47,1.86-25.32.93-31.28.31l.27,1.6Zm.77,4.44c6.17.63,19,1.51,31.42-.34l-.31-1.6c-12.49,1.88-25.37,1-31.39.34l.28,1.6Zm.78,4.43c6.23.64,19,1.51,31.5-.37L72,590.25c-12.48,1.91-25.39,1-31.47.36l.28,1.6Zm.79,4.45c6.29.63,19.13,1.49,31.57-.4l-.31-1.6c-12.47,1.93-25.41,1-31.54.4l.28,1.6Zm.8,4.44c6.35.64,19.21,1.48,31.63-.44l-.31-1.6c-12.46,2-25.41,1.08-31.61.44l.29,1.6Z"/><path class="cls-4" d="M9.68,430.65l-.14,1.6,1-.08-.25-1.57-.64,0Zm-.39,4.53-.14,1.6c.79,0,1.49-.11,2.12-.17L11,435c-.52,0-1.1.1-1.73.14ZM8.9,439.7l-.13,1.59c1.23-.07,2.3-.15,3.21-.23l-.25-1.57c-.82.07-1.76.15-2.83.21Zm-.37,4.51L8.4,445.8c1.69-.08,3.12-.18,4.29-.29l-.25-1.57c-1.08.1-2.38.19-3.91.27Zm-.36,4.49L8,450.29c2.17-.08,4-.2,5.36-.33l-.25-1.57c-1.32.12-3,.23-5,.31Zm-.36,4.49-.12,1.59c2.66-.08,4.8-.22,6.43-.37l-.25-1.57c-1.56.14-3.57.27-6.06.35Zm-.34,4.48-.12,1.59c3.16-.08,5.66-.24,7.5-.4l-.26-1.57c-1.76.16-4.14.31-7.12.38Zm-.33,4.47L7,463.72c3.67-.05,6.52-.23,8.56-.41l-.26-1.57c-2,.17-4.7.34-8.18.4Zm-.32,4.46-.11,1.58c4.17,0,7.37-.22,9.61-.43l-.26-1.56c-2.17.18-5.24.37-9.24.41Zm-.3,4.46-.11,1.58c4.69,0,8.24-.22,10.65-.44l-.26-1.57c-2.35.21-5.77.41-10.28.43Zm-.29,4.44-.1,1.59c5.2,0,9.09-.21,11.67-.44l-.26-1.57c-2.51.22-6.28.44-11.31.42ZM6,480l-.09,1.58a126.19,126.19,0,0,0,12.69-.44l-.27-1.57c-2.68.24-6.78.48-12.33.43Zm-.24,4.44L5.64,486a132.61,132.61,0,0,0,13.67-.43L19,484a132.62,132.62,0,0,1-13.32.42Zm-.21,4.43-.07,1.58A134.09,134.09,0,0,0,20.07,490l-.27-1.57a134,134,0,0,1-14.29.4Zm-.18,4.43,0,1.58a137.34,137.34,0,0,0,15.55-.4l-.27-1.57a135,135,0,0,1-15.23.39Zm-.12,4.42c0,.55,0,1.08,0,1.59a138,138,0,0,0,16.41-.39l-.27-1.56a134.94,134.94,0,0,1-16.12.36Zm0,4.43v1.58a138.87,138.87,0,0,0,17.19-.36l-.27-1.57a139.48,139.48,0,0,1-16.93.35Zm0,4.43,0,1.58a140.25,140.25,0,0,0,17.91-.35l-.28-1.57a138.68,138.68,0,0,1-17.65.34ZM5.3,511l0,1.35v.24a141.29,141.29,0,0,0,18.59-.34l-.28-1.56A141,141,0,0,1,5.3,511Zm.1,4.42,0,1.59a143.37,143.37,0,0,0,19.27-.31l-.28-1.57a140.88,140.88,0,0,1-19,.29Zm.12,4.43,0,1.58a143.45,143.45,0,0,0,19.94-.29l-.28-1.57a143.81,143.81,0,0,1-19.7.28Zm.13,4.42,0,1.58a143.69,143.69,0,0,0,20.6-.27L26,524a143.94,143.94,0,0,1-20.36.26Zm.13,4.42,0,1.59A144.94,144.94,0,0,0,27.08,530l-.28-1.56a146.22,146.22,0,0,1-21,.23Zm.14,4.42,0,1.58a144.58,144.58,0,0,0,21.91-.23l-.28-1.56a146.72,146.72,0,0,1-21.68.21Zm.14,4.41.06,1.59a146.61,146.61,0,0,0,22.56-.21l-.28-1.56a146.45,146.45,0,0,1-22.34.18Zm.16,4.42,0,1.59a148.84,148.84,0,0,0,23.22-.19l-.29-1.56a147.07,147.07,0,0,1-23,.16Zm.15,4.41,0,1.6a149.63,149.63,0,0,0,23.87-.17L30,546.17a147.28,147.28,0,0,1-23.64.13Zm.16,4.42,0,1.59a149.8,149.8,0,0,0,24.52-.14l-.28-1.56a148.3,148.3,0,0,1-24.29.11Zm.16,4.41,0,1.59a150.3,150.3,0,0,0,25.18-.11L31.63,555a148.27,148.27,0,0,1-24.94.09Zm.16,4.41.06,1.59a150.64,150.64,0,0,0,25.82-.08l-.29-1.57a148.74,148.74,0,0,1-25.59.06ZM7,564l.06,1.59a151,151,0,0,0,26.48-.06l-.29-1.56A150.58,150.58,0,0,1,7,564Zm.17,4.41L7.24,570c14.16,1,23.2.41,27.13,0l-.29-1.56c-3.91.43-12.85,1-26.9,0Zm.17,4.41.06,1.59c14.61,1.11,23.86.44,27.78,0l-.29-1.56c-3.9.43-13.06,1.08-27.55,0Zm.17,4.4.07,1.6c15.06,1.18,24.53.47,28.43,0l-.29-1.56c-3.89.44-13.26,1.13-28.21-.06Zm.18,4.41.06,1.6c15.53,1.25,25.21.5,29.09.05l-.29-1.56c-3.86.45-13.46,1.16-28.86-.09ZM7.87,586l.07,1.59c16,1.32,25.9.54,29.74.08l-.29-1.56c-3.83.45-13.64,1.22-29.52-.11Zm.18,4.4.06,1.6c16.49,1.4,26.61.57,30.4.11l-.29-1.56c-3.78.45-13.81,1.25-30.17-.15Zm.18,4.4.06,1.6c17,1.48,27.32.6,31.06.15l-.3-1.56c-3.73.45-14,1.3-30.82-.19Zm.18,4.4.06,1.6c17.49,1.56,28,.64,31.71.18l-.29-1.56c-3.66.45-14.12,1.35-31.48-.22Z"/><path class="cls-4" d="M76.06,434.07h0Zm0-2.82V431l0-1.24v0l-1.55,0v0l.23,1.16h0v0h0v0h0v0h0v0h0v.09h0v.05h0v.05Zm.06-4.39v-1.57q-1.31,0-2.49,0l0,.12.16.76.08.38.06.32,2.15,0Zm0-4.39v-1.58c-1.22,0-2.38,0-3.46,0l0,.15.08.41.18.81,0,.2c1,0,2,0,3.11,0Zm0-4.41h0v-1.58c-1.59,0-3.07,0-4.43,0l.34,1.58c1.27,0,2.63,0,4.08,0Zm0-4.41v-1.57c-2,0-3.78,0-5.41,0l.17.74.19.83c1.54,0,3.24,0,5,0Zm0-4.41v-1.58c-2.33.06-4.48.06-6.39,0l.29,1.26.07.32c1.82,0,3.85,0,6,0Zm0-4.42v-.08l0-1.39v-.12c-2.71.1-5.2.1-7.35,0l.33,1.41,0,.16c2.08,0,4.45,0,7,0Zm-.07-4.43h0l0-1.57c-3.06.12-5.89.12-8.29.07l.3,1.26.07.31c2.33.06,5,.06,8-.06ZM76,396,76,394.45v-.07c-3.43.16-6.57.16-9.2.1l.19.81.18.77c2.55.05,5.58.05,8.88-.1Zm-.14-4.43v-.08l-.06-1.51c-3.78.21-7.24.21-10.08.14l0,.09.35,1.49c2.78.07,6.13.06,9.77-.13Zm-.17-4.43V387l-.07-1.51c-4.12.25-7.9.25-10.94.17l.22.95.15.62c3,.08,6.65.08,10.64-.15Zm-.21-4.44v-.42h0v-.45l0-.71h0c-4.45.29-8.52.29-11.75.2l.37,1.58c3.18.08,7.15.07,11.47-.2Zm-.26-4.43,0-.45-.08-1.15c-4.75.34-9.12.35-12.52.25l.12.48.26,1.1c3.35.09,7.61.08,12.25-.23Zm-.3-4.44-.12-1.59a126.93,126.93,0,0,1-13.25.28l.24,1,.13.55c3.52.1,8.06.09,13-.27Zm-.33-4.44-.12-1.59a123.78,123.78,0,0,1-14,.32l.36,1.51v.06a125.74,125.74,0,0,0,13.72-.3Zm-.35-4.44-.13-1.59a123.65,123.65,0,0,1-14.67.36l.38,1.58a127.85,127.85,0,0,0,14.42-.35Zm-.37-4.44-.15-1.57v0a123.32,123.32,0,0,1-15.33.39l.06.26.32,1.32a125.1,125.1,0,0,0,15.1-.38ZM73.46,356l-.15-1.53v-.06a123.38,123.38,0,0,1-16,.43l.14.56.24,1A126.71,126.71,0,0,0,73.46,356ZM73,351.6V351h0V350a122.85,122.85,0,0,1-16.56.46l.2.83.18.75A126.05,126.05,0,0,0,73,351.6Zm-.5-4.44v0l-.19-1.55a123.56,123.56,0,0,1-17.1.49l.26,1.06.12.52a125.37,125.37,0,0,0,16.91-.49Zm-1.2-8.85v-.43h0v-.38l-.12-.7v-.07a122.09,122.09,0,0,1-18,.53l.37,1.5,0,.08a124.38,124.38,0,0,0,17.83-.53Zm-.77-4.41h0l0-.16v-.05h0l0-.18v0l0-.19v0h0l0-.08v-.12h0l0-.16h0l-.11-.53v0a122.77,122.77,0,0,1-18.2.53l.39,1.58a124.57,124.57,0,0,0,18.13-.54Zm-1-4.38h0l0-.11h0l-.12-.75h0v0h0v0h0v0h0l0-.49h0a122.91,122.91,0,0,1-18.41.52l.38,1.58a124.69,124.69,0,0,0,18.17-.51Zm0-4.48v-.13h0v0h0v-.05h0v0h0v-.09h0v-.07h0v-.14h0v-.15h0c0-.28,0-.56-.07-.86h0a123.64,123.64,0,0,1-19.49.61l0,.08.37,1.5a124.24,124.24,0,0,0,19.2-.59ZM69,320.59h0v0h0l-.06-.36h0v0h0v0l0-.15h0v0h0v0h0v0h0v0h0v0h0v0h0v0h0v0h0v-.08h0l0-.14,0-.14,0-.15,0-.14v0a121.66,121.66,0,0,1-19.94.63l.09.36.3,1.23A125,125,0,0,0,69,320.59Zm-.83-4.4v0l0-.17,0-.16,0-.16,0-.17,0-.16,0-.13h0c-.07-.23-.11-.34-.11-.34l0-.25a122,122,0,0,1-20.13.63l.16.65.23.93a123.45,123.45,0,0,0,20.09-.63Zm-.88-4.4-.1-.51,0-.19,0-.18-.11-.53v0l0-.13a121.35,121.35,0,0,1-20.35.62l.24,1,.14.59a123.83,123.83,0,0,0,20.29-.63Zm-.9-4.39,0-.13,0-.2-.25-1.2v-.05a122.32,122.32,0,0,1-20.52.61l.34,1.39,0,.19a123.52,123.52,0,0,0,20.46-.61ZM65.51,303l0-.13,0-.22,0-.23L65.3,302l0-.23,0-.22,0-.1h0a122,122,0,0,1-20.69.59l.39,1.58A124.24,124.24,0,0,0,65.51,303Zm-.93-4.41,0-.16-.05-.24,0-.25,0-.25-.06-.25,0-.25,0-.18a141.47,141.47,0,0,1-20.84.57l.12.48.27,1.11h0a143.54,143.54,0,0,0,20.79-.58Zm-.95-4.39-.34-1.58a142,142,0,0,1-21,.56l.28,1.1.12.48a145.13,145.13,0,0,0,20.92-.56Z"/><path class="cls-4" d="M27.74,143.29l.28.85,0,.12.19.59h.14l-.44-1.57-.2,0Zm1.39,4.35.33,1.05-.3-1.05ZM62.26,269.85l.37,1.59h0l-.37-1.58Zm1,4.39.36,1.59h0l-.36-1.6Z"/><path class="cls-4" d="M62.52,289.09l-.22-1h0c-3.09.38-6.23.63-8.89.77-4.61.25-8.86.21-12.14.1l0,.17.09.36,0,.09.23,1c3.26.11,7.43.13,12-.1,2.7-.14,5.89-.39,9-.77l-.13-.6Zm-.85-3.84-.06-.29-.29-1.29a118,118,0,0,1-21.15.88v0l.09.35.08.34.09.35.08.35,0,.16a119.2,119.2,0,0,0,21.11-.88Zm-1-4.39,0-.16-.32-1.42a119.36,119.36,0,0,1-21.27.87l0,.1.08.33.08.32.16.64v0l0,.17a120.5,120.5,0,0,0,21.22-.87Zm-1-4.4,0-.15-.33-1.43a119.66,119.66,0,0,1-21.37.87l0,.12v0l.13.54,0,.05.07.3.08.31.06.24a120.91,120.91,0,0,0,21.33-.87Zm-1.06-4.66-.3-1.31a117.9,117.9,0,0,1-21.47.85l0,.18.28,1.13.07.28a121.19,121.19,0,0,0,21.44-.86l-.06-.27Zm-1-4.12-.11-.49-.26-1.09a119,119,0,0,1-21.57.84l0,.19.07.27.07.27.12.5v0l.07.27v0a121.22,121.22,0,0,0,21.54-.84Zm-1-4.39-.19-.81-.18-.77a119.25,119.25,0,0,1-21.67.83v0l.06.24.06.24.06.24.07.25.06.25.07.25v.07a122.4,122.4,0,0,0,21.64-.83Zm-1-4.39-.29-1.2-.09-.38h0a119.31,119.31,0,0,1-21.77.81l0,.12.06.21.11.43h0l.06.22,0,.22.06.22,0,.15a120.56,120.56,0,0,0,21.74-.81Zm-2.1-8.77-.13-.56-.25-1a119.75,119.75,0,0,1-21.92.77v0l.38,1.51v0a121.26,121.26,0,0,0,21.91-.77Zm-1.06-4.39-.28-1.12-.11-.45a120.34,120.34,0,0,1-21.91.75l0,.14.34,1.44a121.32,121.32,0,0,0,21.92-.76Zm-1.08-4.38v-.06L51,239.79a120.47,120.47,0,0,1-21.86.73v0l.35,1.52h0a121.54,121.54,0,0,0,21.88-.74ZM50.32,237l-.18-.7-.22-.87a120.92,120.92,0,0,1-21.76.71l.3,1.37.05.21A122.39,122.39,0,0,0,50.32,237Zm-1.1-4.38-.34-1.35-.06-.22a121.33,121.33,0,0,1-21.64.7l.34,1.55v0a121.69,121.69,0,0,0,21.69-.7Zm-1.11-4.38-.09-.34-.32-1.23a120.2,120.2,0,0,1-21.49.68l.14.61.21,1a122.86,122.86,0,0,0,21.55-.69ZM47,223.84l-.26-1-.14-.56a120.74,120.74,0,0,1-21.31.66l0,.15.31,1.43A121.4,121.4,0,0,0,47,223.84Zm-1.14-4.37-.41-1.57a121.79,121.79,0,0,1-21.09.64l.27,1.29.06.29a122.72,122.72,0,0,0,21.17-.65Zm-1.15-4.38h0l-.42-1.56a121.82,121.82,0,0,1-20.85.63l.17.82.16.76a124,124,0,0,0,20.94-.64Zm-1.17-4.37-.42-1.57a120.28,120.28,0,0,1-20.59.6l.09.42.24,1.16a123.5,123.5,0,0,0,20.68-.61Zm-1.19-4.37-.06-.24-.36-1.33a121.71,121.71,0,0,1-20.3.58l0,.1.3,1.48a122.94,122.94,0,0,0,20.4-.59ZM41.13,202v0l-.42-1.54a121.74,121.74,0,0,1-20,.56L21,202.4l0,.15A124.28,124.28,0,0,0,41.13,202Zm-1.22-4.37-.44-1.56a123.7,123.7,0,0,1-19.62.53l.27,1.36,0,.21a123,123,0,0,0,19.75-.54Zm-1.24-4.36-.05-.18-.4-1.39a120.64,120.64,0,0,1-19.24.5l0,.14.28,1.37v.07a124.93,124.93,0,0,0,19.38-.51Zm-1.26-4.37-.33-1.13-.13-.43a122.09,122.09,0,0,1-18.83.47l.12.6.19,1a123.06,123.06,0,0,0,19-.49Zm-1.27-4.36-.06-.2-.4-1.37a122.69,122.69,0,0,1-18.42.45l0,.23.22,1.14,0,.21a124.83,124.83,0,0,0,18.57-.46Zm-1.28-4.37-.23-.79-.23-.77a122.92,122.92,0,0,1-18,.42l.09.48.19,1,0,.13a124,124,0,0,0,18.14-.44Zm-1.29-4.36-.34-1.17-.12-.4a121.93,121.93,0,0,1-17.53.4h0l.12.69.14.73,0,.15a125.77,125.77,0,0,0,17.69-.41Zm-1.29-4.37-.4-1.33-.07-.23a123.14,123.14,0,0,1-16.91.38v.2h0v.27h0v.07l0,.27v.19h0l.06.55a126.15,126.15,0,0,0,17.21-.39ZM31,167.06l-.47-1.57a124.46,124.46,0,0,1-16,.38l.12,1.37h0l0,.18A124,124,0,0,0,31,167.06Zm-1.32-4.37-.32-1-.16-.52a122.9,122.9,0,0,1-15,.36c0,.52.07,1,.11,1.55v0a125.25,125.25,0,0,0,15.39-.37Zm-1.33-4.36-.49-1.56a125.55,125.55,0,0,1-13.94.35v0l0,.74V158l0,.71h0a126.13,126.13,0,0,0,14.35-.36ZM27,154l-.35-1.14-.13-.42a120.31,120.31,0,0,1-12.75.34v.2h0V153h0v0h0v.05h0c0,.41,0,.82,0,1.22h0A123.5,123.5,0,0,0,27,154Zm-1.36-4.36-.08-.25-.35-1.11-.06-.2c-4.19.32-8.12.38-11.41.33v0c0,.52,0,1,0,1.54h0c3.41.06,7.53,0,11.91-.34Zm-1.39-4.37-.06-.2-.33-1-.11-.33h0c-3.55.26-6.91.34-9.85.31v.2c0,.45-.05.9-.07,1.35v0c3.08,0,6.65,0,10.43-.32Z"/><path class="cls-4" d="M22.25,139.16c-1.35.1-2.65.17-3.85.23-1.45.06-2.85.1-4.21.12h0l0,.37v0h0l0,.39h0l-.06.79c1.45,0,3-.05,4.52-.12,1.3-.06,2.71-.14,4.17-.25l-.5-1.56Zm-1.43-4.35c-2.13.16-4.2.25-6.16.29v0c-.06.52-.12,1-.18,1.56h0c2.16,0,4.47-.13,6.85-.32l-.51-1.56Zm-.94-2.8L19.52,131l-.16-.5c-1.4.09-2.78.16-4.1.21-.08.52-.15,1.05-.23,1.59h0c1.56,0,3.19-.12,4.85-.24Zm-1.48-4.36,0-.11-.42-1.24-.08-.22-1.9.11v.19l0,.2v0l-.06.35v0l-.06.35h0v.13l0,.28h0c.88,0,1.78-.08,2.7-.14Zm-1.52-4.37-.1-.27-.17-.49-.06.33-.06.34,0,.11.41,0Z"/><path class="cls-4" d="M82.82,600.38V598.8c-2.56,0-4.89-.08-6.9-.17l.3,1.59c1.94.08,4.17.15,6.61.16Zm0-4.41V594.4c-2.87,0-5.47-.08-7.68-.18l.29,1.58c2.15.1,4.65.17,7.4.17Zm0-4.41,0-1.57c-3.18,0-6.06-.07-8.47-.18l.3,1.58c2.35.11,5.12.18,8.19.17Zm0-4.41,0-1.58c-3.5,0-6.66-.05-9.25-.17l.29,1.58c2.54.11,5.6.2,9,.17Zm-.09-6c-3.81.05-7.23,0-10-.17l.29,1.58c2.74.13,6.07.21,9.75.17l0-1.58Zm-.1-4.42c-4.1.06-7.79,0-10.74-.16l.3,1.58c2.9.13,6.49.22,10.47.16l0-1.58Zm-.11-4.42c-4.39.09-8.34,0-11.46-.15l.3,1.58c3.08.14,6.93.23,11.2.15l0-1.58Zm-.1-4.43c-4.69.12-8.9,0-12.19-.14l.3,1.59c3.25.15,7.36.24,11.93.14l0-1.59Zm-.11-4.42c-5,.14-9.46,0-12.9-.13l.29,1.59c3.42.15,7.79.26,12.65.12l0-1.58ZM82.08,559c-5.27.18-10,.08-13.61-.1l.29,1.58c3.58.18,8.22.28,13.36.11l0-1.59ZM82,554.6c-5.56.22-10.57.1-14.33-.08l.3,1.58c3.73.18,8.64.29,14.07.09l0-1.59Zm-.13-4.43c-5.84.25-11.11.13-15-.06l.3,1.58c3.89.19,9.06.3,14.78.06l0-1.58Zm-.13-4.44c-6.13.29-11.67.17-15.73,0l.3,1.59c4,.19,9.47.31,15.48,0l0-1.59Zm-.14-4.44a161.47,161.47,0,0,1-16.42,0l.3,1.59c4.18.2,9.89.32,16.17,0l0-1.59Zm-.14-4.44a164.52,164.52,0,0,1-17.11,0l.29,1.59a168.64,168.64,0,0,0,16.87,0l0-1.59Zm-.15-4.45a162.92,162.92,0,0,1-17.8.06l.3,1.59a171.4,171.4,0,0,0,17.55,0l0-1.6ZM81.1,528a166,166,0,0,1-18.46.09l.3,1.59a169.17,169.17,0,0,0,18.22-.09L81.1,528Zm-.18-4.45a162.62,162.62,0,0,1-19.12.13l.3,1.58A167.09,167.09,0,0,0,81,525.11l-.06-1.47v-.13Zm-.2-4.45a161.88,161.88,0,0,1-19.76.17l.3,1.58a168.21,168.21,0,0,0,19.54-.15c0-.54-.06-1.07-.08-1.6Zm-.27-4.44a164,164,0,0,1-20.33.2l.3,1.58a166.49,166.49,0,0,0,20.13-.19c0-.53-.07-1.07-.1-1.59Zm-.33-4.45a159.8,159.8,0,0,1-20.84.23l.3,1.59a164.2,164.2,0,0,0,20.67-.22c0-.54-.08-1.07-.13-1.6Zm-.38-4.44a162.34,162.34,0,0,1-21.3.26l.3,1.59a163.54,163.54,0,0,0,21.15-.26l-.15-1.59Zm-.45-4.43a163.6,163.6,0,0,1-21.69.28l.3,1.58a164.78,164.78,0,0,0,21.56-.27c-.06-.54-.11-1.07-.17-1.59Zm-.52-4.43a161.94,161.94,0,0,1-22,.29l.3,1.59a163.55,163.55,0,0,0,21.9-.29c-.06-.54-.13-1.07-.19-1.59Zm-.61-4.42a160.87,160.87,0,0,1-22.25.3l.3,1.59A163.23,163.23,0,0,0,78.39,494c-.07-.54-.15-1.07-.23-1.58ZM77.48,488a160.32,160.32,0,0,1-22.41.31l.3,1.58a162.65,162.65,0,0,0,22.36-.31c-.08-.54-.17-1.07-.25-1.58Zm-.79-4.41a161.2,161.2,0,0,1-22.47.31l.3,1.58A162.54,162.54,0,0,0,77,485.2c-.1-.55-.2-1.07-.29-1.58Zm-.92-4.39a162.87,162.87,0,0,1-22.4.29l.31,1.58a163.49,163.49,0,0,0,22.43-.3c-.11-.57-.23-1.09-.34-1.57Zm-1.08-4.39a162,162,0,0,1-22.17.26l.31,1.59a166.84,166.84,0,0,0,22.26-.27c-.24-.91-.38-1.36-.38-1.37l0-.21Zm.15-4.49a161.32,161.32,0,0,1-23.17.34l.31,1.58a163.84,163.84,0,0,0,22.78-.3l.08-1.62Zm.21-4.5a159.61,159.61,0,0,1-24.24.42l.31,1.59A161.89,161.89,0,0,0,75,467.47l.07-1.62Zm.19-4.51a157.66,157.66,0,0,1-25.28.52l.31,1.59A160.76,160.76,0,0,0,75.18,463l.06-1.62ZM75,456.89a181.09,181.09,0,0,1-25.87.53l.31,1.58a184.38,184.38,0,0,0,25.72-.51c0-.49-.1-1-.16-1.6Zm-.53-4.44a178.9,178.9,0,0,1-26.2.55l.31,1.59a184.4,184.4,0,0,0,26.1-.54c-.06-.51-.13-1-.21-1.6Z"/><path class="cls-4" d="M73.79,447.86c-4.19.55-8.76.85-12.44,1-5.44.18-10.39,0-14-.19l.31,1.59c3.56.2,8.44.35,13.79.19,3.71-.13,8.3-.43,12.54-1-.07-.51-.15-1-.24-1.6Zm-.72-4.53a127.22,127.22,0,0,1-26.55.87l.31,1.59a130.74,130.74,0,0,0,26.51-.85c-.09-.52-.17-1.06-.27-1.61Zm-.76-4.42a127.71,127.71,0,0,1-26.66.88l.32,1.58a129.06,129.06,0,0,0,26.62-.86l-.28-1.6Zm-.81-4.41a128.1,128.1,0,0,1-26.71.87L45.1,437a129.26,129.26,0,0,0,26.7-.87l-.3-1.59Zm-.86-4.41a128.22,128.22,0,0,1-26.72.87l.31,1.59A129.47,129.47,0,0,0,71,431.68l-.31-1.59Zm-.9-4.4a128.62,128.62,0,0,1-26.7.86l.32,1.58a129.29,129.29,0,0,0,26.71-.86l-.33-1.58Zm-.92-4.4a128,128,0,0,1-26.65.84l.31,1.59a130.1,130.1,0,0,0,26.67-.84l-.33-1.59Zm-1-4.4a128.38,128.38,0,0,1-26.56.83l.31,1.58a129.21,129.21,0,0,0,26.6-.82l-.35-1.59Zm-1-4.39a127.1,127.1,0,0,1-26.46.8l.31,1.59a130.18,130.18,0,0,0,26.5-.8l-.09-.4-.26-1.19Zm-1-4.38a129.14,129.14,0,0,1-26.34.77l.32,1.59a130.36,130.36,0,0,0,26.39-.78l-.37-1.58Zm-1-4.39a129.21,129.21,0,0,1-26.22.75l.32,1.58a130.32,130.32,0,0,0,26.27-.75l-.37-1.58Zm-1-4.38a129.77,129.77,0,0,1-26.1.71l.32,1.59a131.77,131.77,0,0,0,26.15-.72l-.37-1.58Zm-1-4.39a130.5,130.5,0,0,1-26,.69l.32,1.58a130.87,130.87,0,0,0,26-.69L62.8,395Zm-1-4.38a130.32,130.32,0,0,1-25.85.65l.33,1.59a133.2,133.2,0,0,0,25.9-.66l-.38-1.58Zm-1-4.39a130.27,130.27,0,0,1-25.73.62l.33,1.59a131.49,131.49,0,0,0,25.77-.63l-.37-1.58Zm-1-4.38a131,131,0,0,1-25.62.58l.34,1.6a133.19,133.19,0,0,0,25.66-.6l-.38-1.58Zm-1-4.39a132,132,0,0,1-25.51.56l.34,1.59A133.28,133.28,0,0,0,59,379l-.38-1.58Zm-1-4.38a132,132,0,0,1-25.41.52l.34,1.59A134.17,134.17,0,0,0,58,374.62L57.62,373Zm-1-4.39a131.47,131.47,0,0,1-25.32.49l.24,1.07.11.52a134.38,134.38,0,0,0,25.35-.5l-.38-1.58Zm-1-4.38a132.3,132.3,0,0,1-25.22.45l.34,1.59a133.83,133.83,0,0,0,25.26-.47l-.38-1.57Zm-1.05-4.39a132.45,132.45,0,0,1-25.12.42l.34,1.59a133.85,133.85,0,0,0,25.16-.43l-.38-1.58Zm-1-4.38a133.07,133.07,0,0,1-25,.38l.34,1.59a134.53,134.53,0,0,0,25-.39l-.38-1.58Zm-1.06-4.39a132.79,132.79,0,0,1-24.86.35l.33,1.6a135.45,135.45,0,0,0,24.91-.37l-.38-1.58Zm-1-4.38a134.39,134.39,0,0,1-24.73.32l.33,1.59a136.22,136.22,0,0,0,24.78-.34l-.38-1.57Zm-1.06-4.39a133.89,133.89,0,0,1-24.57.29l.32,1.59a136.61,136.61,0,0,0,24.63-.3l-.38-1.58ZM49.18,338a134.27,134.27,0,0,1-24.39.27l.32,1.58a135.09,135.09,0,0,0,24.46-.27L49.18,338Zm-1.06-4.39a133.55,133.55,0,0,1-24.21.24l.31,1.59a136.49,136.49,0,0,0,24.28-.25l-.38-1.58Zm-1.06-4.38a135.59,135.59,0,0,1-24,.21l.31,1.58a134.72,134.72,0,0,0,24.09-.22l-.38-1.57ZM46,324.79a134.75,134.75,0,0,1-23.81.19l.31,1.58a136.62,136.62,0,0,0,23.88-.19L46,324.79Zm-1.07-4.39a135.48,135.48,0,0,1-23.58.16l.3,1.59A137.74,137.74,0,0,0,45.3,322l-.38-1.58ZM43.85,316a136.38,136.38,0,0,1-23.34.14l.3,1.58a137.65,137.65,0,0,0,23.42-.15L43.85,316Zm-1.08-4.39a134.8,134.8,0,0,1-23.08.11l.29,1.59a136.52,136.52,0,0,0,23.18-.13l-.39-1.57Zm-.69-2.82-.4-1.57a135.44,135.44,0,0,1-22.79.1l.29,1.58a137.09,137.09,0,0,0,22.9-.11ZM41,304.43l-.4-1.58a136.71,136.71,0,0,1-22.47.08l.29,1.58A138.17,138.17,0,0,0,41,304.43Z"/><path class="cls-4" d="M39.81,299.9l-.41-1.58c-3,.26-6.11.42-8.72.49-5.13.13-9.82,0-13.34-.26l.28,1.58c3.5.22,8.14.38,13.2.26,2.69-.07,5.84-.22,9-.49Zm-1.15-4.42-.41-1.57a133.46,133.46,0,0,1-21.67.2l.27,1.59a134.38,134.38,0,0,0,21.81-.22Zm-1.14-4.39-.41-1.57a132.68,132.68,0,0,1-21.26.18l.26,1.59a134.92,134.92,0,0,0,21.41-.2Zm-1.15-4.38L36,285.13a132.8,132.8,0,0,1-20.82.16l.25,1.59a136.3,136.3,0,0,0,21-.17Zm-1.15-4.39-.41-1.58a134.29,134.29,0,0,1-20.36.15l.24,1.58a136.55,136.55,0,0,0,20.53-.15Zm-1.15-4.39-.42-1.57a135.17,135.17,0,0,1-19.86.12l.14.95.09.63a135.17,135.17,0,0,0,20.05-.13Zm-1.16-4.39-.28-1.06-.14-.52a132.73,132.73,0,0,1-19.28.11c.06.53.13,1.06.2,1.59a136,136,0,0,0,19.5-.12Zm-1.17-4.39-.42-1.58a133.79,133.79,0,0,1-18.61.11c0,.52.11,1.05.17,1.58a137.41,137.41,0,0,0,18.86-.11Zm-1.17-4.39-.42-1.58a134.2,134.2,0,0,1-17.86.11c0,.52.09,1,.14,1.57a136.49,136.49,0,0,0,18.14-.1Zm-1.19-4.39L29,258.79a133.59,133.59,0,0,1-17,.11l.12,1.57a136.22,136.22,0,0,0,17.31-.1ZM28.18,256l-.42-1.58a134,134,0,0,1-16.06.11c0,.52.05,1.05.08,1.57a137.31,137.31,0,0,0,16.4-.1ZM27,251.58,26.6,250a132.54,132.54,0,0,1-15.08.11l.06,1.57A134.08,134.08,0,0,0,27,251.58Zm-1.12-4.4-.4-1.57a132,132,0,0,1-14.08.13l0,1.57a136.38,136.38,0,0,0,14.45-.13Zm-1.09-4.4-.39-1.57c-4.77.3-9.28.28-13,.14,0,.53,0,1.05,0,1.57a133.57,133.57,0,0,0,13.43-.14Zm-1.07-4.4-.37-1.58c-4.34.27-8.46.27-12,.16,0,.53,0,1,0,1.57,3.63.12,7.88.12,12.37-.15Zm-1-4.4-.37-1.58c-3.91.23-7.63.25-10.89.17l0,1.57c3.37.09,7.22.07,11.29-.16Zm-1-4.41L21.32,228c-3.46.2-6.77.23-9.74.18,0,.52,0,1.05-.06,1.58,3.08.06,6.54,0,10.16-.18Zm-1-4.41-.36-1.58c-3,.17-5.89.22-8.54.19l-.08,1.57c2.77,0,5.81,0,9-.18Zm-1-4.41-.35-1.58c-2.54.14-5,.19-7.3.19,0,.52-.07,1-.1,1.58,2.43,0,5,0,7.75-.19Zm-1-4.41-.35-1.58q-3.12.17-6,.18l-.12,1.58c2.07,0,4.24-.06,6.49-.18Zm-1-4.41-.35-1.58c-1.6.09-3.17.13-4.68.16l-.14,1.58c1.66,0,3.39-.07,5.17-.16Zm-1-4.41-.34-1.58c-1.13.06-2.24.1-3.32.13L13,207.66c1.24,0,2.52-.07,3.82-.14Zm-.95-4.41-.33-1.58-1.91.08-.17,1.6,2.41-.1Zm-.92-4.41-.34-1.58-.45,0-.2,1.6,1,0Z"/><path class="cls-4" d="M54.63,254.55l-.14-.56-.24-1a119.79,119.79,0,0,1-21.92.77v0l.37,1.52v0a122.35,122.35,0,0,0,21.91-.78Z"/><path class="cls-4" d="M71.76,341.35a123.34,123.34,0,0,1-17.57.45l.38,1.58A126.82,126.82,0,0,0,72,342.94c-.08-.55-.15-1.08-.22-1.59Z"/><path class="cls-2" d="M5.19,499.25C8.79,524.1,31,576.37,38.66,594.42c-5.51-30.11-11.43-59.78-16.51-89.7Q15.64,466.35,9.79,428c-1.36,15.76-4.4,52.69-4.6,71.28Zm31.05-86.92C27.09,392,13.87,362.19,8.43,340.61c-2.12-15.94,1.6-36.05,3.23-52,2.65,16.34,7.54,43.72,16,82.4,2.46,11.31,5.41,25.5,8.63,41.28ZM11.36,239l24.72,45.5c-1-4.19-2-8.22-3-12-1.58-6.29-2.94-11.57-4-15.48h0c-4.71-17.94-10.5-46.25-14.24-65.29a375.36,375.36,0,0,0-3.47,43.91c0,1.15,0,2.29,0,3.42Zm2.33-87.87c-.17-10.13,1.62-21.68,2.92-28.63,3.6,10.13,10.71,31.36,21.58,69.09-6.44-6.76-19.19-29.49-24.5-40.46Zm2.94-57.27c5,13.88,23.65,41.43,30.18,50.84A742.65,742.65,0,0,0,19.92,73.06a65.39,65.39,0,0,0-3.31,20.07l0,.75ZM51.26,99.6C43.73,89.34,26.79,65.8,21.85,55.07c0-1.85-.07-4-.07-6.31a42.73,42.73,0,0,1,2.87-14.7C29.4,44.2,42.26,72.39,51.26,99.6Zm-3.49-59a116.89,116.89,0,0,0-19.28-22c0-.17.09-.34.13-.52a23.1,23.1,0,0,1,3.09-6.3A138.22,138.22,0,0,1,47.77,40.61Z"/><path class="cls-5" d="M12.64,668.48H16l-.07-.73c-.72-8.62-1.79-17.36-1-25.73a59.41,59.41,0,0,1,8.65-24.69l.08-.14.14-.19.31.19.23.16a48.48,48.48,0,0,1,16,23.73l.27,1,.26,1A169.48,169.48,0,0,1,45,668.08l.06.64,0,.59,0,.27h3.61l-.06-.73c-.72-8.61-2-18.46-1.21-26.83a59.49,59.49,0,0,1,8.73-24.83l.14-.19.31.19c5.21,3.72,10,10.13,13.42,16.71A49.46,49.46,0,0,1,73.44,643c.94,3.66,1.68,7.38,2.32,11.16.78,4.81,1.41,9,1.87,13.92l.05.59,0,.28h3.55l-4-29,.09.22h0c-.65-5-1.92-13.45-.23-19l.19.3.06.11c3.94,6.9,6.1,16,7,24.79h0v.08c.16,1.54.27,3.08.35,4.59v.69l0,1,0,1,0,.92c.18,4.42.27,9.32.48,13.74v.2l2.1-.68-.24-57.25H6.91c1.91,19.31,3.82,38.45,5.73,57.76Z"/><path class="cls-2" d="M55.39,618.5c.27-.45.55-.88.82-1.31l.07-.09c-2.15-1.78-6.82-5.21-12.38-6.38h-.46c7.21,2.4,10.66,6,12,7.78Z"/><path class="cls-2" d="M23,618.21l.56-.88.08-.14.14-.19.2.12c-2.45-2-7.35-5.36-13-6.24,6.8,2.14,10.39,5.39,12,7.33Z"/><path class="cls-2" d="M14.74,644.24c0-.59.08-1.18.13-1.77-1.9-.32-3.57-.67-4.91-1l.19,1.85c1.29.3,2.85.62,4.59.91Zm1-7.38c.12-.57.25-1.16.38-1.73-2.83-.42-5.24-1-7-1.38l.19,1.86c1.64.4,3.84.87,6.38,1.25Zm2-7.27c.2-.57.4-1.15.61-1.71A72.77,72.77,0,0,1,8.43,626l.18,1.86a73.65,73.65,0,0,0,9.11,1.71Zm3-7.24c.29-.58.59-1.16.9-1.72a69.38,69.38,0,0,1-13.94-2.36l.18,1.87a71.85,71.85,0,0,0,12.86,2.21Zm7.37-1.72c.54.54,1.07,1.1,1.59,1.67a78.41,78.41,0,0,0,12.55-2.1,88.4,88.4,0,0,0,10.91,2.48c.27-.56.55-1.12.84-1.66a85.55,85.55,0,0,1-11.61-2.61h-.24a76.56,76.56,0,0,1-14,2.22Zm5.76,7c.36.54.72,1.08,1.07,1.63a72.28,72.28,0,0,0,7.31-1.48c.65.2,3.92,1.17,8,2,.19-.56.39-1.13.59-1.68-4.74-.91-8.47-2.07-8.49-2.07h-.24a73,73,0,0,1-8.28,1.63Zm3.94,6.88c.26.55.51,1.09.75,1.65,1.94-.39,3.29-.73,3.69-.84.54.17,2.93.88,6.12,1.58.12-.58.25-1.15.39-1.72-3.69-.8-6.35-1.63-6.37-1.64h-.24s-1.7.46-4.34,1Zm2.67,7,.17.6.26,1,0,.12,1.31-.33c.49.15,2.44.73,5.11,1.35,0-.6.07-1.19.13-1.78-3-.7-5.08-1.35-5.1-1.35h-.24s-.62.17-1.67.41Zm21.09-19.9c.51.55,1,1.13,1.52,1.72A70.34,70.34,0,0,0,76.57,621,60.12,60.12,0,0,0,87.32,623v-1.79a57.83,57.83,0,0,1-10.62-2h-.26a66.67,66.67,0,0,1-14.91,2.34Zm5.48,7.1c.35.54.7,1.09,1,1.65a74.94,74.94,0,0,0,8.28-1.7c0-.61,0-1.22,0-1.82A71.44,71.44,0,0,1,67,628.64Zm3.83,6.92c.25.55.48,1.11.7,1.67,2.62-.51,4.52-1,5-1.17l.29.09c-.07-.61-.14-1.23-.2-1.87h-.22s-2.3.67-5.6,1.28Zm2.48,7,.12.43.32,1.28c1.45-.33,2.46-.61,2.81-.7s.63.19,1.25.35l-.25-1.88-.87-.25h-.26s-1.21.34-3.12.77Zm6.9-15c.24.65.48,1.3.7,2a57.09,57.09,0,0,0,6.44,1V628.8a57.13,57.13,0,0,1-7.13-1.16Zm2.42,8c.14.62.28,1.25.41,1.88,1.33.22,2.8.43,4.34.57v-1.79c-1.7-.15-3.31-.39-4.74-.66Zm1.41,7.78c.08.61.16,1.22.23,1.83,1,.15,2,.29,3.14.38v-1.78c-1.17-.11-2.3-.26-3.36-.43Zm3.25-26.92v-1.79a59.65,59.65,0,0,1-10.59-2h-.26A65,65,0,0,1,59.77,615c-8-.18-17.39-3.11-17.42-3.12h-.24a73.22,73.22,0,0,1-18.39,2.31A68.58,68.58,0,0,1,7,611.57l.19,1.87A69.75,69.75,0,0,0,23.7,616a75.27,75.27,0,0,0,18.51-2.3c1.11.34,9.95,2.95,17.54,3.12a65.22,65.22,0,0,0,16.82-2.34,59.72,59.72,0,0,0,10.73,2.06Z"/><path class="cls-1" d="M85.41,668.52,81,667.84l.07.08L77.37,640l-.14.07.09.23.14-.06h0l-.12-.9c-.68-5.11-1.7-12.84-.11-18l-.12,0,.18.3.06.1c5.67,9.92,7.05,23.12,7.37,30.1l0,1,0,1,0,.92c.08,2,.15,4.08.21,6.07s.12,3.83.2,5.75l0,.47,0,1.14,0,.48Zm.06.09,0-.47,0-1.14,0-.47c-.08-1.91-.14-3.86-.2-5.75s-.13-4-.21-6.07l0-.92,0-1,0-1c-.32-7-1.71-20.25-7.4-30.22l-.07-.11-.18-.3-.08-.12,0,.15c-1.6,5.25-.57,13,.11,18.15l.11.9v0h0l.14,0-.09-.22-.14.07L81,668V668H81l4.36.67.09,0Z"/><path class="cls-1" d="M77.55,667.84H48.61l.07.09-.35-3.86c-.69-7.47-1.41-15.19-.78-22a59.16,59.16,0,0,1,8.72-24.76l.14-.2-.09,0,.31.2c4.77,3.4,9.65,9.47,13.39,16.67a49.89,49.89,0,0,1,3.35,9.1c.85,3.33,1.61,7,2.32,11.15.74,4.55,1.34,9.18,1.79,13.75Zm.08.09c-.45-4.57-1.06-9.21-1.8-13.77-.71-4.18-1.47-7.83-2.32-11.17a50.44,50.44,0,0,0-3.37-9.15c-3.76-7.22-8.66-13.33-13.45-16.74l-.31-.2-.05,0,0,0-.14.2A59.39,59.39,0,0,0,47.41,642c-.64,6.88.08,14.61.78,22.09l.35,3.87v.09h29.1Z"/><path class="cls-1" d="M45,667.84l-29-.16.07.09L16,667c-.13-1.53-.27-3.06-.41-4.54-.64-7-1.25-13.59-.62-20.46a59.1,59.1,0,0,1,8.63-24.63l.09-.13.13-.2-.08,0,.31.2.22.16c7.15,5.45,13.13,14.3,16,23.67l.27,1,.26,1A166.47,166.47,0,0,1,44.91,668Zm.08.09A167.2,167.2,0,0,0,40.94,643l-.26-1-.27-1c-2.88-9.41-8.88-18.3-16.06-23.78l-.23-.16-.31-.2,0,0,0,0-.14.2-.09.14A59.44,59.44,0,0,0,14.83,642c-.63,6.9,0,13.52.63,20.52.13,1.48.27,3,.4,4.54l.06.73v.1H16l29,.16h.09Z"/><path class="cls-2" d="M47.39,653.21c3.52-1.21,14.27-4.1,28.15-.31l.08.47c-14-3.85-24.75-.9-28.2.29l0-.45Zm.43,6a49.42,49.42,0,0,1,28.71.11l.06.47a49.17,49.17,0,0,0-28.73-.14l0-.44Zm-33-6.43a50.14,50.14,0,0,1,28.28.6l.08.49a49.69,49.69,0,0,0-28.34-.64l0-.45Zm.42,6a50.3,50.3,0,0,1,28.85,1v.06l-.06.38a50,50,0,0,0-28.75-1l0-.45Z"/><path class="cls-2" d="M78.08,645.87,77.3,640l.09.22h0c-.65-5-1.92-13.45-.23-19l.19.3.06.11c3.94,6.9,6.1,16,7,24.79-2.12-.21-4.23-.39-6.33-.57Zm-4-.3c-9-.64-17.87-1-26.76-.89,0-.9.1-1.79.18-2.66a59.49,59.49,0,0,1,8.73-24.83l.14-.19.31.19c5.21,3.72,10,10.13,13.42,16.71A49.46,49.46,0,0,1,73.44,643c.22.85.42,1.69.62,2.55Zm-32.75-.78c-8.85.24-17.7.86-26.65,1.93,0-1.56.1-3.12.25-4.7a59.41,59.41,0,0,1,8.65-24.69l.08-.14.14-.19.31.19.23.16a48.48,48.48,0,0,1,16,23.73l.27,1,.26,1c.15.59.29,1.17.44,1.77Z"/><path class="cls-3" d="M77.48,639.2l-.13-1-.14-1.1-.15-1.16-.13-1.2-.12-1.24-.1-1.26-.09-1.27-.05-1.28,0-1.28v-1.25l.06-1.24.1-1.2.16-1.17.22-1.1.14-.54.35.62.35.66.34.67.34.68.31.7.32.71.3.71.29.73.28.72.27.75.27.75.25.76.25.76.23.78.23.77.22.79.21.79.2.8.19.8.18.81.17.81.17.81.16.81.15.82.14.83.13.82.13.82.11.83.12.82.1.83.09.82,0,.44H84l-.39,0-.4,0-.39,0-.4,0-.79-.08-.4,0-.39,0-.4,0-.4,0-.39,0-.39,0-.79-.07h-.22l-.5-3.79.09.22-.25-1.83-.13-1ZM70.7,645l-.84,0-.84-.05-.83,0-.84,0-.84,0-.84,0-.84,0-.84,0-.83,0-.84,0-.83,0-.84,0-.84,0-.83,0-.84,0-.83,0-.84,0h-.83l-.84,0H47.55V644l0-.34,0-.33,0-.33,0-.33,0-.33,0-.31.11-.84.13-.86.13-.85.14-.84.16-.84.17-.84.18-.83.19-.83.2-.83.21-.82.22-.82.23-.81.24-.8.25-.8.26-.79.27-.79.29-.78.29-.77.3-.78.31-.75.32-.75.32-.75.34-.73.35-.72.35-.72.37-.7.37-.7.38-.69.39-.67.4-.66.4-.66.41-.64,0,0,.15.1,1,.72,1,.78.94.84.92.89.91.94.9,1,.88,1,.86,1.07.84,1.08.81,1.13.79,1.15.77,1.17.74,1.19.71,1.21.69,1.22.65,1.22.26.54.25.54.24.54.24.54.23.55.22.55.21.56.22.55.2.57.2.57.19.57.19.58.18.58.17.6.17.6.17.61.14.56.09.38.08.32.08.31.07.32,0,.19-.51,0-.84-.06-.85-.06L70.7,645Zm-31.89-.48-.83,0-.83,0-.83,0-.83,0-.83,0-.83,0-.83,0-.83.05-.83,0-.84.05-.83.06-.83,0-.83.06-.84.06-.83.07-.83.06-.84.07-.83.07-.84.08-.83.07-.83.08-.84.08-.84.08-.83.09L18,646l-.84.09-.84.1-.84.09-.58.07v-.8l0-.59,0-.58,0-.58,0-.59,0-.58.05-.58.11-.84.12-.85.14-.84.14-.84.15-.83L16,637l.18-.82.19-.83.19-.82.21-.82.22-.81.23-.81.24-.8.25-.79.26-.79.27-.78.27-.79.29-.76.3-.77.31-.75.31-.74.33-.75.33-.72.34-.72.35-.72.36-.7.37-.69.38-.68.38-.68.4-.66.4-.65.41-.64.08-.13,0,0,.16.1.22.16.62.48.62.51.62.53.61.55.61.56.61.59.6.6.59.62.58.64.58.65.57.67.56.68.56.71.54.71.54.73.52.75.51.76.51.78.49.78.48.81.46.81.45.82.44.84.43.85.41.85.39.88.38.87.36.89.35.9.32.91.32.91.29.93.27.95.26,1,.11.43,0,.22,0,.22.11.44v0l-.52,0-.83,0-.83,0Z"/><path class="cls-2" d="M82.67,636.83l.12.61.17.81.16.81,0,.12v7.41h-.47v-9.76Zm-15.46-7.41v38.37h-.48v-39.1l.37.56.11.17Zm-8-9.75v48.12h-.47V619.24l.47.43Zm-8,7.89v40.23H50.8V628.86l.28-.76.19-.54Zm-31.86-1.78v42h-.47V627l.12-.32.31-.75,0-.11Zm8-5.42v47.43H26.9V619.91l.39.36.09.09Zm8,10.08v37.35h-.47V629.66l.18.28.29.5Z"/><path class="cls-2" d="M76.71,632.24v0l-.06-.86a40,40,0,0,1,4.17-1.27l.09.26.18.57a41.06,41.06,0,0,0-4.38,1.34Zm.23-9,.16-.8.05-.19.24-.09.2.36.22.42-.87.3ZM83,638.53l.11.53.06.33a38.73,38.73,0,0,0-5.48,1.44l-.09-.66,0-.22A41.1,41.1,0,0,1,83,638.53ZM22,620.41a36.72,36.72,0,0,1,5-.42l.29.28.61.59,0,0a36.2,36.2,0,0,0-6.45.49l.28-.53.25-.44Zm-4.24,9.82A35.35,35.35,0,0,1,35,629.81l.09.13.48.81.07.13a34.71,34.71,0,0,0-18.15.34l.22-.69.1-.3Zm-2.32,9.62c5.14-1.69,14.73-3.68,24.42.55l.26.81.08.28c-9.92-4.57-19.83-2.4-24.91-.67l.06-.44.09-.53Zm39.12-19.42a35.72,35.72,0,0,1,5-.43l.74.71.17.17a36.21,36.21,0,0,0-6.47.53l.36-.68.17-.3Zm-4.25,9.84a35.4,35.4,0,0,1,17.09-.52l.43.69.22.37a34.9,34.9,0,0,0-18.05.45l.25-.8.06-.19ZM48,639.9c5.07-1.7,14.67-3.74,24.39.42l.14.43.18.58,0,.08c-9.95-4.51-19.87-2.27-24.88-.54l.08-.5.07-.47Z"/><path class="cls-2" d="M59.09,644.81c-2.64,3.72-8.26,13-8.26,24.51v.25l-1.26,1.09-.88-1.81C48,661.14,47,652.43,47.3,644.68c3.93,0,7.85,0,11.79.13Zm-11.36-4.6-.12.8.12-.8Zm-.36,3.15c0,.22,0,.43,0,.65,0-.22,0-.43,0-.65Z"/><path class="cls-2" d="M62.58,644.93c2.34,1.43,10.39,6.87,12.72,24L77,670.08l.66-1.39-.05-.59c-.46-4.88-1.09-9.11-1.87-13.92-.49-2.9-1.05-5.78-1.7-8.61q-5.76-.41-11.48-.64Z"/><path class="cls-2" d="M25.36,645.65a47.32,47.32,0,0,0-7.56,22.66l-1.07,1.16L16,667.66c-.59-7-1.49-14.22-1.36-20.94,3.58-.43,7.14-.78,10.7-1.07Z"/><path class="cls-2" d="M31.55,645.21c3.38,2.75,9.81,9.91,11.77,24.36l1.19,1.12.6-1.38,0-.59-.06-.64a176.85,176.85,0,0,0-3.69-23.29q-4.89.13-9.76.42Z"/><path class="cls-2" d="M22.19,651.3l-.22.48a42.9,42.9,0,0,0-7.19,1.42l0-.45a44.82,44.82,0,0,1,7.43-1.45Zm-2.53,6.46-.14.47a42.61,42.61,0,0,0-4.33,1l0-.44a41.79,41.79,0,0,1,4.5-1Z"/><path class="cls-2" d="M37.32,651.94l.32.51a55.25,55.25,0,0,1,5.49,1.39l-.08-.49a54.23,54.23,0,0,0-5.73-1.41Zm3.36,6.86.18.5c1,.27,2.07.57,3.12.92l.06-.38v-.07c-1.14-.37-2.25-.69-3.35-1Z"/><path class="cls-2" d="M78.22,645.89a67.16,67.16,0,0,1,5.54,22.84l.93,1.06.71-1.16,0-.48,0-1.15,0-.46c-.15-3.95-.25-7.89-.41-11.83l0-.92,0-1,0-1c-.08-1.77-.21-3.56-.4-5.36-2.06-.21-4.13-.39-6.18-.55Z"/><polygon class="cls-2" points="6.99 610.5 87.41 610.5 87.41 611.23 6.99 611.23 6.99 610.5 6.99 610.5"/><path class="cls-1" d="M42.15,611.47a568,568,0,0,0,4.19,58.61l.78-.19a569.58,569.58,0,0,1-4.18-58.43Z"/><path class="cls-1" d="M71.48,611.21h0c0,.27,3.75,27,7.7,58.88l.78-.19C76,638.08,72.27,611,72.26,611Z"/></g></g></svg>