<svg xmlns="http://www.w3.org/2000/svg" xmlns:xlink="http://www.w3.org/1999/xlink" viewBox="0 0 115.29 652.4"><defs><style>.cls-1{fill:#d1d3d4;}.cls-1,.cls-2,.cls-3,.cls-4,.cls-6,.cls-7,.cls-9{fill-rule:evenodd;}.cls-3,.cls-8{fill:#fff;}.cls-4{fill:#6d6e71;}.cls-5{fill:#231f20;}.cls-6{fill:url(#White_Black_2);}.cls-7{fill:#939598;}.cls-9{fill:#808285;}</style><linearGradient id="White_Black_2" x1="123.69" y1="627" x2="19.21" y2="627" gradientUnits="userSpaceOnUse"><stop offset="0" stop-color="#fff"/><stop offset="1"/></linearGradient></defs><g id="Layer_2" data-name="Layer 2"><g id="Skyscrapers"><polygon class="cls-1" points="34.94 587.1 34.87 603.94 34.83 611.62 33.9 611.42 31.81 610.9 29.84 610.32 28.38 609.83 27.04 609.34 25.81 608.84 24.7 608.34 23.69 607.84 22.79 607.35 21.98 606.86 21.27 606.37 20.66 605.9 16.7 604.21 16.57 599.75 16.8 599.28 17.07 598.81 17.35 598.37 17.66 597.96 17.96 597.59 17.49 587.1 34.94 587.1 34.94 587.1"/><path class="cls-2" d="M44.31,0l60.75,24.45q8.1,288.87,10.23,577.75l-70.61,1.44L44.31,0ZM66.18,69.91,57.34,32.45,89.81,44.63,82.44,74.89l-16.26-5Z"/><path class="cls-3" d="M47.14,18.49l2.62,585.05h-.53L46.6,16.35l.54,2.14ZM54,46.37l2.49,557h-.53L53.41,44.12,54,46.37ZM95.07,273.64l1.47,328.94H96l-1.5-333.32c.19,1.45.37,2.91.55,4.37Zm7,63.16,1.19,265.64h-.53l-1.21-271.29q.27,2.82.55,5.64Zm5.11-234.17q.31,12.95.64,25.9l.17,38.85L107.29,134l-.14-31.39Zm2,322.23.79,177.44-.53,0-.83-186q.28,4.23.57,8.49ZM89.86,602.72h-.53l-1.72-383.4c.19,1.21.37,2.41.55,3.62l1.7,379.77Zm-6.68.13h-.53L80.74,176.72l.54,3.16,1.9,423Zm-6.69.14H76L73.89,139.07l.54,2.81L76.49,603Zm-6.68.14h-.53L67.05,105l.54,2.58,2.22,495.59Zm-6.69.13H62.6L60.22,73.51l.54,2.4,2.36,527.35Z"/><polygon class="cls-2" points="37.84 70.15 37.83 71.32 39.81 92.64 39.85 92.65 39.21 173.37 40.57 614.29 34.83 613.1 36.76 181.67 37.84 70.15 37.84 70.15"/><polygon class="cls-2" points="40.57 1.28 44.26 0.01 44.31 0.15 44.78 603.75 40.78 603.75 40.5 602 39.58 289.19 39.62 121.01 40.57 1.28 40.57 1.28"/><polygon class="cls-3" points="44.17 603.45 41.32 603.45 41.18 602.27 40.19 290.04 40.23 121.36 41.18 1.72 43.7 0.85 44.17 603.45 44.17 603.45"/><path class="cls-3" d="M44.31,6.16h0V5h0V6.16Zm.86,4.53h-.85V9.55h.57l.29,1.15Zm1.14,4.51-2,0V14.1l1.71,0,.28,1.14Zm1.14,4.53-3.13.06V18.64l2.84-.06.29,1.15Zm1.12,4.51-4.24.09V23.18l4-.08.28,1.14Zm1.12,4.53-5.36.1V27.72l5.08-.1.28,1.15Zm1.11,4.52-6.47.12V32.26l6.18-.12.29,1.15ZM61.34,78.5l-17,.33V77.68l16.71-.33.26,1.15Zm1,4.52-18,.35V82.22l17.72-.34L62.34,83Zm1,4.52-19,.37V86.76l18.71-.36.25,1.14Zm1,4.53-19.93.38V91.3l19.69-.38.24,1.15Zm1,4.52L44.38,97V95.84L65,95.44l.25,1.15Zm1,4.52-21.86.42v-1.15L66,100l.25,1.14Zm.94,4.52-22.8.44v-1.15L67,104.49l.24,1.14Zm.94,4.53-23.74.46v-1.15L67.9,109l.23,1.15Zm.93,4.52-24.66.48V114l24.43-.47.23,1.14ZM70,119.2l-25.58.5v-1.15l25.35-.49L70,119.2Zm.91,4.53-26.49.51v-1.15l26.26-.51.23,1.15Zm.9,4.52-27.38.53v-1.15l27.15-.52.23,1.14Zm.88,4.53-28.26.54v-1.15l28-.54.22,1.15Zm.88,4.52-29.13.56v-1.14l28.92-.56.22,1.14Zm.87,4.53-30,.58v-1.15l29.78-.58.22,1.15Zm.85,4.52-30.85.6V145.8l30.64-.59.21,1.14Zm.85,4.53-31.69.61v-1.15l31.47-.61.22,1.15ZM77,155.4,44.43,156v-1.15l32.31-.62L77,155.4Zm.82,4.53-33.35.64v-1.15l33.14-.64.21,1.15Zm.81,4.52-34.15.66V164l33.94-.65.21,1.14Zm.8,4.53-34.95.68v-1.15l34.75-.68.2,1.15Zm.79,4.53-35.74.69v-1.15L80,172.36l.19,1.15ZM81,178l-36.52.71v-1.15l36.32-.7L81,178Zm.77,4.53-37.29.72v-1.15l37.09-.72.2,1.15Zm.76,4.53-38,.73v-1.15l37.85-.73.19,1.15Zm.75,4.52-38.79.75v-1.15l38.6-.74.19,1.14Zm.74,4.53-39.53.76v-1.14L83.8,195l.19,1.15Zm.73,4.53-40.26.78V200.3l40.08-.78.18,1.15Zm.72,4.52-41,.8v-1.15l40.79-.79.18,1.14Zm.71,4.53-41.68.81v-1.15l41.5-.8.18,1.14Zm.7,4.53-42.37.82v-1.15l42.19-.81.18,1.14Zm.68,4.53-43.05.83v-1.15l42.88-.83.17,1.15Zm.68,4.53-43.73.84V223L88,222.16l.17,1.15Zm.67,4.53-44.39.86v-1.15l44.22-.86.17,1.15Zm.66,4.53-45.05.87v-1.15l44.88-.87.17,1.15Zm.65,4.52-45.7.89v-1.15L90,235.75l.17,1.14Zm.63,4.53-46.32.9v-1.15l46.16-.89.16,1.14Zm.63,4.53-46.95.91v-1.15l46.79-.9.16,1.14Zm.62,4.53-47.56.92v-1.15l47.41-.91.16,1.14Zm.6,4.53-48.16.93v-1.15l48-.92.15,1.14Zm.6,4.53-48.76.95v-1.15l48.61-.94.15,1.14Zm.59,4.53-49.34,1v-1.15l49.2-.95.14,1.14Zm.58,4.53-49.92,1v-1.15l49.77-1,.15,1.14Zm.57,4.53-50.49,1V273l50.35-1,.14,1.14Zm.56,4.53-51,1V277.5l50.9-1,.14,1.14Zm.55,4.54-51.59,1V282l51.45-1,.14,1.15Zm.54,4.53-52.13,1v-1.15l52-1,.13,1.15Zm.53,4.53-52.65,1v-1.15l52.52-1,.13,1.15Zm.52,4.53-53.17,1v-1.15l53-1,.13,1.15Zm.52,4.53-53.69,1v-1.15l53.56-1,.13,1.15Zm.5,4.53-54.18,1v-1.15l54.06-1,.12,1.14Zm.5,4.53-54.68,1.06v-1.15l54.55-1.05.13,1.14Zm.49,4.54L44.56,315v-1.15l55-1.06.13,1.15Zm.47,4.53-55.63,1.07v-1.14l55.51-1.08.12,1.15Zm.47,4.53-56.1,1.09v-1.15l56-1.09.12,1.15Zm.46,4.53-56.55,1.1v-1.15L101,326.37l.11,1.14Zm.45,4.54-57,1.1V332l56.89-1.1.11,1.15Zm.45,4.53-57.45,1.11v-1.15l57.34-1.11.11,1.15Zm.43,4.53-57.87,1.12v-1.15L102.34,340l.11,1.14Zm.43,4.54-58.3,1.12v-1.15l58.19-1.12.11,1.15Zm.42,4.53-58.72,1.14v-1.15L103.19,349l.11,1.15Zm.41,4.53-59.12,1.15v-1.15l59-1.14.1,1.14Zm.4,4.54L44.59,360.4v-1.15L104,358.1l.1,1.15Zm.4,4.53L44.6,364.94v-1.15l59.82-1.16.1,1.15Zm.39,4.53-60.3,1.17v-1.15l60.2-1.16.1,1.14Zm.38,4.54L44.6,374v-1.14l60.58-1.18.1,1.15Zm.37,4.53-61,1.18v-1.15l60.94-1.17.1,1.14Zm.36,4.54-61.4,1.19V382l61.31-1.19.09,1.15Zm.36,4.53-61.76,1.2V386.5l61.67-1.2.09,1.15Zm.35,4.54-62.1,1.2V391l62-1.2.09,1.15Zm.34,4.53-62.44,1.21v-1.15L107,394.37l.08,1.15Zm.34,4.54-62.78,1.21v-1.15l62.69-1.21.09,1.15Zm.33,4.53-63.1,1.22v-1.15l63-1.22.08,1.15Zm.32,4.54-63.42,1.23v-1.15L108,408l.08,1.15Zm.32,4.54L44.63,414.9v-1.15l63.66-1.23.08,1.15Zm.31,4.53-64,1.24v-1.15l64-1.24.08,1.15Zm.3,4.53L44.64,424v-1.15l64.26-1.24.08,1.14Zm.29,4.54-64.62,1.25v-1.15l64.55-1.25.07,1.15Zm.29,4.54-64.91,1.25v-1.15l64.84-1.25.07,1.15Zm.28,4.53L44.65,437.6v-1.15l65.12-1.25.07,1.14Zm.28,4.54-65.46,1.27V441l65.39-1.27.07,1.15Zm.24,4.53-65.7,1.28v-1.15l65.63-1.27.07,1.14Zm.21,4.54-65.91,1.28v-1.15l65.84-1.28.07,1.15Zm3.33,4.36-69.23,1.46v-1.15l69.16-1.46.07,1.15Zm0,3.33,0,1.16-69.28,1.51v-1.15l69.26-1.52Zm0,4.72v1.15l-69.27,1.34V463.7l69.26-1.34Zm.06,4.54v1.15l-69.33,1.34v-1.15L114,466.9Zm0,4.54v1.15l-69.38,1.34v-1.14l69.37-1.35Zm0,4.55,0,1.15-69.44,1.34v-1.15L114.1,476Zm.06,4.53v1.16L44.69,483v-1.15l69.47-1.35Zm0,4.55v1.15l-69.53,1.34v-1.15l69.52-1.34Zm.05,4.54v1.15L44.7,492.1V491l69.56-1.34Zm0,4.54,0,1.15L44.7,496.64v-1.15l69.61-1.34Zm0,4.54v1.15L44.7,501.18V500l69.66-1.35Zm0,4.54v1.15l-69.71,1.35v-1.15l69.7-1.35Zm0,4.54v1.15l-69.76,1.35v-1.15l69.75-1.35Zm.05,4.54v1.15l-69.81,1.35v-1.15l69.8-1.35Zm0,4.54,0,1.15-69.85,1.35V518.2l69.83-1.35Zm0,4.54v1.15l-69.89,1.35v-1.15l69.88-1.35Zm.05,4.54v1.15l-69.93,1.35v-1.14l69.93-1.36Zm0,4.54v1.15l-70,1.36v-1.15l70-1.36Zm0,4.54v1.15l-70,1.36v-1.15l70-1.36Zm0,4.54v1.15l-70.05,1.36v-1.15l70-1.36Zm0,4.55v1.14L44.74,546.6v-1.15l70.08-1.35Zm0,4.54v1.15l-70.13,1.35V550l70.12-1.35Zm0,4.54v1.14l-70.16,1.36v-1.15l70.15-1.35Zm0,4.54v1.15l-70.2,1.36v-1.15l70.19-1.36Zm0,4.54v1.15l-70.24,1.36v-1.15L115,562.26Zm0,4.54V568l-70.27,1.36v-1.15L115,566.8Zm0,4.54v1.15l-70.31,1.36V572.7l70.3-1.36Zm0,4.54V577l-70.33,1.36v-1.15l70.33-1.36Zm0,4.54v1.15l-70.37,1.36v-1.15l70.36-1.36Zm0,4.54v1.15l-70.4,1.36v-1.14L115.16,585Zm0,4.54v1.15L44.78,592v-1.14l70.42-1.37Zm0,4.54v1.15l-70.46,1.37v-1.15L115.23,594ZM44.37,74.28V73.13l15.71-.3L60.33,74l-16,.3Zm0-4.54V68.59l14.69-.28.26,1.14-15,.29Zm0-4.54V64.05L58,63.79l.26,1.14-13.92.27Zm0-4.54V59.51L57,59.27l.27,1.14-12.89.25Zm0-4.54V55l11.57-.22.27,1.14-11.84.23Zm0-4.54V50.43l10.51-.21.27,1.15-10.78.21Zm0-4.54V45.89l9.45-.19.27,1.15L44.34,47Zm0-4.55V41.34l8.37-.16L53,42.33l-8.64.16Zm0-4.54V36.8l7.29-.14.27,1.15L44.33,38Z"/><polygon class="cls-4" points="94.54 615.18 94.74 639.1 114.33 638.59 114.33 601.99 45.02 603.41 45.01 601.39 44.54 601.39 44.54 613.52 45.84 613.66 48.45 613.9 51.11 614.1 53.79 614.26 56.49 614.39 59.2 614.48 61.89 614.55 64.56 614.59 67.2 614.6 69.79 614.59 72.33 614.57 74.78 614.52 77.16 614.47 79.44 614.4 81.61 614.32 83.66 614.23 85.57 614.14 87.34 614.05 88.94 613.97 90.38 613.88 91.63 613.8 92.68 613.73 93.53 613.67 94.15 613.62 94.53 613.59 94.67 613.58 94.8 615.16 94.54 615.18 94.54 615.18"/><polygon class="cls-1" points="100.74 638.95 101.11 638.94 101.11 603.53 100.74 603.53 100.74 638.95 100.74 638.95"/><polygon class="cls-1" points="98.75 639 99.12 638.99 99.12 603.53 98.75 603.53 98.75 639 98.75 639"/><polygon class="cls-1" points="96.75 639.05 97.13 639.04 97.13 603.53 96.75 603.53 96.75 639.05 96.75 639.05"/><polygon class="cls-1" points="94.76 639.1 95.14 639.09 95.14 603.53 94.76 603.53 94.76 615.17 94.8 615.61 94.76 615.61 94.76 639.1 94.76 639.1"/><polygon class="cls-1" points="92.77 614.19 93.15 614.17 93.15 603.53 92.77 603.53 92.77 614.19 92.77 614.19"/><polygon class="cls-1" points="90.78 614.32 91.16 614.3 91.16 603.53 90.78 603.53 90.78 614.32 90.78 614.32"/><polygon class="cls-1" points="88.79 614.44 88.94 614.43 89.16 614.42 89.16 603.53 88.79 603.53 88.79 614.44 88.79 614.44"/><polygon class="cls-1" points="86.8 614.54 87.17 614.53 87.17 603.53 86.8 603.53 86.8 614.54 86.8 614.54"/><polygon class="cls-1" points="84.81 614.64 85.18 614.63 85.18 603.53 84.81 603.53 84.81 614.64 84.81 614.64"/><polygon class="cls-1" points="82.81 614.73 83.19 614.71 83.19 603.53 82.81 603.53 82.81 614.73 82.81 614.73"/><polygon class="cls-1" points="80.82 614.81 81.2 614.79 81.2 603.53 80.82 603.53 80.82 614.81 80.82 614.81"/><polygon class="cls-1" points="78.83 614.87 79.2 614.86 79.2 603.53 78.83 603.53 78.83 614.87 78.83 614.87"/><polygon class="cls-1" points="76.84 614.93 77.16 614.92 77.21 614.92 77.21 603.53 76.84 603.53 76.84 614.93 76.84 614.93"/><polygon class="cls-1" points="74.85 614.98 75.22 614.97 75.22 603.53 74.85 603.53 74.85 614.98 74.85 614.98"/><polygon class="cls-1" points="72.85 615.01 73.23 615.01 73.23 603.53 72.85 603.53 72.85 615.01 72.85 615.01"/><polygon class="cls-1" points="71.24 603.54 70.86 603.55 70.86 615.04 71.24 615.03 71.24 603.54 71.24 603.54"/><polygon class="cls-1" points="69.25 603.58 68.87 603.59 68.87 615.05 69.25 615.05 69.25 603.58 69.25 603.58"/><polygon class="cls-1" points="67.25 603.62 66.88 603.63 66.88 615.05 67.2 615.05 67.25 615.05 67.25 603.62 67.25 603.62"/><polygon class="cls-1" points="65.26 603.66 64.89 603.67 64.89 615.04 65.26 615.04 65.26 603.66 65.26 603.66"/><polygon class="cls-1" points="63.27 603.7 62.9 603.71 62.9 615.02 63.27 615.02 63.27 603.7 63.27 603.7"/><polygon class="cls-1" points="61.28 603.74 60.9 603.75 60.9 614.98 61.28 614.99 61.28 603.74 61.28 603.74"/><polygon class="cls-1" points="59.29 603.78 58.91 603.79 58.91 614.93 59.2 614.94 59.29 614.94 59.29 603.78 59.29 603.78"/><polygon class="cls-1" points="57.3 603.82 56.92 603.83 56.92 614.86 57.3 614.88 57.3 603.82 57.3 603.82"/><polygon class="cls-1" points="55.3 603.86 54.93 603.87 54.93 614.78 55.3 614.79 55.3 603.86 55.3 603.86"/><polygon class="cls-1" points="53.31 603.9 52.94 603.91 52.94 614.67 53.31 614.69 53.31 603.9 53.31 603.9"/><polygon class="cls-1" points="51.32 603.94 50.95 603.95 50.95 614.55 51.11 614.57 51.32 614.58 51.32 603.94 51.32 603.94"/><polygon class="cls-1" points="49.33 603.98 48.95 603.99 48.95 614.41 49.33 614.43 49.33 603.98 49.33 603.98"/><polygon class="cls-1" points="47.34 604.93 46.96 604.94 46.96 614.24 47.34 614.27 47.34 604.93 47.34 604.93"/><polygon class="cls-1" points="45.35 605.03 45.02 605.03 44.97 614.04 45.35 614.09 45.35 605.03 45.35 605.03"/><path class="cls-1" d="M95.46,615.49l18.64-.55v-.52L95.46,615v.54Zm0,2.17,18.64-.54v-.53l-18.64.54v.53Zm0,2.17,18.64-.54v-.53l-18.64.55v.52Zm0,2.18,18.64-.54v-.53l-18.64.54V622Zm0,2.17,18.64-.54v-.53l-18.64.54v.53Zm0,2.18,18.64-.54v-.53l-18.64.54v.53Zm0,2.17L114.1,628v-.53L95.46,628v.53Zm0,2.17,18.64-.54v-.53l-18.64.55v.52Zm0,2.18,18.64-.54v-.53l-18.64.54v.53Zm0,2.17,18.64-.54V634l-18.64.55v.52Zm0,2.18,18.64-.55v-.52l-18.64.54v.53ZM114.1,612.9v-.53L53.88,614l2.62.12,2.7.09,2.69.07h.58l30.35-.84.69,0,.62-.05.39,0,.37,0v.09l19.21-.53Zm0-2.2v-.52l-69.34,1.93v.53l69.34-1.94Zm0-2.19V608l-69.34,1.94v.53l69.34-2Zm0-2.08v-.53l-69.34,1.88v.53l69.34-1.88Z"/><polygon class="cls-2" points="114.1 604.33 114.1 602.22 44.78 603.64 44.78 602.89 44.77 602.89 44.77 605.9 114.1 604.33 114.1 604.33"/><polygon class="cls-3" points="45.07 605.59 113.79 604.03 113.79 602.53 45.07 603.94 45.07 605.59 45.07 605.59"/><path class="cls-2" d="M40.77,603.15l4,.1V613.5c-1.41-.14-2.8-.29-4.15-.47L40.54,602l.23,1.2Z"/><polygon class="cls-3" points="43.74 613.1 43.48 613.08 43.22 613.06 42.96 613.03 42.7 613.01 42.18 612.96 41.92 612.93 41.67 612.91 41.41 612.88 41.16 612.86 40.91 612.84 40.91 603.86 44.46 603.93 44.46 613.16 44.27 613.15 44 613.13 43.74 613.1 43.74 613.1"/><path class="cls-5" d="M94.51,615.4l.26,31.17.24-.27-6,.47.29.26.12-22.64v-.26H19.2l.26.25L18.66,607l-.45.21.24.22.74.6.84.6.94.59,1.05.6,1.16.59,1.29.58,1.41.58,1.53.57,1.68.56,2,.6,2.15.54,2.27.49,2.37.43,2.46.38,2.53.33,2.6.28,2.65.25,2.69.2,2.72.16,2.73.13,2.73.1,2.73.07,2.7,0,2.67,0h2.61l2.56,0,2.48,0,2.4-.06c7-.21,12.49-.48,17.62-.88Zm.24-.27c-5.13.4-10.55.67-17.59.89l-2.4.05-2.48,0-2.55,0H64.45l-2.69,0L59,616l-2.73-.1-2.72-.13-2.71-.16-2.68-.2-2.65-.24L43,614.9l-2.52-.33L38,614.2l-2.36-.43-2.25-.48-2.13-.54-2-.59-1.66-.56L26.07,611l-1.39-.57-1.27-.57-1.14-.58-1-.58-.92-.58-.81-.58L18.8,607l-.23-.21-.47-.44,0,.65.81,17.42v.25H89.12l-.27-.27L88.73,647v.28l.28,0,6-.46.24,0v-.25L95,615.39v-.28Z"/><path class="cls-6" d="M94.77,615.4,95,646.56,89,647l.13-22.64H19.2L18.39,607l.24.22.72.59.83.59.93.59,1,.59,1.15.58,1.28.58,1.4.57,1.53.57,1.66.56,2,.6,2.15.53,2.25.49,2.37.43,2.45.37,2.53.33,2.59.29,2.64.24,2.69.2,2.72.17,2.72.13,2.73.1,2.73.06,2.69,0,2.67,0h2.61l2.56,0,2.48,0,2.39-.05c5.88-.18,11.75-.43,17.61-.88Z"/><polygon class="cls-3" points="92.28 615.58 92.28 646.74 91.75 646.82 91.75 615.61 92.28 615.58 92.28 615.58"/><polygon class="cls-3" points="88.09 615.83 88.09 624.39 87.56 624.39 87.56 615.86 88.09 615.83 88.09 615.83"/><polygon class="cls-3" points="83.9 616.04 83.9 624.39 83.37 624.39 83.37 616.06 83.71 616.05 83.9 616.04 83.9 616.04"/><polygon class="cls-3" points="79.71 616.2 79.71 624.39 79.18 624.39 79.18 616.22 79.46 616.21 79.71 616.2 79.71 616.2"/><polygon class="cls-3" points="75.52 616.32 75.52 624.39 74.99 624.39 74.99 616.33 75.52 616.32 75.52 616.32"/><polygon class="cls-3" points="71.33 616.39 71.33 624.39 70.8 624.39 70.8 616.39 71.33 616.39 71.33 616.39"/><polygon class="cls-3" points="67.14 616.41 67.14 624.39 66.6 624.39 66.6 616.41 67.12 616.41 67.14 616.41 67.14 616.41"/><polygon class="cls-3" points="62.94 616.37 62.94 624.39 62.41 624.39 62.41 616.36 62.94 616.37 62.94 616.37"/><polygon class="cls-3" points="58.75 616.28 58.75 624.39 58.22 624.39 58.22 616.26 58.75 616.28 58.75 616.28"/><polygon class="cls-3" points="54.56 616.11 54.56 624.39 54.03 624.39 54.03 616.08 54.56 616.11 54.56 616.11"/><polygon class="cls-3" points="50.37 615.86 50.37 624.39 49.84 624.39 49.84 615.82 50.37 615.86 50.37 615.86"/><polygon class="cls-3" points="46.18 615.51 46.18 624.39 45.65 624.39 45.65 615.46 46.18 615.51 46.18 615.51"/><polygon class="cls-3" points="41.99 615.04 41.99 624.39 41.46 624.39 41.46 614.97 41.99 615.04 41.99 615.04"/><polygon class="cls-3" points="37.8 614.43 37.8 624.39 37.27 624.39 37.27 614.33 37.8 614.43 37.8 614.43"/><polygon class="cls-3" points="33.6 613.61 33.6 624.39 33.08 624.39 33.08 613.48 33.34 613.54 33.6 613.61 33.6 613.61"/><path class="cls-3" d="M94.8,618.87c-13,1.09-58.18,3.91-76.21-7.62l0-.9c17.53,11.76,63.28,8.87,76.24,7.78v.74Z"/><path class="cls-3" d="M94.83,622.43c-12.9,1.08-57.91,3.91-76.07-7.51l0-.9c17.67,11.64,63.22,8.75,76.1,7.67v.74Z"/><path class="cls-3" d="M94.86,626c-1.51.12-3.45.27-5.74.42v-.73c2.29-.16,4.24-.31,5.73-.43V626Zm-59.57-1.6c-6.4-1.3-12.1-3.16-16.36-5.8l0-.9c5.05,3.27,12.33,5.38,20.45,6.7Z"/><path class="cls-3" d="M94.89,629.55c-1.51.12-3.47.28-5.77.43v-.74c2.3-.15,4.26-.31,5.76-.43v.74ZM23.3,624.39a33.61,33.61,0,0,1-4.2-2.12l0-.9a34.5,34.5,0,0,0,6.18,3Z"/><path class="cls-3" d="M94.92,633.11c-1.51.13-3.48.28-5.8.43v-.74c2.32-.15,4.29-.31,5.79-.43v.74Z"/><path class="cls-3" d="M95,636.67c-1.52.13-3.5.28-5.83.43v-.74c2.34-.15,4.31-.31,5.82-.43v.74Z"/><path class="cls-3" d="M95,640.23c-1.52.13-3.51.28-5.86.43v-.74c2.35-.15,4.34-.3,5.85-.43v.74Z"/><path class="cls-3" d="M95,643.79c-1.53.13-3.53.28-5.89.44v-.74c2.37-.16,4.36-.31,5.88-.44v.74Z"/><polygon class="cls-2" points="0.1 630.59 0 646.89 87.15 652.4 89.08 647.4 89.11 624.39 86.95 633.39 0.1 630.59 0.1 630.59"/><path class="cls-3" d="M1.16,647l.43,0-.3-16.36-.42,0L1.16,647Zm5.37.34.42,0L6.66,630.8H6.23l.3,16.51Zm5.37.34.42,0L12,631H11.6l.3,16.68Zm5.36.34.43,0-.31-16.86-.42,0,.3,16.85Zm5.37.34.42,0-.3-17h-.43l.31,17Zm5.37.34.42,0-.31-17.2h-.43L28,648.66Zm5.36.34.42,0-.31-17.36-.42,0L33.36,649Zm5.37.34.42,0-.32-17.53h-.42l.32,17.51Zm5.36.34.43,0L44.2,632h-.43l.32,17.68Zm5.37.34.42,0-.32-17.86-.42,0L49.46,650Zm5.36.34.43,0-.33-18H54.5l.32,18Zm5.37.34.42,0-.33-18.19h-.42l.33,18.18Zm5.37.34.42,0-.33-18.35-.42,0L65.56,651Zm5.36.34.42,0L71,632.88h-.42l.33,18.51Zm5.37.34.42,0-.34-18.69H76l.34,18.68Zm5.36.34.43,0-.34-18.86h-.43l.34,18.85Zm5.37.33h.13l.28-.73-.34-18.84-.14.56h-.27l.34,19Z"/><path class="cls-3" d="M0,641v.36l41.58,2.31,45.53,2.52v-.43l-45.51-2.49L0,641Z"/><path class="cls-3" d="M.05,639.11v.36l41.57,2.15L87.15,644v-.43l-45.51-2.32L.05,639.11Z"/><path class="cls-3" d="M.06,637.2v.37l41.56,2,45.53,2.18v-.43l-45.51-2.15q-21.9-1-41.58-2Z"/><path class="cls-3" d="M.08,635.3v.36l41.55,1.84,45.53,2v-.43l-45.51-2L.08,635.3Z"/><path class="cls-3" d="M.09,633.39v.37l41.53,1.67,45.53,1.84v-.43L41.64,635,.09,633.39Z"/><path class="cls-3" d="M.1,631.49v.36l41.52,1.52L87.15,635v-.43L41.64,633,.1,631.49Z"/><polygon class="cls-3" points="87.15 632.59 87.1 632.79 87.15 632.8 87.15 632.59 87.15 632.59"/><polygon class="cls-2" points="18.45 606.62 17.77 605.91 17.24 605.24 16.83 604.57 16.52 603.92 16.31 603.27 16.19 602.65 16.15 602.04 16.18 601.45 16.28 600.88 16.43 600.33 16.63 599.81 16.86 599.32 17.13 598.85 17.42 598.41 17.72 598.01 18.04 597.62 17.64 589.57 35.16 588.47 35.24 580.41 33.97 580.49 33.02 580.56 32.06 580.62 31.12 580.69 30.17 580.75 29.23 580.82 28.28 580.89 27.34 580.96 26.4 581.03 25.46 581.1 24.52 581.17 23.57 581.24 22.64 581.31 21.7 581.38 20.76 581.45 19.82 581.52 18.88 581.59 17.94 581.66 16.08 581.79 15.12 581.86 14.18 581.92 13.24 581.99 12.3 582.06 11.36 582.12 10.42 582.18 9.48 582.24 8.53 582.3 7.59 582.36 6.64 582.42 5.7 582.47 4.49 582.54 1.01 623.35 0.16 630.59 87.12 633.39 89.11 624.39 19.22 623.13 18.45 606.62 18.45 606.62"/><path class="cls-7" d="M88.73,624.69l-69.8-1.26-.78-16.68-.61-.63-.55-.71-.43-.69-.32-.69-.23-.68-.12-.66,0-.65,0-.62.1-.61.16-.57.21-.55.24-.51.28-.49.3-.45.3-.42.26-.3-.41-8.24,17.53-1.09.09-7.46c-10.15.68-20.06,1.54-30.17,2.1L1.31,623.38.5,630.29l86.38,2.79,1.85-8.39Z"/><polygon class="cls-2" points="20.3 597.8 19.94 598.14 19.77 598.32 19.58 598.53 19.38 598.76 19.19 599 19 599.27 18.82 599.56 18.66 599.87 18.51 600.19 18.38 600.52 18.27 600.88 18.2 601.24 18.16 601.62 18.15 602.01 18.19 602.4 18.27 602.82 18.41 603.24 18.6 603.68 18.85 604.12 19.17 604.59 19.55 605.05 20.02 605.53 20.56 606.01 21.18 606.49 21.9 606.99 22.71 607.48 23.62 607.98 24.63 608.48 25.75 608.98 26.98 609.48 28.33 609.97 29.8 610.47 31.77 611.05 33.87 611.57 36.08 612.04 38.4 612.46 40.81 612.83 43.3 613.16 45.86 613.44 48.47 613.67 51.12 613.87 53.8 614.03 56.5 614.16 59.2 614.25 61.89 614.32 64.56 614.36 67.2 614.37 69.79 614.36 72.32 614.34 74.78 614.29 77.16 614.24 79.43 614.17 81.6 614.09 83.64 614 85.56 613.91 87.32 613.83 88.93 613.74 90.36 613.65 91.61 613.57 92.67 613.5 93.51 613.44 94.13 613.39 94.52 613.36 94.89 613.34 95.04 615.37 94.67 615.4 94.28 615.43 93.66 615.48 92.81 615.54 91.75 615.61 90.49 615.69 89.04 615.78 87.42 615.87 85.64 615.96 83.71 616.05 81.65 616.13 79.46 616.21 77.16 616.28 74.77 616.34 72.29 616.38 69.73 616.4 67.12 616.41 64.45 616.39 61.76 616.35 59.03 616.28 56.3 616.19 53.58 616.06 50.86 615.89 48.17 615.69 45.53 615.45 42.94 615.16 40.41 614.83 37.96 614.46 35.59 614.03 33.34 613.54 31.19 613.01 29.17 612.41 27.51 611.85 25.98 611.28 24.58 610.71 23.3 610.13 22.15 609.55 21.11 608.96 20.18 608.37 19.35 607.78 18.63 607.19 18 606.61 17.46 606.02 17.01 605.44 16.64 604.86 16.34 604.29 16.12 603.72 15.97 603.16 15.88 602.61 15.85 602.08 15.87 601.56 15.94 601.05 16.04 600.56 16.19 600.09 16.37 599.64 16.57 599.21 16.8 598.81 17.04 598.42 17.3 598.06 17.55 597.72 17.81 597.41 18.07 597.13 18.31 596.88 18.68 596.51 20.3 597.8 20.3 597.8"/><path class="cls-8" d="M20,597.82c-1.72,1.6-6.6,7.6,9.78,12.87,20.37,6.55,64.81,2.9,64.94,2.89l.13,1.58c-.13,0-44.87,3.68-65.56-3C10.81,606.27,16.39,599,18.7,596.82l1.25,1Z"/><polygon class="cls-9" points="77.05 607.24 79 607.24 79 609.11 77.05 609.11 77.05 607.24 77.05 607.24"/><polygon class="cls-9" points="97.01 634.86 98.97 634.86 98.97 636.73 97.01 636.73 97.01 634.86 97.01 634.86"/><polygon class="cls-1" points="90.92 609.04 93 609.04 93 611.02 90.92 611.02 90.92 609.04 90.92 609.04"/><polygon class="cls-1" points="97.07 615.19 99.14 615.19 99.14 617.17 97.07 617.17 97.07 615.19 97.07 615.19"/><polygon class="cls-1" points="71.42 609.55 73.49 609.55 73.49 611.52 71.42 611.52 71.42 609.55 71.42 609.55"/><polygon class="cls-1" points="53.14 610.11 55.09 610.11 55.09 611.98 53.14 611.98 53.14 610.11 53.14 610.11"/><polygon class="cls-1" points="59.27 607.74 61.22 607.74 61.22 609.6 59.27 609.6 59.27 607.74 59.27 607.74"/><polygon class="cls-1" points="65.09 611.9 67.05 611.9 67.05 613.76 65.09 613.76 65.09 611.9 65.09 611.9"/><polygon class="cls-1" points="97.01 621.89 98.97 621.89 98.97 623.76 97.01 623.76 97.01 621.89 97.01 621.89"/><polygon class="cls-1" points="100.87 630.41 102.82 630.41 102.82 632.27 100.87 632.27 100.87 630.41 100.87 630.41"/></g></g></svg>