<svg xmlns="http://www.w3.org/2000/svg" viewBox="0 0 48.16 375.93"><defs><style>.cls-1,.cls-2,.cls-3{fill-rule:evenodd;}.cls-2,.cls-4{fill:#fff;}.cls-3{fill:#808285;}</style></defs><g id="Layer_2" data-name="Layer 2"><g id="Skyscrapers"><polygon class="cls-1" points="0.23 10.23 0.29 10.6 0.33 10.87 0.38 11.16 0.42 11.48 0.47 11.81 0.52 12.15 0.57 12.51 0.62 12.88 0.68 13.27 0.73 13.66 0.78 14.07 0.83 14.47 0.88 14.89 0.92 15.31 0.96 15.73 1 16.15 1.04 16.58 1.08 17.03 1.08 17.1 1.09 17.15 1.09 17.2 1.09 17.25 1.1 17.36 1.1 17.41 1.11 17.46 1.11 17.56 1.12 17.61 1.12 17.66 1.13 17.77 1.13 17.82 1.13 17.87 1.14 17.97 1.14 18.02 1.14 18.07 1.15 18.12 1.15 18.17 1.15 18.22 1.15 18.27 1.16 18.37 1.16 18.42 1.16 18.47 1.16 18.56 1.16 18.61 1.17 18.66 1.17 18.71 1.17 18.76 1.17 18.81 1.17 18.85 1.17 18.9 1.17 18.95 1.17 19.04 1.17 19.09 1.18 19.14 1.18 19.18 1.18 19.23 1.18 19.36 1.18 19.96 1.18 20.45 1.17 21.05 1.17 21.05 1.17 21.77 1.17 22.63 1.17 23.53 1.17 24.57 1.17 24.57 1.17 25.7 1.16 26.94 1.16 26.94 1.16 28.26 1.16 29.68 1.16 29.68 1.15 31.17 1.15 32.75 1.15 32.75 1.15 34.41 1.14 36.13 1.14 36.13 1.14 37.93 1.13 39.79 1.13 39.79 1.13 41.71 1.13 43.69 1.13 43.7 1.12 47.78 1.12 47.8 1.11 49.92 1.11 52.09 1.11 52.09 1.1 54.3 1.1 56.54 1.1 56.56 1.09 61.1 1.09 61.12 1.08 65.75 1.08 65.77 1.07 68.12 1.07 70.49 1.07 70.49 1.06 75.22 1.06 75.24 1.05 77.61 1.04 79.99 1.04 80 1.03 84.69 1.03 84.7 1.03 87.04 1.02 89.35 1.02 89.37 1.01 93.89 1.01 93.94 1 98.33 1 98.35 1 100.51 0.99 102.63 0.99 102.63 0.99 104.7 0.98 106.72 0.98 106.72 0.98 108.69 0.98 110.6 0.98 110.6 0.97 112.45 0.97 114.23 0.97 114.24 0.96 117.58 0.96 117.59 0.96 119.15 0.95 120.63 0.95 120.64 0.95 123.33 0.95 123.35 0.94 125.67 0.94 125.68 0.94 128.83 2.37 128.85 2.37 128.85 2.52 128.85 3.58 128.87 3.58 128.33 3.58 127.81 3.57 127.11 3.57 126.23 3.56 125.17 3.56 123.95 3.55 122.58 3.54 121.06 3.54 119.4 3.53 117.61 3.53 115.7 3.52 113.68 3.52 111.56 3.52 109.34 3.52 107.04 3.52 104.66 3.52 102.22 3.52 99.71 3.53 97.16 3.54 94.56 3.55 91.93 3.56 89.28 3.58 86.61 3.6 83.94 3.63 81.26 3.65 78.6 3.69 75.95 3.72 73.34 3.76 70.76 3.8 68.23 3.85 65.75 3.91 63.99 4.01 62.27 4.14 60.61 4.32 59 4.53 57.44 4.77 55.92 5.04 54.45 5.34 53.03 5.67 51.66 6.02 50.33 6.4 49.05 6.8 47.81 7.21 46.62 7.64 45.48 8.09 44.38 8.55 43.32 9.02 42.31 9.5 41.34 9.98 40.41 10.48 39.52 10.97 38.68 11.46 37.87 11.96 37.11 12.45 36.39 12.94 35.71 13.41 35.06 13.88 34.46 14.34 33.89 14.79 33.37 15.21 32.88 15.63 32.42 16.02 32.01 16.23 31.8 16.44 31.59 16.65 31.38 16.86 31.18 17.06 30.98 17.25 30.81 17.43 30.64 17.56 30.52 22.62 29.86 22.61 26.66 21.73 25.56 20.91 24.58 20.09 23.63 19.28 22.73 18.48 21.86 17.68 21.02 16.88 20.23 16.09 19.46 15.31 18.74 14.54 18.04 13.79 17.38 13.04 16.75 12.3 16.15 11.58 15.58 10.87 15.04 10.18 14.54 9.51 14.05 8.85 13.6 8.21 13.17 7.59 12.77 6.99 12.39 6.41 12.04 5.85 11.71 5.31 11.4 4.8 11.12 4.32 10.85 3.86 10.61 3.43 10.38 3.03 10.18 2.65 9.99 2.31 9.82 1.49 9.42 1.49 9.43 1.38 9.37 1.13 9.27 0.89 9.17 0.63 9.09 0 8.9 0.09 9.4 0.09 9.44 0.11 9.54 0.12 9.57 0.12 9.58 0.13 9.67 0.14 9.75 0.19 10.02 0.21 10.12 0.23 10.23 0.23 10.23"/><path class="cls-1" d="M1.43,9.72l-.17-.08L1,9.54.79,9.45.54,9.36l-.18,0v.18l0,.06h0V9.7l0,.17,0,.1v.1h0l0,.11,0,.12,0,.25,0,.28.05.29,0,.31.05.33.05.35,0,.36.05.38,0,.38.05.4.06.4,0,.41h0l0,.42.05.42,0,.43,0,.42,0,.42,0,.42,0,.42,0,.41c0,.14,0,.27,0,.41s0,.26,0,.39,0,.26,0,.39v2.06h0v1.54h0v2h0v2.37h0v2.74h0v3.07h0v3.38h0v3.66h0v3.9h0v4.1h0v4.29h0v4.45h0V61.1h0v4.64h0v4.72h0v4.74h0V80h0v4.69h0v4.65h0v4.56h0v4.43h0v4.28h0v4.09h0v3.87h0v3.63h0v3.34h0v3h0v2.69h0v2.32h0v2.86l1,0V18.44l0-.32v-.33l0-.34,0-.34,0-.34,0-.35,0-.35,0-.35,0-.35,0-.35,0-.35,0-.35,0-.34,0-.34,0-.33L1.92,13l0-.32,0-.31-.05-.3,0-.28,0-.28,0-.27,0-.25,0-.24,0-.22,0-.21,0-.19,0-.17,0-.23Z"/><path class="cls-2" d="M1.87,9.93a68.48,68.48,0,0,1,1,9.6c0,3.34-.18,87.83-.23,109h.63V91.93l0-2.65V86.61l0-2.68,0-2.67,0-2.66L3.4,76l0-2.62,0-2.57,0-2.54.05-2.48L3.62,64l.1-1.72.14-1.66L4,59l.21-1.58.24-1.52.28-1.48L5.06,53l.33-1.38.36-1.34L6.12,49l.4-1.24.42-1.2.43-1.15.45-1.1.47-1.07.47-1,.48-1,.49-.93.49-.89.5-.85.5-.81.5-.77.49-.73.49-.68.48-.65.47-.61c1.18-1.45,2.27-2.4,3.58-3.77l5.1-.83V26.76C13.61,15.68,5,11.48,1.87,9.93Z"/><path class="cls-1" d="M15,32.68l-.43.5-.45.53-.47.57-.47.61-.48.65-.49.68-.49.73-.5.77-.5.81-.5.85-.49.89-.49.93-.48,1-.47,1-.47,1.07-.45,1.1-.43,1.15-.42,1.2L6.12,49l-.37,1.29-.36,1.34L5.06,53l-.3,1.42-.28,1.48-.24,1.52L4,59l-.17,1.62-.14,1.66L3.62,64l-.06,1.77-.05,2.48,0,2.54,0,2.57L3.4,76l0,2.65,0,2.66,0,2.67,0,2.68v2.67l0,2.65v30.65c0,2,0,3.79,0,5.79l-3,.09L.23,375.56H8.09l1.22,0h2.56l1.32,0h4l1.31,0H24.4l1,0H40.17l.42,0H41l.39,0,.74,0,.7-.05.67-.05.62-.05.59,0,.54-.05.51-.06.45-.05.41-.05.36,0,.31,0,.26,0,.21,0,.14,0H48l.18,0L47.43,95.11V92.36l0-.77,0-.86,0-.93,0-1,0-1.06-.05-1.12,0-1.17-.06-1.21L47,83,47,81.7l-.09-1.32-.09-1.33-.11-1.36-.11-1.36L46.44,75l-.14-1.37-.15-1.36L46,70.88l-.17-1.33-.2-1.31L45.41,67l-.22-1.24L45,64.51l-.26-1.16-.27-1.1-.27-1-.28-1-.27-1-.27-.9-.27-.85-.27-.81-.26-.76-.26-.72L42,54.53l-.24-.63-.24-.59-.24-.56-.23-.51-.22-.48-.21-.45-.2-.4-.2-.38-.19-.34-.17-.31-.17-.28-.16-.26-.15-.22-.13-.2-.12-.17L39,48.6l-.1-.13-.08-.1-.08-.08-.05-.06,0,0,0,0-.06,0-4.11,0,0-.15,0-.23,0-.28,0-.35-.07-.39-.08-.45-.09-.49L34,45.21l-.13-.57-.14-.6-.17-.64-.18-.67-.21-.7-.23-.71-.25-.74-.27-.76-.31-.77-.33-.78-.35-.78L31,36.7l-.41-.79-.45-.79-.48-.79-.51-.77-.54-.77L28.07,32l-.62-.73-.66-.71-.69-.68-.79-.71-8.12,1.36c-.77.73-1.47,1.33-2.19,2.11Z"/><path class="cls-2" d="M8.4,43.66l-.31.72-.45,1.1-.43,1.14L6.8,47.81l-.4,1.24L6,50.33l-.35,1.33L5.34,53,5,54.45v0q1.51-.5,3-1c1.54-.48,3.09-1,4.63-1.42s3.13-.91,4.71-1.34,3.2-.82,4.83-1.2,3.26-.73,4.92-1.08,3.26-.67,4.92-1c-.66-6.44-1.71-13.36-6.86-17.76L17.42,31c-.19.17-.35.23-.6.46A38.36,38.36,0,0,0,8.4,43.66ZM4.92,55.12l-.15.8-.14.87q1.71-.57,3.42-1.11,2.27-.7,4.64-1.4T17.4,53q2.43-.62,4.83-1.19t4.92-1.09q2.49-.51,5-1l.1,0c0-.56-.08-1.1-.13-1.64-1.63.32-3.26.64-4.87,1s-3.28.7-4.91,1.08-3.22.77-4.8,1.19-3.15.88-4.7,1.34L8.23,54.06,4.92,55.12Zm-.39,2.3v0L4.32,59v0c1.23-.41,2.48-.81,3.73-1.19,1.54-.48,3.09-1,4.64-1.39s3.11-.88,4.71-1.3,3.21-.82,4.84-1.19,3.28-.73,4.93-1.06,3.28-.65,5-1l.21,0c0-.45,0-.88-.07-1.28l0-.35h0c-1.7.32-3.37.66-5,1S24,52,22.36,52.35s-3.24.78-4.82,1.19-3.15.84-4.7,1.28-3.07.91-4.62,1.4q-1.86.59-3.69,1.2Zm-.28,2.22-.1,1-.06.63C5.4,60.8,6.72,60.38,8,60c1.54-.46,3.1-.92,4.64-1.36s3.11-.88,4.72-1.29,3.23-.81,4.84-1.18,3.26-.73,4.93-1.07,3.32-.66,5-1l.29-.06c0-.56,0-1.1-.06-1.6l-.14,0c-1.65.3-3.32.63-5,1s-3.29.69-4.91,1.06-3.23.76-4.81,1.18-3.14.85-4.71,1.3-3.11.91-4.63,1.38c-1.33.41-2.65.84-4,1.27ZM4,61.85l0,.42-.07,1.22c1.35-.44,2.72-.87,4.1-1.28H8l1.13-.34c2.7-.81,5.43-1.62,8.23-2.34q2.43-.63,4.85-1.19c1.64-.37,3.28-.73,4.93-1.06h0L28.58,57,30,56.74l2.57-.47c0-.56,0-1.12-.06-1.64l-.21,0c-1.68.31-3.35.63-5,1s-3.28.69-4.91,1.07-3.25.76-4.83,1.17-3.13.84-4.71,1.29-3.11.9-4.63,1.36S5.42,61.39,4,61.85ZM3.91,64.1l-.06,1.54c1.38-.45,2.76-.89,4.18-1.31s3.08-.91,4.65-1.34,3.14-.85,4.72-1.24,3.23-.8,4.85-1.17,3.29-.75,4.94-1.08h0l1.4-.27L30,59l2.61-.47c0-.57,0-1.12,0-1.65l-2.48.45-1.4.27-1.39.27h0c-1.66.33-3.3.69-4.92,1.06s-3.25.77-4.83,1.18c-2.75.71-5.5,1.53-8.21,2.34l-1.13.34h0q-2.14.63-4.29,1.35Zm-.07,2.13,0,1.59c1.4-.47,2.8-.91,4.21-1.33s3.09-.91,4.65-1.34,3.16-.85,4.73-1.25,3.21-.79,4.86-1.17,3.27-.72,4.93-1h0l1.39-.26L30,61.17l2.65-.47,0-1.65-2.53.46-1.4.27-1.39.27h0c-1.67.34-3.3.7-4.92,1.07s-3.25.78-4.84,1.17-3.16.81-4.71,1.24-3.11.88-4.65,1.34-2.89.88-4.34,1.36Zm0,2.18,0,1.61c1.43-.46,2.84-.89,4.25-1.31s3.08-.93,4.65-1.38,3.14-.87,4.73-1.27,3.23-.79,4.86-1.14,3.27-.69,4.95-1l5-.94h0l.47-.08c0-.56,0-1.1,0-1.64l-2.56.46L28.7,62l-1.39.26h0c-1.66.32-3.3.67-4.92,1s-3.23.76-4.84,1.17-3.17.81-4.72,1.24-3.1.88-4.64,1.33-2.93.91-4.38,1.39Zm0,2.21v.14l0,1.42c1.41-.46,2.84-.9,4.27-1.32s3.08-.9,4.66-1.33,3.17-.86,4.73-1.25,3.21-.79,4.86-1.16,3.29-.7,4.95-1l5-.94.49-.08,0-1.62-.37.07h0c-1.76.31-3.41.62-5,.93s-3.29.64-4.93,1-3.25.73-4.84,1.13-3.16.83-4.72,1.27L8.18,69.24c-1.5.46-3,.91-4.42,1.38Zm0,2.15v1.6Q5.84,73.68,8,73.05c1.54-.46,3.09-.91,4.66-1.34s3.16-.85,4.75-1.24,3.23-.78,4.86-1.13,3.27-.7,4.95-1,3.38-.64,5-.93l.51-.09,0-1.66-.41.08-5,.93c-1.66.31-3.31.65-4.93,1s-3.22.75-4.84,1.15-3.18.82-4.72,1.25-3.1.87-4.65,1.33-3,.9-4.44,1.37ZM3.7,75v1.62c1.43-.46,2.87-.91,4.31-1.35s3.09-.9,4.67-1.34,3.17-.85,4.75-1.24,3.24-.77,4.86-1.12,3.28-.7,5-1,3.36-.63,5-.91l.53-.09,0-1.64-.42.07c-1.74.31-3.41.62-5,.93s-3.29.65-4.93,1-3.26.73-4.85,1.12-3.17.81-4.73,1.24-3.11.88-4.65,1.33-3,.91-4.46,1.38Zm0,2.21v1.57c1.44-.46,2.89-.91,4.34-1.32s3.09-.86,4.67-1.29,3.16-.83,4.74-1.22,3.24-.78,4.88-1.14,3.27-.68,5-1,3.36-.62,5.05-.91l.53-.09,0-1.68-.43.07c-1.71.29-3.39.6-5,.91s-3.29.64-4.94,1-3.26.74-4.85,1.13-3.18.8-4.73,1.23-3.1.87-4.65,1.34-3,.92-4.49,1.4Zm0,2.17,0,1.56C5.08,80.43,6.53,80,8,79.57s3.09-.86,4.68-1.28,3.14-.81,4.75-1.19,3.25-.76,4.87-1.11,3.28-.68,5-1,3.36-.62,5.06-.9l.54-.1,0-1.65-.44.08q-2.57.43-5,.9c-1.65.31-3.3.65-4.94,1s-3.26.73-4.86,1.13-3.18.81-4.74,1.23S9.7,77.52,8.14,78s-3,.89-4.49,1.38Zm0,2.15,0,1.65C5,82.69,6.5,82.26,8,81.83s3.1-.89,4.67-1.32,3.16-.84,4.76-1.23,3.25-.74,4.87-1.08,3.29-.67,5-1h0L28.67,77l1.41-.26,2.77-.46V74.56l-.45.08c-1.71.29-3.39.6-5.05.91s-3.3.64-4.94,1-3.28.72-4.86,1.1-3.16.78-4.74,1.2-3.11.83-4.66,1.27-3,.9-4.51,1.38Zm0,2.24v1.6Q5.75,84.64,8,84c1.54-.43,3.1-.86,4.68-1.28s3.15-.81,4.76-1.19,3.27-.77,4.88-1.12,3.3-.69,5-1,3.34-.58,5.07-.86l.54-.09V76.8l-2.68.46-1.41.25-1.4.26h0c-1.66.31-3.31.63-5,1s-3.27.7-4.86,1.08-3.18.79-4.74,1.22-3.12.87-4.67,1.32-3,.89-4.52,1.36Zm0,2.18V87.5C5,87.05,6.49,86.62,8,86.2s3.11-.87,4.68-1.28,3.18-.82,4.77-1.19,3.23-.74,4.89-1.08,3.31-.66,5-1l5.07-.87.54-.09V79.06l-.45.07c-1.68.27-3.37.56-5.06.86s-3.32.63-4.95,1-3.28.73-4.87,1.11-3.16.78-4.75,1.19L8.12,84.55c-1.51.43-3,.89-4.53,1.36Zm0,2.18v1.63c1.43-.45,2.89-.9,4.4-1.33s3.11-.87,4.69-1.28,3.19-.8,4.76-1.16,3.23-.74,4.89-1.08,3.32-.66,5-1,3.33-.58,5.07-.86l.53-.08V81.29l-.45.08c-1.68.28-3.37.58-5.06.88s-3.34.61-5,1-3.25.69-4.87,1.07-3.19.78-4.75,1.19-3.13.84-4.68,1.28-3,.88-4.54,1.35Zm0,2.22v1.62h0c1.46-.45,2.93-.88,4.4-1.3s3.11-.87,4.69-1.28,3.17-.82,4.77-1.19,3.23-.73,4.89-1.06,3.33-.65,5-.94,3.33-.58,5.08-.85l.52-.08v-1.7l-.45.07c-1.67.27-3.37.56-5.06.86s-3.34.61-5,1-3.25.7-4.87,1.07-3.21.77-4.76,1.17-3.13.82-4.67,1.27-3,.89-4.55,1.38Zm0,2.22v1.58c1.47-.45,2.94-.88,4.4-1.28S11,92,12.64,91.58s3.18-.8,4.77-1.16,3.24-.71,4.9-1,3.3-.64,5-.94,3.38-.59,5.09-.87l.52-.08V85.8l-.44.07c-1.67.27-3.37.55-5.06.85s-3.36.61-5,.94-3.25.68-4.87,1.06-3.2.77-4.76,1.18-3.13.84-4.68,1.28-3,.88-4.55,1.35Zm0,2.17v1.63c1.46-.44,2.93-.87,4.41-1.28s3.1-.85,4.69-1.26,3.18-.79,4.78-1.15,3.25-.71,4.9-1,3.33-.66,5-.95,3.38-.58,5.09-.84l.51-.07V88.05l-.44.07c-1.71.27-3.4.56-5.07.86s-3.32.61-5,1-3.27.67-4.89,1-3.19.75-4.75,1.16-3.1.81-4.69,1.24-3,.86-4.55,1.33Zm0,2.22v1.64c1.47-.44,2.94-.86,4.4-1.26s3.14-.85,4.7-1.24,3.15-.79,4.78-1.16,3.27-.72,4.91-1.05,3.31-.63,5-.91,3.41-.57,5.08-.82l.5-.08V90.31l-.43.06c-1.7.26-3.4.54-5.07.83s-3.35.62-5,1-3.27.68-4.89,1-3.19.74-4.76,1.14-3.13.83-4.68,1.26-3,.87-4.56,1.33Zm0,2.23v1.63c1.47-.44,2.94-.86,4.4-1.26s3.14-.84,4.7-1.24,3.16-.79,4.79-1.16,3.26-.71,4.91-1,3.32-.61,5-.9h0c1.69-.29,3.39-.57,5.1-.83l.48-.07V92.61l-.41.06c-1.76.27-3.43.55-5.08.82s-3.33.58-5,.91-3.29.68-4.9,1-3.17.75-4.76,1.16-3.15.82-4.69,1.24S5,98.69,3.52,99.15Zm0,2.22V103c1.45-.43,2.92-.85,4.4-1.25s3.12-.84,4.7-1.24,3.17-.77,4.79-1.13,3.27-.7,4.92-1,3.32-.61,5-.88,3.41-.56,5.1-.81l.47-.07V94.86l-.4.06c-1.72.26-3.42.54-5.09.82h0c-1.67.29-3.34.59-5,.9s-3.29.66-4.9,1-3.18.74-4.77,1.15-3.15.82-4.69,1.24-3.05.85-4.55,1.31Zm0,2.18v1.62c1.46-.44,2.92-.85,4.39-1.24s3.12-.83,4.71-1.22,3.17-.76,4.79-1.12,3.27-.69,4.92-1,3.32-.61,5-.89,3.4-.55,5.1-.8l.46-.07V97.14l-.39,0L27.42,98c-1.68.28-3.34.57-5,.88s-3.28.65-4.9,1-3.18.73-4.77,1.13-3.15.81-4.7,1.23-3,.84-4.54,1.3Zm0,2.2v1.65c1.44-.43,2.9-.84,4.38-1.22s3.15-.81,4.72-1.2,3.17-.77,4.79-1.13,3.27-.71,4.92-1,3.33-.62,5-.9,3.39-.54,5.1-.78l.44-.06V99.4l-.38,0c-1.73.26-3.43.53-5.09.8s-3.35.57-5,.89-3.29.64-4.9,1-3.19.72-4.78,1.12-3.13.79-4.7,1.21-3,.84-4.53,1.28Zm0,2.24v1.67c1.45-.43,2.91-.84,4.37-1.23s3.13-.83,4.72-1.22,3.2-.77,4.8-1.11,3.26-.68,4.93-1,3.32-.59,5-.86,3.44-.53,5.11-.76l.42-.07v-1.76l-.36,0c-1.72.24-3.42.5-5.09.78s-3.35.57-5,.89-3.29.66-4.9,1-3.2.75-4.79,1.14-3.16.79-4.71,1.19-3,.82-4.52,1.27Zm0,2.25v1.62c1.44-.42,2.9-.83,4.37-1.21s3.13-.8,4.72-1.18,3.2-.75,4.8-1.08,3.27-.67,4.94-1,3.33-.6,5-.88h0l1.42-.23,1.43-.22c.88-.14,1.76-.27,2.65-.39V104l-.34,0c-1.77.25-3.45.51-5.11.77s-3.34.55-5,.86-3.28.64-4.91,1-3.21.72-4.78,1.11S9.6,108.55,8,109s-3,.84-4.52,1.27Zm0,2.2v1.64c1.44-.43,2.89-.83,4.36-1.21h0c1.56-.4,3.13-.8,4.73-1.18s3.2-.75,4.81-1.08,3.26-.68,4.93-1,3.34-.61,5-.87h0l5.12-.75.38,0v-1.69l-2.57.37-1.43.22-1.41.23h0c-1.68.27-3.35.56-5,.87s-3.29.63-4.92,1-3.22.71-4.79,1.08-3.15.78-4.71,1.18-3,.81-4.51,1.25Zm0,2.22v1.67c1.44-.42,2.88-.83,4.34-1.21s3.13-.81,4.73-1.2,3.21-.76,4.82-1.09,3.28-.66,4.93-1,3.34-.57,5-.83,3.37-.51,5.13-.75l.36-.05v-1.72l-.3,0c-1.69.23-3.4.48-5.11.75h0c-1.7.26-3.37.55-5,.86s-3.29.64-4.92,1-3.22.7-4.79,1.07S9.59,113,8,113.41H8c-1.5.39-3,.81-4.5,1.25Zm0,2.25v1.69c1.43-.39,2.87-.78,4.34-1.16s3.19-.81,4.73-1.18,3.18-.74,4.82-1.08,3.27-.66,4.94-1,3.36-.59,5-.85,3.38-.51,5.13-.75l.34,0v-1.76l-.28,0c-1.69.23-3.4.48-5.12.75s-3.35.53-5,.83-3.3.61-4.92.95-3.22.7-4.8,1.09-3.15.78-4.72,1.19-3,.82-4.48,1.25Zm0,2.28v1.63c1.42-.4,2.86-.79,4.32-1.16s3.17-.8,4.74-1.16,3.19-.73,4.82-1.07,3.29-.66,4.94-1,3.34-.57,5-.83h0l1.42-.22,1.44-.2c.85-.13,1.71-.24,2.58-.36v-1.74l-.26,0c-1.69.23-3.4.48-5.11.75s-3.38.54-5,.84-3.29.63-4.93,1-3.2.7-4.8,1.08S9.53,117.59,8,118s-3,.79-4.46,1.21Zm0,2.21v1.66c1.42-.41,2.86-.81,4.3-1.18,1.59-.41,3.18-.8,4.74-1.17s3.19-.72,4.83-1.06,3.29-.65,4.95-.94,3.34-.56,5-.81,3.37-.48,5.14-.71l.29,0v-1.71l-2.49.34-1.43.21-1.43.21h0c-1.69.26-3.36.54-5,.83s-3.31.61-4.93,1-3.21.69-4.8,1.06-3.2.77-4.73,1.16-3,.78-4.46,1.2Zm0,2.24v1.7c1.41-.39,2.83-.77,4.28-1.14,1.61-.42,3.2-.81,4.74-1.18s3.19-.74,4.83-1.08h0l1.38-.28,1.38-.27q3.59-.67,7.24-1.2c1.67-.24,3.38-.47,5.14-.7l.27,0v-1.74l-.21,0c-1.69.22-3.42.46-5.13.71s-3.36.51-5,.81-3.32.61-4.93.93-3.21.68-4.81,1.06S9.53,122,8,122.42s-3,.79-4.44,1.22Zm0,2.29v1.64c1.42-.39,2.84-.77,4.27-1.12s3.15-.76,4.75-1.12,3.2-.71,4.82-1,3.31-.65,5-.93,3.35-.56,5-.81,3.39-.5,5.15-.73l.24,0V120l-.19,0c-1.7.22-3.41.45-5.13.7-2.44.35-4.85.74-7.21,1.19l-1.38.27-1.38.28h0c-1.6.33-3.21.7-4.81,1.08s-3.2.78-4.73,1.17-2.94.77-4.41,1.19Zm0,2.22v.69l-.26,0,0,1.06c1.49-.42,3-.82,4.49-1.19S11,128,12.58,127.6s3.19-.72,4.84-1.06,3.3-.64,5-.92,3.36-.55,5.05-.79,3.39-.47,5.15-.69l.22,0v-1.76l-.17,0c-1.7.22-3.42.47-5.14.72s-3.37.52-5,.81-3.32.6-4.95.93-3.21.67-4.81,1S9.54,126.61,8,127s-2.94.76-4.39,1.16Zm-.22,2.35,0,1.68c1.46-.41,2.93-.8,4.42-1.16l4.76-1.14c1.58-.36,3.19-.72,4.84-1s3.3-.64,5-.92,3.36-.55,5.06-.79h0l1.43-.2,1.44-.19,2.47-.31v-1.75l-.15,0c-1.7.22-3.42.45-5.14.7s-3.37.5-5,.79-3.32.59-4.94.91-3.22.68-4.82,1-3.18.75-4.75,1.14-3.08.79-4.6,1.22Zm.05,2.26,0,1.68c1.44-.4,2.89-.78,4.36-1.14h0L9.15,133l1.33-.31q3.43-.79,6.94-1.49c1.64-.32,3.3-.63,5-.91s3.36-.55,5.06-.8,3.43-.47,5.16-.67l.16,0V127l-2.38.3-1.44.2-1.43.2h0c-1.7.24-3.38.5-5.05.78s-3.32.59-4.94.92-3.22.68-4.83,1.05-3.19.75-4.75,1.13-3,.78-4.54,1.2ZM3.47,135l0,1.66c1.43-.39,2.86-.76,4.3-1.11s3.16-.76,4.76-1.12,3.23-.69,4.85-1,3.3-.62,5-.89,3.36-.53,5.07-.76l5.16-.66h.13l0-1.78h-.1c-1.73.21-3.45.44-5.14.68s-3.38.51-5.05.79-3.31.59-4.95.91q-3.51.69-6.93,1.49l-1.32.31L8,133.85H8c-1.5.36-3,.75-4.48,1.16Zm.06,2.24,0,1.68c1.4-.38,2.81-.74,4.23-1.09,1.59-.39,3.18-.75,4.77-1.09s3.22-.67,4.85-1,3.29-.63,5-.91,3.36-.54,5.08-.77,3.45-.44,5.16-.64h.11v-1.75h-.06c-1.8.22-3.49.44-5.16.66s-3.37.48-5,.75-3.32.57-5,.89-3.25.65-4.84,1-3.17.73-4.75,1.11-2.95.74-4.41,1.15Zm.06,2.26,0,1.66c1.39-.37,2.78-.72,4.16-1,1.59-.36,3.18-.73,4.78-1.08s3.2-.69,4.85-1,3.3-.6,5-.87,3.37-.51,5.08-.73,3.46-.45,5.17-.65h.07l0-1.79h0c-1.77.21-3.48.43-5.16.65s-3.38.48-5.05.76-3.32.58-5,.91-3.24.64-4.84,1-3.19.71-4.75,1.09-2.9.73-4.34,1.12Zm.05,2.24,0,1.69c1.36-.37,2.72-.71,4.1-1,1.58-.37,3.18-.74,4.77-1.09s3.21-.68,4.86-1,3.31-.6,5-.86,3.37-.52,5.07-.75h0l1.44-.18h0l1.44-.18,2.33-.27v-1.74h0c-1.76.2-3.48.42-5.16.64s-3.39.47-5.06.74-3.32.55-5,.86-3.23.65-4.84,1-3.19.72-4.76,1.08-2.87.7-4.28,1.08ZM3.7,144l0,1.69c1.34-.35,2.69-.69,4-1h0l1.33-.3,1.34-.3c2.27-.5,4.6-1,7-1.41,1.65-.31,3.31-.59,5-.86s3.37-.52,5.08-.74,3.46-.45,5.18-.65h0v-1.78l-2.25.27-1.44.17h0l-1.44.19h0c-1.71.22-3.39.47-5.07.74s-3.33.55-5,.86-3.22.64-4.84,1-3.19.72-4.77,1.09c-1.41.33-2.81.68-4.21,1Zm.06,2.27,0,1.71c1.32-.34,2.64-.67,4-1,1.59-.37,3.19-.73,4.79-1.07s3.21-.67,4.86-1,3.32-.59,5-.85,3.38-.5,5.08-.72,3.44-.44,5.17-.62V141c-1.75.2-3.45.41-5.12.63s-3.39.47-5.06.74-3.33.56-5,.86q-3.48.65-6.95,1.41l-1.33.3-1.33.3h0c-1.39.32-2.78.67-4.15,1Zm.06,2.28,0,1.71c1.29-.34,2.59-.67,3.9-1,1.59-.37,3.19-.73,4.79-1.07s3.22-.67,4.87-1,3.32-.59,5-.86,3.4-.5,5.09-.71,3.39-.4,5.14-.58l0-1.76c-1.73.19-3.42.39-5.09.61s-3.41.47-5.08.72-3.33.54-5,.85-3.23.62-4.85,1-3.2.7-4.77,1.07c-1.37.32-2.73.65-4.08,1Zm.05,2.28,0,1.74q1.92-.5,3.84-.93c1.6-.37,3.2-.74,4.79-1.09s3.21-.68,4.87-1h0l1.39-.25,1.39-.24c2.41-.4,4.85-.75,7.3-1,1.67-.21,3.37-.4,5.11-.58l0-1.8c-1.69.18-3.38.38-5.07.58s-3.41.45-5.07.71-3.33.55-5,.85-3.24.63-4.86,1-3.21.71-4.78,1.07c-1.35.31-2.68.65-4,1Zm.06,2.31,0,1.7c1.25-.32,2.51-.63,3.77-.92,1.58-.36,3.18-.71,4.8-1s3.22-.64,4.87-.93,3.35-.59,5-.84,3.38-.49,5.1-.7,3.35-.39,5.08-.58l0-1.82c-1.68.18-3.36.37-5,.58-2.47.29-4.89.64-7.28,1l-1.39.24-1.38.25h0c-1.62.3-3.25.64-4.86,1l-4.79,1.08c-1.33.31-2.65.63-3.95,1ZM4,155.43l0,1.69c1.24-.32,2.47-.62,3.71-.9,1.59-.37,3.2-.71,4.8-1s3.23-.62,4.88-.91,3.33-.56,5-.81,3.38-.48,5.1-.68,3.33-.4,5.05-.57l0-1.8-5,.57c-1.71.21-3.41.44-5.09.7s-3.37.54-5,.83-3.25.6-4.86.93-3.19.67-4.78,1c-1.31.3-2.6.62-3.89,1Zm.06,2.26,0,1.74c1.22-.31,2.44-.6,3.64-.86,1.56-.34,3.13-.69,4.81-1s3.25-.65,4.88-.94,3.33-.55,5-.79,3.4-.46,5.11-.67h0L29,155l1.45-.16,2.11-.23,0-1.8c-1.66.17-3.33.36-5,.56s-3.41.44-5.08.69-3.35.52-5,.81-3.25.58-4.87.91-3.21.66-4.79,1q-1.92.45-3.81.93ZM4.11,160l0,1.68c1.19-.29,2.38-.57,3.58-.83,1.57-.35,3.17-.68,4.8-1s3.25-.62,4.89-.91,3.34-.55,5-.79,3.4-.46,5.12-.67,3.29-.38,5-.54l0-1.8-2.05.21-1.45.17-1.44.16h0c-1.72.2-3.42.42-5.09.66s-3.35.51-5,.8-3.27.6-4.87.93-3.17.68-4.8,1c-1.27.28-2.52.58-3.74.89Zm0,2.26,0,1.76c1.17-.29,2.34-.56,3.51-.82l4.81-1c1.63-.33,3.27-.64,4.89-.92s3.34-.55,5-.78,3.4-.46,5.12-.64,3.27-.36,5-.52V157.5q-2.45.24-4.92.54c-1.72.21-3.42.43-5.1.67s-3.35.5-5,.79-3.26.58-4.88.9-3.2.65-4.79,1c-1.24.27-2.47.56-3.69.86Zm.06,2.33,0,1.73c1.14-.28,2.29-.55,3.45-.8,1.58-.35,3.19-.67,4.81-1s3.26-.6,4.9-.88,3.33-.56,5-.8,3.39-.47,5.12-.66h0c1.61-.18,3.25-.35,4.93-.51v-1.8l-4.89.51c-1.72.19-3.42.41-5.1.64s-3.35.5-5,.79-3.28.59-4.88.91-3.18.66-4.8,1c-1.21.27-2.42.55-3.62.84Zm.06,2.3,0,1.73c1.13-.28,2.26-.54,3.38-.78,1.59-.35,3.19-.68,4.82-1s3.26-.61,4.9-.88,3.34-.54,5-.78,3.4-.46,5.12-.65h0l1.45-.16,1.46-.14,2-.19,0-1.81q-2.43.24-4.86.51h0c-1.72.18-3.42.41-5.11.65s-3.35.52-5,.8-3.27.58-4.88.89-3.21.63-4.81,1c-1.19.26-2.37.53-3.55.82Zm.06,2.3,0,1.72c1.1-.27,2.21-.52,3.32-.76,1.58-.33,3.19-.66,4.82-1s3.25-.59,4.91-.86h0c1.66-.27,3.34-.52,5-.76s3.4-.45,5.12-.63,3.25-.34,4.87-.49l0-1.83-1.91.18-1.46.15-1.45.16h0c-1.72.19-3.42.4-5.11.64s-3.36.5-5,.78-3.28.57-4.89.88-3.21.64-4.81,1c-1.17.25-2.33.52-3.48.8Zm.06,2.29,0,1.8c1.09-.26,2.17-.51,3.25-.74,1.58-.35,3.19-.68,4.83-1s3.25-.6,4.91-.87,3.35-.52,5-.76,3.41-.44,5.13-.63,3.22-.34,4.84-.48V167q-2.45.21-4.8.48c-1.72.19-3.42.4-5.11.63s-3.36.48-5,.75h0c-1.64.27-3.27.56-4.89.86s-3.21.63-4.81,1q-1.73.38-3.42.78Zm.06,2.38,0,1.72,3.18-.69h0L9,174.61l1.35-.27h0c2.31-.45,4.65-.87,7-1.25,1.67-.27,3.35-.52,5.05-.74s3.41-.43,5.13-.62,3.2-.33,4.8-.47l0-1.89c-1.62.14-3.21.3-4.77.47-1.73.19-3.43.4-5.12.63s-3.37.49-5,.76-3.27.55-4.9.86-3.21.65-4.81,1c-1.13.24-2.25.5-3.35.77Zm.06,2.3,0,1.76c1-.24,2.07-.47,3.12-.68,1.59-.33,3.19-.66,4.83-1s3.26-.6,4.92-.86,3.36-.51,5.05-.73,3.41-.42,5.14-.6,3.19-.31,4.77-.44l0-1.82c-1.61.14-3.19.3-4.74.47-1.73.19-3.44.39-5.12.61s-3.37.47-5,.74q-3.54.57-7,1.25h0l-1.34.27-1.34.28h0c-1.1.23-2.2.46-3.28.72Zm.06,2.33,0,1.77c1-.24,2-.46,3.05-.67,1.59-.33,3.21-.65,4.84-1s3.27-.58,4.92-.85,3.35-.51,5.06-.73,3.41-.42,5.14-.59h0l1.46-.14,1.46-.14,1.79-.15,0-1.84c-1.61.14-3.17.29-4.7.44-1.73.17-3.44.37-5.13.59s-3.38.47-5,.73-3.28.55-4.91.86-3.22.63-4.82,1c-1.07.22-2.14.45-3.21.7Zm.06,2.34V181l0,1.6,3-.64c1.6-.33,3.21-.65,4.85-.95s3.26-.59,4.92-.84,3.38-.5,5.06-.72,3.4-.4,5.15-.57c1.56-.16,3.13-.3,4.7-.42l0-1.86c-.58,0-1.16.09-1.74.15l-1.46.13-1.45.14h0c-1.74.17-3.45.36-5.13.58s-3.37.46-5,.73-3.29.55-4.91.85-3.23.61-4.83.95c-1,.22-2.1.45-3.14.69Zm0,2.36,0,1.71c1-.21,2-.42,3-.61,1.61-.32,3.23-.63,4.84-.92s3.27-.56,4.93-.81,3.33-.49,5.06-.7,3.43-.42,5.16-.59c1.55-.15,3.11-.29,4.66-.41V179c-1.57.13-3.11.27-4.64.42q-2.57.26-5.13.57c-1.72.22-3.4.45-5,.71s-3.29.54-4.91.84-3.23.62-4.84,1c-1,.21-2.06.43-3.09.67Zm0,2.29,0,1.79c1-.21,1.93-.41,2.9-.6,1.58-.31,3.17-.62,4.85-.93s3.29-.58,4.93-.83,3.37-.49,5.07-.7,3.4-.39,5.16-.55c1.55-.14,3.1-.27,4.63-.38l0-1.86c-1.56.13-3.1.26-4.61.41-1.73.17-3.45.37-5.14.58s-3.35.45-5,.7-3.28.53-4.91.82-3.25.6-4.84.91c-1,.2-2,.41-3,.64Zm0,2.37,0,1.76c.94-.21,1.88-.4,2.84-.59,1.57-.31,3.18-.62,4.85-.92s3.29-.57,4.94-.81,3.37-.47,5.07-.67,3.41-.39,5.17-.54c1.54-.14,3.07-.27,4.59-.38l0-1.86c-1.57.12-3.09.25-4.57.38-1.71.15-3.43.34-5.14.55s-3.39.44-5.05.7-3.31.53-4.92.82-3.22.61-4.84.93q-1.5.3-3,.63Zm0,2.34,0,1.8,2.79-.59c1.63-.32,3.25-.63,4.86-.91s3.28-.56,4.94-.81,3.37-.48,5.08-.68,3.43-.38,5.17-.54c1.49-.13,3-.25,4.55-.36l0-1.84-4.54.38c-1.71.15-3.42.33-5.14.54s-3.4.43-5.06.67-3.31.51-4.92.8-3.21.6-4.85.92c-1,.19-2,.4-2.93.62Zm0,2.37,0,1.79c.91-.2,1.83-.39,2.74-.56,1.61-.32,3.23-.62,4.87-.9s3.28-.55,4.94-.79,3.38-.47,5.08-.66,3.45-.37,5.18-.52h0l1.47-.12,1.47-.12,1.55-.11,0-1.89c-1.51.1-3,.22-4.51.35-1.73.16-3.45.34-5.15.54s-3.39.42-5.06.67-3.29.52-4.92.81-3.27.6-4.85.91l-2.89.61Zm0,2.36,0,1.8c.9-.19,1.8-.38,2.7-.55,1.6-.31,3.23-.61,4.86-.89s3.29-.54,5-.77,3.37-.45,5.08-.65,3.44-.37,5.17-.53c1.47-.13,3-.24,4.48-.34l0-1.87-1.51.11-1.47.12-1.46.12h0c-1.74.15-3.46.32-5.15.52s-3.4.41-5.07.65-3.3.51-4.93.79-3.24.58-4.85.9c-1,.18-1.9.38-2.84.58Zm0,2.37,0,1.79,2.64-.53c1.61-.31,3.23-.61,4.87-.89s3.29-.53,4.95-.76,3.39-.46,5.09-.65,3.45-.36,5.18-.5l4.44-.32,0-1.87c-1.48.09-3,.21-4.43.33-1.75.16-3.47.34-5.16.53s-3.4.42-5.07.65-3.3.49-4.93.76-3.25.58-4.86.89l-2.79.57ZM5,199.65l0,1.79c.86-.18,1.73-.35,2.59-.51,1.63-.3,3.26-.58,4.88-.86s3.29-.52,4.95-.76,3.39-.45,5.1-.64,3.44-.36,5.18-.5l4.4-.32,0-1.86-4.39.32c-1.74.14-3.47.31-5.17.5s-3.4.41-5.07.64-3.31.49-4.94.77-3.25.57-4.86.88L5,199.65ZM5,202l0,1.83,2.55-.49c1.62-.3,3.25-.59,4.87-.87s3.29-.53,5-.75h0c1.69-.22,3.38-.43,5.09-.62s3.45-.35,5.19-.49c1.43-.11,2.89-.22,4.36-.31l0-1.89c-1.46.09-2.91.2-4.35.31-1.75.14-3.47.31-5.17.5s-3.41.41-5.08.64-3.31.49-4.94.76-3.27.56-4.87.85L5,202Zm0,2.4,0,1.8c.82-.17,1.65-.32,2.49-.48,1.62-.3,3.26-.59,4.88-.86s3.29-.53,5-.76,3.39-.42,5.1-.6,3.46-.33,5.19-.47q2.13-.16,4.32-.3l0-1.87c-1.45.09-2.89.2-4.32.31-1.75.14-3.47.3-5.17.49s-3.41.39-5.08.62h0c-1.66.22-3.31.48-5,.75s-3.27.57-4.86.86q-1.32.24-2.64.51Zm.05,2.37,0,1.8,2.44-.47c1.62-.29,3.25-.58,4.89-.85s3.29-.51,5-.73,3.4-.42,5.1-.59,3.46-.35,5.2-.48c1.41-.11,2.83-.21,4.28-.3l0-1.85c-1.43.08-2.86.18-4.28.29-1.75.14-3.47.29-5.17.47s-3.42.38-5.09.6-3.31.48-5,.75-3.27.57-4.87.86l-2.58.5Zm0,2.37,0,1.84,2.39-.46c1.61-.29,3.25-.57,4.9-.83s3.3-.5,5-.72,3.41-.43,5.1-.61,3.46-.34,5.21-.46l4.24-.27,0-1.91c-1.42.08-2.83.18-4.24.29-1.75.13-3.48.3-5.18.47s-3.42.38-5.09.6-3.31.46-5,.73-3.27.55-4.88.85c-.84.15-1.69.31-2.53.48Zm0,2.41,0,1.83L7.56,213c1.63-.3,3.26-.58,4.9-.85s3.3-.51,5-.73,3.39-.42,5.11-.59,3.47-.3,5.21-.42l4.2-.26,0-1.89-4.19.26c-1.75.12-3.48.28-5.19.46s-3.42.39-5.09.61-3.32.45-5,.71-3.26.54-4.88.83l-2.48.48Zm0,2.39,0,1.83c.76-.15,1.52-.29,2.29-.42,1.59-.27,3.21-.55,4.89-.82s3.31-.51,5-.72,3.4-.41,5.12-.58,3.47-.31,5.21-.43l4.16-.26,0-1.89-4.15.26c-1.76.12-3.49.26-5.2.42s-3.41.36-5.09.58-3.33.47-5,.73-3.27.55-4.88.85c-.81.14-1.62.3-2.42.45Zm0,2.4,0,1.83,2.24-.41c1.59-.27,3.22-.54,4.9-.8s3.34-.5,5-.71,3.37-.39,5.12-.56,3.48-.32,5.22-.44h0l1.48-.09,1.48-.09L31.9,215l0-1.91-4.11.26c-1.76.12-3.49.26-5.2.43s-3.42.36-5.1.57-3.32.46-5,.72l-4.89.82-2.37.44Zm0,2.4,0,1.84,2.18-.4c1.6-.27,3.22-.55,4.91-.81s3.33-.5,5-.7,3.38-.38,5.13-.55,3.47-.3,5.21-.41c1.35-.09,2.71-.17,4.08-.23l0-1.91-1.08.06-1.48.09-1.47.09h0c-1.76.12-3.5.27-5.21.44s-3.4.35-5.1.56-3.35.45-5,.7-3.25.53-4.9.81c-.77.13-1.55.27-2.32.42Zm0,2.41,0,1.83,2.13-.38c1.63-.28,3.27-.55,4.91-.8s3.32-.48,5-.68,3.39-.38,5.13-.54,3.48-.31,5.22-.42c1.33-.09,2.68-.17,4-.23l0-1.89c-1.35.06-2.7.14-4,.23-1.77.11-3.5.25-5.2.41s-3.4.34-5.11.55-3.35.44-5,.7-3.25.52-4.89.8c-.76.13-1.52.27-2.27.42Zm0,2.4,0,1.83L7.53,225c1.62-.28,3.26-.54,4.91-.78s3.32-.46,5-.66,3.39-.38,5.13-.54,3.49-.29,5.24-.39l4-.21,0-1.94c-1.33.06-2.66.14-4,.23-1.77.12-3.5.26-5.21.42s-3.41.34-5.12.54-3.32.42-5,.67-3.29.53-4.9.8l-2.22.4Zm0,2.4,0,1.84c.68-.13,1.35-.25,2-.36q2.45-.42,4.92-.78h0c1.65-.25,3.32-.47,5-.66s3.42-.38,5.14-.52,3.46-.28,5.24-.38c1.3-.07,2.62-.14,3.95-.19l0-1.91c-1.32.06-2.64.14-3.95.21-1.76.1-3.5.24-5.21.39s-3.42.34-5.13.54-3.33.42-5,.66-3.28.5-4.9.78L5.45,226Zm0,2.41,0,1.86,2-.34q2.45-.42,4.92-.78t5-.63c1.71-.19,3.43-.36,5.14-.51s3.46-.28,5.24-.38c1.29-.08,2.6-.14,3.91-.2l0-1.92c-1.31.05-2.61.12-3.91.19-1.75.1-3.49.23-5.22.38s-3.44.32-5.12.52-3.34.41-5,.65h0c-1.65.24-3.28.51-4.91.78l-2.11.38Zm0,2.43,0,1.86c.64-.12,1.29-.22,1.93-.33,1.64-.26,3.29-.51,4.93-.74s3.33-.44,5-.63,3.43-.35,5.15-.49,3.47-.27,5.25-.37l3.86-.2,0-1.94c-1.3,0-2.59.11-3.88.19-1.74.1-3.48.23-5.22.38s-3.45.32-5.13.51-3.34.4-5,.63-3.29.49-4.91.77l-2.06.36Zm0,2.42,0,1.84,1.88-.31c1.63-.26,3.28-.51,4.92-.74s3.34-.44,5-.63,3.43-.36,5.15-.5,3.47-.26,5.25-.36c1.26-.07,2.54-.13,3.83-.18l0-1.88-3.82.2c-1.75.1-3.49.22-5.23.37s-3.45.3-5.14.49-3.35.4-5,.63-3.3.48-4.92.74c-.67.1-1.34.22-2,.33Zm0,2.41,0,1.87q.91-.17,1.83-.3c1.64-.26,3.29-.52,4.93-.75s3.33-.44,5-.62,3.43-.35,5.15-.49,3.47-.25,5.25-.33c1.25-.06,2.51-.12,3.78-.16l0-1.95c-1.27,0-2.53.11-3.79.18-1.75.1-3.49.22-5.23.36s-3.45.31-5.14.5-3.35.4-5,.62-3.3.48-4.92.74l-1.95.33Zm0,2.44,0,1.9,1.77-.29c1.64-.26,3.29-.51,4.94-.73s3.34-.43,5-.61,3.44-.34,5.16-.48,3.47-.26,5.25-.34l3.74-.16,0-2c-1.26,0-2.51.1-3.75.16-1.75.08-3.5.19-5.24.33s-3.45.31-5.14.49-3.35.38-5,.62-3.31.48-4.92.74l-1.91.32Zm0,2.46,0,1.86,1.73-.27c1.61-.23,3.24-.48,4.94-.71s3.34-.44,5-.62,3.44-.33,5.16-.46,3.48-.24,5.26-.32c1.22-.06,2.45-.11,3.7-.15l0-1.94-3.7.16c-1.75.09-3.5.2-5.24.34s-3.46.3-5.15.48-3.35.38-5,.61-3.31.46-4.93.72l-1.85.3Zm0,2.43,0,1.88,1.66-.27c1.64-.26,3.29-.5,5-.73s3.34-.43,5-.6,3.44-.32,5.16-.44,3.48-.23,5.27-.31c1.2-.06,2.42-.1,3.65-.14l0-1.93q-1.85.06-3.66.15c-1.75.08-3.5.19-5.25.32s-3.45.28-5.15.46-3.35.39-5,.62-3.28.46-4.93.71l-1.8.28Zm0,2.45,0,1.86L7.46,247q2.42-.36,5-.69t5-.57c1.71-.17,3.44-.32,5.17-.44s3.48-.23,5.27-.31c1.19-.06,2.39-.1,3.61-.14l0-2-3.63.14c-1.75.08-3.5.18-5.25.31s-3.46.27-5.15.44-3.36.37-5,.6-3.3.47-4.93.73l-1.74.28Zm0,2.43,0,1.9,1.57-.24c1.61-.24,3.26-.47,5-.69s3.35-.41,5-.57,3.45-.31,5.18-.43,3.49-.22,5.27-.29l3.57-.11,0-2c-1.2,0-2.39.08-3.58.14-1.75.08-3.5.18-5.25.31s-3.47.27-5.16.44-3.37.36-5,.57-3.29.44-4.94.69l-1.69.26Zm0,2.47,0,1.9L7.44,252c1.62-.23,3.25-.46,5-.68s3.36-.42,5-.58,3.45-.3,5.18-.41,3.49-.2,5.28-.27l3.52-.11,0-2-3.54.11c-1.75.07-3.51.17-5.25.29s-3.48.27-5.17.43-3.37.35-5,.57-3.29.44-4.95.69l-1.64.25Zm.05,2.46,0,1.88,1.47-.22c1.64-.24,3.3-.47,5-.68s3.33-.39,5-.55,3.46-.29,5.19-.4,3.49-.21,5.28-.27c1.15-.05,2.31-.08,3.48-.11l0-1.93-3.49.11c-1.76.07-3.52.16-5.26.27s-3.47.25-5.17.41-3.37.36-5,.57-3.28.45-5,.69l-1.58.23Zm0,2.45,0,1.89,1.41-.2c1.66-.23,3.32-.45,5-.64s3.34-.39,5.06-.55,3.45-.3,5.19-.41,3.5-.2,5.29-.27h.15l1.49,0,1.5,0h.29l0-2c-1.15,0-2.31.06-3.45.11-1.77.06-3.52.15-5.27.27s-3.48.25-5.17.4-3.35.34-5,.55-3.32.44-5,.68L6,255.22Zm0,2.46,0,1.94,1.36-.2c1.66-.22,3.33-.44,5-.64s3.34-.38,5.05-.54,3.46-.31,5.2-.41,3.51-.19,5.3-.24l3.39-.08,0-2h-.28l-1.49,0-1.49,0H28c-1.77.07-3.52.16-5.27.27s-3.48.25-5.18.41-3.36.34-5,.54-3.34.43-5,.65q-.74.09-1.47.21Zm0,2.5,0,1.91,1.3-.19c1.66-.22,3.32-.44,5-.63s3.36-.38,5.06-.52,3.44-.27,5.2-.38,3.5-.18,5.3-.23l3.34-.08,0-2-3.37.08c-1.76.05-3.52.13-5.27.24s-3.48.24-5.18.4-3.36.35-5,.55-3.35.42-5,.64l-1.42.2Zm0,2.47,0,1.94,1.25-.17c1.66-.23,3.33-.44,5-.63s3.35-.37,5.07-.53,3.46-.27,5.21-.36,3.51-.16,5.3-.21l3.3-.07,0-2L28,260.7c-1.77.05-3.53.13-5.28.23s-3.46.23-5.19.38-3.38.32-5,.51-3.34.42-5,.64l-1.37.19Zm0,2.51,0,1.9,1.19-.16c1.67-.23,3.34-.45,5-.64s3.37-.38,5.07-.51,3.45-.25,5.21-.34,3.51-.16,5.31-.2c1.07,0,2.16,0,3.25-.06l0-2-3.28.07c-1.77.05-3.53.11-5.29.21s-3.48.21-5.18.36-3.36.33-5.05.52-3.34.41-5,.63l-1.32.19Zm0,2.47,0,1.94,1.14-.16c1.66-.22,3.32-.42,5-.6s3.38-.34,5.07-.48,3.45-.27,5.21-.36,3.52-.17,5.32-.21q1.59,0,3.21-.06l0-2q-1.63,0-3.24.06c-1.77,0-3.54.11-5.29.2s-3.47.2-5.19.34-3.39.31-5.06.5-3.35.42-5,.64l-1.26.18Zm0,2.51,0,1.92,1.09-.13c1.64-.21,3.29-.41,5-.6s3.38-.35,5.08-.49,3.45-.25,5.22-.35,3.52-.15,5.32-.18l3.16-.05,0-2c-1.07,0-2.13,0-3.19.06-1.78,0-3.54.11-5.3.21s-3.46.21-5.19.36-3.4.3-5.06.48-3.34.38-5,.6l-1.21.17Zm0,2.49,0,1.92,1-.15c1.66-.22,3.32-.43,5-.61s3.38-.34,5.08-.47,3.46-.23,5.23-.32,3.52-.15,5.32-.18l3.12,0,0-2-3.15.05c-1.78,0-3.54.09-5.3.18s-3.47.21-5.2.35-3.4.3-5.07.49-3.32.38-5,.59l-1.15.15Zm0,2.48,0,1.94,1-.13c1.64-.21,3.3-.4,5-.59s3.39-.33,5.09-.46,3.46-.23,5.23-.31,3.53-.13,5.33-.16l3.07,0,0-2-3.11,0c-1.77,0-3.54.09-5.3.18s-3.48.2-5.21.32-3.39.29-5.06.47-3.34.39-5,.61l-1.1.15Zm0,2.5,0,1.94.93-.12q2.46-.3,5-.57c1.7-.17,3.39-.32,5.1-.44s3.46-.23,5.23-.31S26.22,278,28,278l3,0,0-2L28,276c-1.78,0-3.54.09-5.3.17s-3.48.17-5.22.3-3.4.28-5.07.46-3.33.38-5,.59l-1,.13Zm0,2.51,0,2,.88-.11c1.64-.21,3.3-.41,5-.59s3.38-.34,5.1-.46,3.46-.21,5.23-.28,3.54-.12,5.34-.15l3,0,0-2-3,0c-1.78,0-3.55.08-5.31.15s-3.48.18-5.22.31-3.41.28-5.07.44-3.33.36-5,.57l-1,.13Zm.05,2.53,0,2,.82-.11c1.64-.2,3.31-.39,5-.55s3.4-.31,5.1-.43,3.46-.21,5.24-.28,3.53-.12,5.33-.15l2.95,0,0-2-3,0q-2.67,0-5.31.15c-1.75.07-3.49.17-5.23.28s-3.4.28-5.07.46-3.34.38-5,.58l-.93.12Zm0,2.51,0,2,.77-.09c1.64-.19,3.31-.37,5-.53s3.4-.31,5.11-.41,3.47-.2,5.24-.26,3.54-.11,5.35-.14l2.89,0,0-2.06c-1,0-2,0-2.93,0-1.79,0-3.56.07-5.32.14s-3.49.17-5.22.28-3.42.26-5.09.42-3.33.35-5,.56l-.88.11Zm0,2.53,0,2,.71-.09c1.65-.19,3.32-.37,5-.53s3.4-.3,5.11-.41,3.47-.19,5.25-.25,3.54-.11,5.34-.14c.95,0,1.9,0,2.86,0l0-2-2.88,0c-1.79,0-3.56.07-5.33.14s-3.49.15-5.22.25-3.42.25-5.09.41-3.34.34-5,.53l-.83.1Zm0,2.54,0,2,.67-.07c1.64-.19,3.31-.36,5-.51s3.41-.29,5.11-.4h0c1.72-.11,3.48-.18,5.25-.24s3.55-.09,5.35-.12h2.81l0-2.05c-.95,0-1.9,0-2.84,0-1.79,0-3.57.07-5.33.13s-3.5.15-5.24.26-3.41.25-5.09.41-3.34.34-5,.53l-.76.09Zm0,2.54,0,1.94.61-.07c1.67-.19,3.35-.35,5-.5s3.38-.26,5.12-.37,3.48-.18,5.26-.23,3.55-.08,5.35-.09h2.76l0-2c-.94,0-1.87,0-2.79,0-1.79,0-3.57.06-5.34.11s-3.5.13-5.24.24-3.43.24-5.1.39h0c-1.66.15-3.34.33-5,.52l-.72.08Zm0,2.51,0,2,.56-.06c1.68-.19,3.36-.36,5-.5s3.38-.27,5.12-.37,3.48-.17,5.26-.22,3.56-.06,5.36-.07c.9,0,1.81,0,2.72,0l0-2H28.07q-2.68,0-5.34.09c-1.75,0-3.5.12-5.24.23s-3.4.23-5.1.38-3.37.3-5,.49l-.66.08Zm0,2.54,0,2,.5-.06h0l1.4-.14,1.41-.14c2.43-.23,4.87-.41,7.34-.55,1.73-.1,3.49-.17,5.27-.21s3.55-.07,5.36-.08c.89,0,1.78,0,2.67,0l0-2c-.91,0-1.81,0-2.71,0-1.79,0-3.58,0-5.34.08s-3.51.11-5.25.21-3.4.22-5.1.36h0c-1.69.15-3.37.32-5,.51l-.61.07Zm0,2.53,0,2,.44-.05c1.69-.17,3.38-.34,5.05-.48s3.39-.26,5.13-.35,3.49-.15,5.27-.19,3.56-.06,5.37-.06h2.63l0-2.05H28.09c-1.8,0-3.58,0-5.35.08s-3.51.11-5.25.21q-3.7.21-7.32.55l-1.4.13-1.4.15h0l-.55.06Zm0,2.57,0,2,.4,0c1.68-.17,3.38-.34,5-.49s3.4-.26,5.14-.35,3.5-.13,5.28-.17,3.56-.05,5.37,0l2.58,0,0-2c-.88,0-1.75,0-2.62,0-1.8,0-3.58,0-5.35.06s-3.52.1-5.26.19-3.41.21-5.12.35-3.39.31-5,.48l-.49.05Zm0,2.54,0,2,.33,0c1.69-.17,3.38-.33,5.06-.46s3.4-.26,5.14-.34,3.5-.13,5.28-.15,3.57,0,5.38,0l2.53,0,0-2-2.57,0c-1.8,0-3.59,0-5.36,0s-3.52.09-5.26.18-3.42.2-5.12.35-3.39.31-5,.48l-.44,0ZM6.94,308l0,2,.28,0c1.7-.15,3.4-.31,5.06-.43s3.4-.25,5.14-.33,3.51-.13,5.29-.16,3.57,0,5.38,0c.83,0,1.65,0,2.48,0l0-2.09c-.84,0-1.69,0-2.52,0h0c-1.8,0-3.59,0-5.36,0s-3.52.07-5.26.15-3.42.2-5.13.34-3.39.29-5,.46l-.38,0Zm0,2.6,0,2,.23,0c1.7-.16,3.41-.31,5.06-.44s3.41-.24,5.15-.32,3.51-.13,5.3-.15,3.57,0,5.38,0l2.44.05,0-2.07-2.48,0c-1.81,0-3.6,0-5.37,0s-3.53.08-5.27.16-3.43.19-5.13.33-3.41.28-5,.43l-.33,0Zm0,2.57,0,1.95.17,0c1.69-.17,3.38-.31,5.07-.43s3.41-.22,5.16-.29,3.5-.12,5.29-.15,3.58,0,5.39,0l2.39.05,0-2-2.43-.05c-1.81,0-3.6,0-5.38,0s-3.53.07-5.27.15-3.43.19-5.14.33-3.41.28-5,.43l-.27,0Zm0,2.51,0,2.05.12,0c1.7-.15,3.39-.29,5.08-.41s3.41-.21,5.15-.28,3.52-.1,5.3-.12,3.58,0,5.4,0l2.34.05,0-2.12-2.4-.05q-2.72,0-5.37,0c-1.77,0-3.53.07-5.28.15s-3.43.17-5.14.29-3.39.26-5,.43l-.22,0Zm0,2.61,0,2h.07c1.69-.16,3.39-.29,5.07-.41s3.42-.21,5.16-.28,3.52-.11,5.31-.11,3.59,0,5.4,0l2.3.05,0-2.09-2.35-.05c-1.81,0-3.61,0-5.38,0s-3.54.06-5.29.12-3.43.16-5.14.28-3.4.26-5.06.41l-.16,0Zm0,2.6,0,2.05h0c1.7-.16,3.39-.3,5.08-.42s3.42-.21,5.17-.27,3.52-.09,5.31-.09,3.59,0,5.4.05l2.25,0,0-2.08-2.29-.05q-2.73,0-5.4,0c-1.77,0-3.53,0-5.28.11s-3.44.16-5.15.28-3.41.25-5.06.4Zm0,2.61,0,2c1.67-.15,3.35-.28,5-.39s3.43-.19,5.18-.26,3.52-.08,5.31-.08,3.59,0,5.41,0l2.2.05,0-2.09-2.24,0c-1.82,0-3.62-.05-5.4-.05s-3.54,0-5.29.09-3.44.16-5.16.28-3.4.25-5.06.41Zm0,2.61,0,2c1.64-.13,3.3-.26,5-.36s3.43-.2,5.17-.25,3.53-.08,5.33-.08,3.59,0,5.41.07l2.16.06,0-2.1-2.21-.05c-1.82,0-3.62,0-5.4,0s-3.54,0-5.29.08-3.45.15-5.16.26-3.4.25-5.06.4Zm0,2.57,0,2c1.62-.13,3.26-.25,4.94-.35s3.42-.2,5.18-.25S21,330,22.79,330s3.6.05,5.42.09h0l2.11.06,0-2.09L28.19,328c-1.82,0-3.62-.07-5.4-.07s-3.55,0-5.31.08-3.44.14-5.15.25-3.35.23-5,.36Zm.05,2.61,0,2.07c1.6-.12,3.23-.23,4.88-.33s3.43-.19,5.19-.23,3.53-.06,5.33,0,3.6,0,5.42.08l2.06.06,0-2.12-2.11-.06c-1.82,0-3.63-.08-5.41-.09s-3.55,0-5.31.06-3.44.14-5.16.25-3.31.23-5,.36Zm0,2.64,0,2c1.59-.13,3.2-.23,4.84-.32s3.43-.16,5.19-.21,3.53-.06,5.33-.05,3.61,0,5.43.09q1,0,2,.06l0-2.06-2.06-.06c-1.83,0-3.63-.07-5.42-.08s-3.55,0-5.31.05-3.45.13-5.16.23-3.28.21-4.91.34Zm0,2.57,0,2,1.16-.09,1.43-.1q3.64-.22,7.39-.3h.21l1.48,0h1.48c2.5,0,5,0,7.6.11l2,.07,0-2.13c-.68,0-1.35-.05-2-.06-1.82-.05-3.63-.08-5.41-.09s-3.56,0-5.32.05-3.46.12-5.17.21-3.24.19-4.86.32Zm0,2.61,0,2.05c1.56-.11,3.14-.2,4.73-.28s3.45-.14,5.2-.18,3.54,0,5.34,0,3.61.07,5.44.13l1.92.07,0-2.12-2-.07q-3.84-.14-7.58-.11H19.16l-1.47,0h-.21c-2.48.05-4.93.15-7.37.3l-1.42.1-1.19.09Zm0,2.61,0,2.07c1.54-.1,3.1-.19,4.68-.26s3.45-.15,5.2-.18,3.55,0,5.35,0,3.61.09,5.44.15l1.87.07,0-2.12-1.93-.08c-1.83-.05-3.64-.1-5.42-.12s-3.57,0-5.33,0-3.46.1-5.18.18-3.17.17-4.75.28Zm0,2.64,0,2c1.53-.1,3.07-.19,4.64-.26s3.45-.13,5.21-.15,3.54,0,5.34,0,3.62.07,5.45.13l1.82.08,0-2.09L28.24,344c-1.83-.06-3.64-.12-5.43-.15s-3.57,0-5.33,0-3.46.1-5.18.18-3.14.16-4.7.27Zm0,2.61,0,2.07c1.51-.1,3-.18,4.58-.25,1.72-.07,3.45-.12,5.21-.15s3.56,0,5.36,0,3.62.11,5.45.19l1.77.08,0-2.16-1.83-.08c-1.83-.06-3.64-.1-5.43-.13s-3.58,0-5.34,0-3.47.08-5.19.15q-2.32.1-4.65.27Zm.05,2.64,0,2.11c1.49-.1,3-.19,4.53-.26,1.72-.07,3.45-.12,5.21-.14s3.56,0,5.36,0,3.63.1,5.46.18l1.73.08,0-2.12-1.79-.08c-1.84-.08-3.65-.15-5.44-.19s-3.58-.05-5.34,0-3.47.08-5.19.15c-1.54.07-3.07.15-4.6.26Zm0,2.67,0,2c1.47-.09,3-.18,4.47-.25,1.72-.08,3.46-.13,5.23-.14s3.56,0,5.36.05,3.63.12,5.46.19l1.68.09,0-2.09-1.74-.08c-1.84-.08-3.66-.14-5.45-.18s-3.58-.05-5.34,0-3.47.07-5.2.14c-1.51.07-3,.16-4.54.26Zm0,2.6,0,2.09c1.46-.08,2.94-.15,4.43-.21,1.72-.07,3.47-.11,5.23-.12s3.56,0,5.36.06,3.64.11,5.47.19l1.63.08,0-2.15-1.69-.08c-1.84-.08-3.66-.15-5.45-.19s-3.59-.07-5.35-.06-3.48.06-5.2.14c-1.5.07-3,.16-4.49.25Zm0,2.65,0,2.15c3.47-.16,7-.24,10.59-.24s7.2.07,10.83.22l.61,0,0-2.15-1.64-.08c-1.84-.08-3.66-.15-5.46-.19s-3.59-.07-5.35-.06-3.49.06-5.21.12l-4.44.21Zm0,2.71,0,2.14q5.19-.17,10.55-.16H19.9l3,0,3,.05c1.34,0,2.69.06,4,.1l0-2.15-.62,0C25.64,360,22,360,18.46,360s-7.1.08-10.58.24Zm0,2.7,0,2.29c3.44-.09,7-.14,10.5-.14s7.19,0,10.81.12l.54,0,0-2.28c-1.34,0-2.69-.08-4-.1l-3-.05-3,0H18.47c-3.56,0-7.08.05-10.54.16ZM8,365.76v.47l21.81.4v-.87l-.54,0c-3.62-.08-7.23-.12-10.8-.12s-7,.05-10.49.14Z"/><path class="cls-3" d="M7.6,344.26l.12,7A141.07,141.07,0,0,1,30,351l.1-7a176.4,176.4,0,0,0-22.53.2Z"/><path class="cls-3" d="M7,312.42l.08,4.47a226.32,226.32,0,0,1,23.41-.77l.06-4.59A231.4,231.4,0,0,0,7,312.42Z"/><path class="cls-3" d="M6.27,271.48l.14,8.14a166.53,166.53,0,0,1,24.64-1.73l.11-8.33c-6.67.17-19.27,1.18-24.89,1.92Z"/><path class="cls-3" d="M4.76,187.4l.14,8.73a142.28,142.28,0,0,1,27.28-3.72c0-3.57.08-6.79.11-9.62-2.34.26-17.08,1.39-27.53,4.61Z"/><path class="cls-3" d="M5.62,235l.09,5.41A207.58,207.58,0,0,1,31.59,238l.08-5.74a215.45,215.45,0,0,0-26,2.71Z"/><path class="cls-3" d="M3.92,152.67l.16,6.27c5.82-1.7,16.06-3.55,28.49-4.75q0-3.47.07-7c-5.15.57-18.9,2.28-28.72,5.5Z"/><path class="cls-3" d="M3.53,96.36v11.06a180.72,180.72,0,0,1,29.37-6c0-4,0-8,0-11.81-5.5.11-22.94,3.88-29.37,6.76Z"/><path class="cls-2" d="M.48,130.75v.58c.93-.27,1.87-.55,2.82-.81l.06,0,0-.58-.19.05c-.89.26-1.78.51-2.67.78Zm0,2.28v.58l2.8-.81.13,0v-.58l-.27.08L.48,133Zm0,2.25v.58l2.79-.79.2-.06v-.57l-.34.09-2.64.75Zm0,2.25v.58l2.78-.79.27-.07,0-.58-.4.11c-.88.24-1.75.49-2.63.75Zm0,2.28v.58l2.77-.79.34-.09,0-.58-.47.13c-.88.24-1.75.49-2.62.75Zm0,2.24v.59l2.76-.78.4-.11v-.58l-.54.15-2.61.73Zm0,2.27v.58c.9-.26,1.82-.51,2.74-.76L3.7,144v-.57l-.61.16-2.6.72Zm0,2.28v.58c.9-.25,1.81-.51,2.73-.75l.55-.15,0-.58-.67.18-2.59.72Zm0,2.28v.59c.9-.26,1.81-.5,2.72-.74l.62-.17,0-.57-.74.19-2.58.7Zm0,2.31v.58c.89-.25,1.79-.5,2.71-.74l.68-.19v-.57l-.82.21-2.56.71Zm0,2.29v.58q1.35-.37,2.7-.72l.75-.19v-.57L3,152.8l-2.56.68Zm0,2.31v.58l2.69-.73.82-.21v-.58l-1,.25-2.54.69Zm0,2.26v.58l2.67-.71.9-.23,0-.57-1,.26-2.53.67Zm0,2.32V161c.89-.24,1.78-.48,2.66-.7l1-.25,0-.57L3,159.7l-2.52.67Zm0,2.26v.58l.6-.15c1-.28,2.05-.55,3.08-.8v-.58c-1.08.27-2.15.54-3.22.83l-.45.12Zm0,2.33v.58l2.63-.68,1.1-.27V164l-1.23.3L.49,165Zm0,2.32v.58c.86-.23,1.73-.46,2.62-.68l1.17-.29v-.57l-1.3.32c-.83.2-1.66.42-2.48.64Zm0,2.31v.58l2.6-.67,1.25-.31,0-.57L3,169l-2.47.64Zm0,2.31v.58c.85-.23,1.72-.45,2.59-.67l1.32-.33,0-.57L3,171.26l-2.46.64Zm0,2.38v.58q1.28-.35,2.58-.66l1.39-.34,0-.58-1.5.37c-.82.21-1.64.41-2.45.63Zm0,2.29v.57L1,177c1.16-.3,2.33-.58,3.52-.85l0-.58c-1.22.28-2.43.58-3.64.89l-.37.1Zm0,2.34v.58l.49-.13H1c1.2-.3,2.39-.59,3.6-.87l0-.57c-1.25.28-2.48.58-3.71.9h0l-.36.09Zm0,2.36v.58L3,181.21l1.61-.38,0-.57-1.72.41c-.81.19-1.61.4-2.41.6Zm0,2.34v.57L3,183.57l1.66-.38v-.58L2.89,183c-.8.19-1.6.38-2.4.59Zm0,2.29v.58L3,185.87l1.71-.4v-.57l-1.83.42-2.39.58Zm0,2.38v.58L3,188.25l1.76-.4v-.58l-1.88.43-2.38.58Zm0,2.36v.58L3,190.6l1.83-.41v-.58q-1,.21-1.95.45c-.78.18-1.57.38-2.36.58Zm0,2.35v.58L3,193l1.88-.42V192c-.67.14-1.33.29-2,.45L.49,193Zm0,2.38V196L3,195.36l1.93-.44v-.57l-2,.46-2.34.56Zm0,2.35v.58L3,197.72l2-.43v-.57l-2.1.46c-.78.17-1.56.35-2.33.54Zm0,2.36v.58c.81-.2,1.63-.38,2.44-.57L5,199.65v-.57l-2.16.47-2.32.53Zm0,2.36V203l2.43-.56L5,202v-.57l-2.21.47-2.31.53Zm0,2.39v.57l.34-.07c1.4-.33,2.82-.64,4.23-.92v-.57c-1.46.29-2.91.61-4.35.94l-.21.05Zm0,2.37v.58l.32-.07c1.43-.33,2.86-.64,4.3-.93v-.57c-1.49.3-3,.61-4.41.95l-.2,0Zm0,2.37v.57l2.39-.52,2.27-.47v-.57l-2.37.49-2.28.5Zm0,2.41v.58L2.87,212l2.32-.48V211l-2.43.49L.49,212Zm0,2.4V215c.79-.18,1.57-.35,2.36-.51L5.24,214v-.56c-.84.16-1.67.32-2.49.5l-2.25.49Zm0,2.38v.57l2.35-.5h0q1.2-.26,2.43-.48v-.57l-2.54.5h0l-2.24.48Zm0,2.4v.57l.25,0c1.52-.33,3.05-.65,4.58-.94v-.56c-1.57.29-3.14.61-4.69.95l-.13,0Zm0,2.43v.58c.78-.18,1.56-.34,2.33-.5s1.69-.35,2.55-.51v-.57c-.89.16-1.77.34-2.65.53l-2.22.47Zm0,2.4v.58l2.31-.5,2.6-.51V223q-1.35.25-2.7.54L.5,224Zm0,2.4V227l.2-.05c1.58-.34,3.16-.66,4.75-1v-.57c-1.63.3-3.25.63-4.86,1l-.08,0Zm0,2.4v.57l2.28-.47c.9-.18,1.8-.36,2.72-.52v-.57q-1.41.25-2.82.54c-.73.14-1.45.29-2.17.45Zm0,2.44v.58c.75-.17,1.51-.32,2.27-.47.92-.19,1.85-.37,2.77-.54v-.57c-1,.18-1.92.36-2.87.56l-2.16.44Zm0,2.41v.58l2.26-.47,2.83-.53,0-.56c-1,.17-1.95.35-2.92.54l-2.15.44ZM.5,236v.57l.14,0c1.65-.34,3.32-.65,5-.94v-.57c-1.71.29-3.41.62-5.09,1Zm0,2.43V239l2.23-.43c1-.19,2-.37,2.94-.53v-.57c-1,.17-2,.36-3,.55l-2.13.41Zm0,2.46v.58l2.22-.44,3-.53V240q-1.56.25-3.09.54l-2.12.41Zm0,2.43v.57c.74-.15,1.47-.29,2.21-.42,1-.19,2-.37,3.05-.54v-.57c-1,.17-2.1.36-3.14.55l-2.11.41Zm0,2.45v.57L2.69,246c1-.18,2.07-.37,3.12-.54v-.57l-3.21.56-2.09.4Zm0,2.44v.57l2.18-.42c1-.2,2.1-.38,3.17-.55v-.57c-1.09.18-2.17.37-3.26.57l-2.08.4Zm0,2.45v.57H.56c1.76-.34,3.54-.66,5.33-.94v-.57c-1.8.29-3.6.6-5.38.95Zm0,2.45v.57l2.16-.4c1.09-.19,2.18-.37,3.28-.54v-.56c-1.13.17-2.26.35-3.37.55-.69.12-1.37.24-2.06.38Zm0,2.47v.57h0q2.7-.52,5.45-1v-.57c-1.83.29-3.66.61-5.47,1Zm0,2.44v.58l2.13-.4c1.13-.2,2.26-.38,3.4-.55v-.57c-1.17.18-2.34.37-3.49.57l-2,.37Zm0,2.5v.57l2.12-.38c1.15-.2,2.3-.39,3.45-.56v-.56c-1.19.17-2.37.37-3.54.57l-2,.36ZM.5,263v.57l2.1-.38c1.17-.2,2.34-.39,3.52-.57v-.56c-1.21.18-2.41.37-3.6.58q-1,.16-2,.36Zm0,2.46v.57c.69-.13,1.39-.25,2.09-.36,1.18-.19,2.38-.37,3.57-.54v-.57c-1.22.18-2.44.36-3.65.56l-2,.34ZM.5,268v.57l2.07-.36c1.21-.2,2.42-.38,3.64-.56v-.57c-1.25.18-2.49.38-3.72.58L.5,268Zm0,2.51v.57l2.06-.36c1.22-.2,2.46-.39,3.69-.56v-.57c-1.26.18-2.52.38-3.77.58l-2,.34Zm0,2.45v.57q2.88-.5,5.8-.88v-.57q-2.91.39-5.79.88Zm0,2.51V276l2-.34c1.26-.2,2.53-.39,3.8-.57v-.56c-1.3.18-2.59.37-3.88.58l-1.95.32Zm0,2.5v.57l2-.34c1.28-.2,2.56-.4,3.87-.57v-.56c-1.31.17-2.63.36-3.94.58L.5,278Zm0,2.51V281l2-.34c1.29-.21,2.6-.4,3.92-.57v-.57c-1.33.18-2.66.38-4,.59l-1.92.32ZM.5,283v.57c2-.34,4-.63,6-.9v-.56q-3,.39-6,.89Zm0,2.51v.57q3-.51,6-.9v-.56q-3,.38-6,.89Zm0,2.52v.57l2-.31c1.35-.21,2.72-.41,4.1-.58v-.56c-1.39.17-2.78.36-4.17.58L.51,288Zm0,2.52v.57l2-.31c1.38-.2,2.77-.39,4.16-.56v-.56c-1.43.17-2.84.36-4.24.57l-1.86.29Zm0,2.53v.57c.64-.11,1.29-.21,1.94-.3,1.4-.21,2.8-.4,4.21-.56v-.57c-1.44.17-2.87.36-4.28.57l-1.86.29Zm0,2.52v.57l1.93-.3c1.41-.21,2.84-.41,4.27-.57v-.57c-1.46.17-2.91.37-4.35.59l-1.84.28Zm0,2.52v.57l1.91-.29c1.44-.21,2.88-.4,4.33-.56v-.57c-1.47.17-2.94.36-4.4.57l-1.83.28Zm0,2.54v.57l1.9-.29c1.45-.21,2.92-.4,4.39-.57v-.56c-1.5.16-3,.36-4.46.57l-1.82.28Zm0,2.55v.56l1.89-.27c1.47-.21,2.95-.4,4.45-.56v-.56c-1.52.16-3,.35-4.52.56-.61.08-1.21.17-1.81.27Zm0,2.53v.57c.62-.1,1.25-.19,1.87-.27,1.5-.21,3-.4,4.51-.56v-.56c-1.53.16-3.06.35-4.57.56l-1.8.26Zm0,2.51v.57l1.86-.27c1.51-.21,3-.4,4.57-.56v-.56c-1.56.16-3.1.35-4.64.56l-1.78.26Zm0,2.55v.57l1.84-.26c1.54-.2,3.08-.37,4.63-.52V310c-1.58.15-3.15.32-4.7.53l-1.77.24Zm0,2.55v.56l1.83-.23c1.57-.2,3.13-.37,4.69-.52v-.56c-1.61.15-3.19.32-4.75.52l-1.76.23Zm0,2.57v.56c2.18-.31,4.36-.58,6.57-.81v-.56q-3.31.35-6.56.81Zm0,2.57V319l1.8-.25c1.59-.2,3.2-.38,4.81-.53v-.56c-1.63.15-3.25.33-4.87.54l-1.73.23Zm0,2.6v.57l1.79-.24c1.61-.2,3.23-.39,4.87-.54v-.56c-1.65.15-3.3.34-4.93.54l-1.72.23Zm0,2.58v.57q3.33-.44,6.71-.75v-.56q-3.39.3-6.7.74Zm0,2.61v.57l1.76-.23c1.67-.2,3.33-.37,5-.52h0v-.57h0c-1.7.15-3.37.33-5,.53-.57.06-1.13.14-1.7.21Zm0,2.54v.57l1.75-.22c1.65-.19,3.31-.36,5-.49h.06v-.56H7.2c-1.68.13-3.35.3-5,.5l-1.68.2Zm0,2.6V332l1.74-.21c1.65-.19,3.31-.36,5-.49h.12v-.57l-.15,0c-1.68.13-3.35.3-5,.49l-1.67.2Zm0,2.59v.57l1.72-.2c1.65-.17,3.32-.32,5-.45h.18v-.57l-.21,0c-1.68.13-3.35.28-5,.46L.51,334Zm0,2.61v.56l1.71-.2c1.65-.18,3.31-.34,5-.47l.23,0v-.56l-.26,0c-1.68.13-3.36.29-5,.48l-1.64.19Zm0,2.6v.57q3.33-.4,6.7-.67h.07l.22,0v-.56H7.17q-3.36.27-6.66.66Zm0,2.61v.56l1.67-.2c1.66-.18,3.33-.34,5-.46l.35,0v-.57l-.37,0c-1.69.12-3.37.28-5,.46l-1.61.2Zm0,2.6V345l1.66-.19c1.65-.17,3.32-.32,5-.44l.41,0v-.57l-.44,0c-1.68.12-3.36.27-5,.45l-1.6.17Zm0,2.59v.56q3.3-.36,6.66-.59l.46,0v-.57l-.48,0q-3.35.22-6.63.59Zm0,2.65v.56L2.15,350c1.66-.17,3.33-.31,5-.43l.51,0V349l-.54,0c-1.69.12-3.37.26-5,.43l-1.58.17Zm0,2.66v.57q3.29-.36,6.65-.59l.57,0v-.56l-.6,0c-2.22.15-4.43.34-6.61.58Zm0,2.58v.56c.53-.06,1.07-.1,1.6-.15,1.65-.15,3.33-.28,5-.4l.63,0v-.56l-.66,0c-1.68.11-3.36.24-5.05.4-.52,0-1,.09-1.55.15Zm0,2.64v.56l1.59-.16c1.66-.16,3.34-.29,5-.39l.69,0v-.56l-.71,0c-1.69.1-3.38.23-5.05.39l-1.54.16Zm0,2.57v.56l1.1-.08,2.8-.19c1.15-.07,2.3-.13,3.46-.18v-.56q-1.75.08-3.48.18L1.58,360l-1.06.08Zm0,2.59v.57c2.43-.15,4.89-.26,7.39-.35h0v-.56h0q-3.75.13-7.37.34Zm0,2.78V366c2.43-.12,4.89-.22,7.39-.28H8v-.56H7.89q-3.75.09-7.37.27Zm0,2.66v.56l2.3-.07,2.76-.07h0c4.21-.1,8.52-.15,12.89-.15H21l2.91,0,2.92,0q4.64.06,9.29.18v-.56c-3.09-.08-6.19-.14-9.28-.18l-2.93,0-2.91,0H18.47c-4.38,0-8.69.05-12.9.15l-2.77.07-2.28.07Zm0,2.66v.56L8,371.27q5.22,0,10.58,0c3.57,0,7.18,0,10.79,0l6.8.05v-.56l-6.8-.06-10.79,0q-5.35,0-10.58,0l-7.44.08Zm0,2.89v.56c2.15,0,7.32-.12,12.59-.17,4,0,8.72-.07,13.65-.06,3.06,0,6.21,0,9.37.06v-.56c-3.16,0-6.31-.06-9.37-.06-4.93,0-9.61,0-13.65.06-6.61.06-10.78.13-12.59.17Zm33.63-326,0-.23,0-.26v-.07l-1.92.36h-.08l.06.56.13,0,1.89-.35ZM32.3,50.26l2.84-.53,0-.57-2.86.54c0,.19,0,.37,0,.56Zm.12,2.2,2.77-.5v-.57l-2.79.51,0,.56Zm.08,2.17,2.74-.49v-.56l-2.75.49,0,.56Zm.07,2.21,2.72-.46v-.57l-2.72.46v.57Zm.06,2.21,2.71-.46V58l-2.72.46,0,.56Zm0,2.21,2.72-.47v-.56l-2.72.47v.56Zm0,2.21L35.45,63l0-.57-2.72.47v.57Zm0,2.18,2.75-.47,0-.56-2.74.47v.56Zm0,2.23c.91-.17,1.84-.33,2.77-.48v-.57c-.93.16-1.85.31-2.77.48v.57Zm0,2.21,2.79-.46v-.56q-1.41.21-2.79.45v.57Zm0,2.25,2.79-.45v-.57l-2.78.45v.57Zm0,2.22,2.78-.45v-.57L32.84,74v.57Zm0,2.24,2.78-.43V75.8l-2.78.44v.56Zm0,2.26,2.78-.44v-.56l-2.78.43v.57Zm0,2.23,2.79-.44v-.57c-.93.14-1.86.29-2.78.45v.56Zm0,2.25c.92-.15,1.85-.28,2.79-.42v-.57l-2.8.43v.56Zm0,2.26,2.81-.41v-.56c-.93.12-1.87.26-2.8.41v.56Zm0,2.25c.93-.14,1.87-.29,2.81-.42v-.57l-2.81.42v.57Zm0,2.26,2.83-.41v-.56c-.94.12-1.88.26-2.82.4v.57Zm0,2.3c.94-.15,1.89-.28,2.84-.42v-.56c-1,.13-1.9.26-2.84.41v.57Zm0,2.25,2.86-.41v-.57l-2.85.41v.57Zm0,2.28,2.87-.42v-.57l-2.87.42v.57Zm0,2.26L35.79,99v-.56l-2.88.4v.57Zm0,2.25c1-.14,1.93-.26,2.9-.38v-.57l-2.9.38v.57Zm0,2.33c1-.13,1.93-.27,2.91-.39V103l-2.9.38V104Zm0,2.28,2.92-.4v-.57l-2.92.4v.57Zm0,2.26c1-.14,2-.26,2.93-.38v-.57l-2.93.38v.57Zm0,2.29,2.94-.38v-.57l-2.93.38v.57Zm0,2.32,3-.38v-.56c-1,.11-2,.24-3,.38v.56Zm0,2.31,3-.37v-.56c-1,.11-2,.24-3,.36v.57Zm0,2.28c1-.13,2-.26,3-.37v-.57l-3,.37v.57Zm0,2.3,3-.37v-.56c-1,.11-2,.24-3,.37V120Zm0,2.33,3-.37v-.57l-3,.38v.56Zm0,2.32,3-.36v-.56c-1,.11-2,.23-3,.36v.56Zm0,2.31,3-.35v-.56l-3,.35V127Zm0,2.36,3.06-.35v-.57l-3.06.35v.57Zm0,2.34,3.08-.35v-.56c-1,.11-2.06.22-3.08.35v.56Zm0,2.31,3.09-.34v-.56c-1,.1-2.07.22-3.09.34V134Zm0,2.36c1-.12,2.08-.24,3.12-.34v-.57l-3.12.34v.57Zm0,2.3,3.14-.32v-.57l-3.13.33v.56Zm0,2.35h0l3.11-.34v-.56l-3.15.34V141Zm0,2.34h.08l3.09-.31v-.56l-3.15.31h0v.56Zm0,2.32h.11l3.09-.31v-.56l-3.15.31h-.05v.56Zm0,2.36.14,0c1-.1,2-.21,3.08-.3v-.56c-1.05.09-2.09.2-3.14.31h-.08V148Zm0,2.39.17,0c1-.11,2-.21,3.07-.3v-.57l-3.12.31h-.12v.57Zm0,2.36.2,0c1-.11,2-.2,3.07-.29v-.56c-1,.08-2.09.19-3.12.29l-.15,0v.56Zm0,2.37,3.29-.31v-.57l-3.29.31v.57Zm0,2.36.28,0c1-.09,2-.19,3-.27v-.56l-3.09.27-.22,0v.56Zm0,2.38.31,0,3-.26V159l-3.09.28-.25,0v.56Zm0,2.36.35,0c1-.09,2-.19,3-.27v-.56c-1,.08-2,.18-3.08.27l-.28,0v.56Zm0,2.37,3.39-.28v-.57l-3.39.29v.56Zm0,2.4.42,0,3-.24v-.56c-1,.07-2,.15-3,.24l-.36,0V167Zm0,2.36.45,0q1.5-.14,3-.24v-.57l-3.05.25-.39,0v.57Zm0,2.45.49,0c1-.09,2-.17,3-.24V171q-1.53.11-3,.24l-.44,0v.56Zm0,2.38.53,0,3-.23v-.57l-3,.24-.47,0v.56Zm0,2.41c1.17-.1,2.35-.19,3.53-.27v-.56l-3.53.26v.57Zm0,2.42.6,0c1-.08,2-.15,3-.21v-.56q-1.52.09-3,.21l-.55,0V179Zm0,2.39.63,0,3-.2v-.57l-3,.21-.59.05v.56Zm0,2.42.67-.05,2.94-.2V183l-3,.2-.62.05v.56Zm0,2.42.72,0,2.93-.2v-.56l-3,.2-.67,0v.56Zm0,2.41.75,0c1-.07,2-.13,2.92-.18v-.56c-1,.05-2,.11-2.95.18h0l-.71,0v.57Zm0,2.45c1.23-.09,2.46-.17,3.7-.24v-.56c-1.24.07-2.48.15-3.7.24v.56Zm0,2.44.83-.06,2.91-.16v-.56l-2.94.16-.8.05v.57Zm0,2.43.88-.06,2.89-.16v-.57l-2.93.17-.84.06V196Zm0,2.43c.3,0,.61,0,.92-.06l2.88-.16v-.56L33,197.8l-.89,0v.57Zm0,2.45,1-.06q1.44-.09,2.88-.15v-.57l-2.91.16-.93.06v.56Zm0,2.44c.33,0,.67,0,1-.06,1-.06,1.91-.11,2.87-.15v-.56c-1,0-1.94.09-2.9.15l-1,.05v.57Zm0,2.42,1-.07,2.86-.14V205L33,205.1l-1,.06v.57Zm0,2.48,1.1-.06,2.84-.13v-.56l-2.87.13-1.06,0v.57Zm0,2.45,1.14-.06,2.84-.14v-.56l-2.87.14-1.1.06v.56Zm0,2.45,1.19-.06c.93-.05,1.88-.1,2.82-.13v-.57l-2.85.14-1.15.06v.56Zm0,2.47c1.34-.07,2.69-.13,4-.18v-.56c-1.35,0-2.7.11-4,.18v.56Zm0,2.47,1.27-.06,2.81-.1v-.56l-2.83.1-1.25.06v.56Zm0,2.45,1.32-.06c.93,0,1.86-.07,2.8-.09v-.57l-2.82.1-1.29.06v.56Zm0,2.5,1.36-.06,2.79-.09v-.56c-.94,0-1.88.06-2.81.1l-1.33.05V223Zm0,2.47,1.41-.06,2.78-.08v-.56l-2.8.08-1.38.06v.56Zm0,2.49,1.45-.06,2.77-.08v-.56l-2.79.08-1.43,0V228Zm0,2.5,1.51-.06c.91,0,1.83-.07,2.75-.09v-.56c-.93,0-1.86.05-2.77.09l-1.48.06v.56Zm0,2.44,1.55-.05,2.75-.07v-.56l-2.76.07-1.52.05v.56Zm0,2.51,1.59-.06c.91,0,1.82,0,2.74-.06v-.56c-.92,0-1.84,0-2.75.06l-1.58.06v.56Zm0,2.51,1.64,0,2.73-.08v-.56l-2.74.08-1.62.05v.56Zm0,2.5,1.69,0,2.72-.05v-.56l-2.73.05-1.66.05v.56Zm0,2.49,1.73,0,2.71,0v-.56l-2.72,0-1.72,0v.56Zm0,2.52,1.78,0,2.7,0v-.56l-2.71,0-1.76,0v.56Zm0,2.54,1.83,0c.89,0,1.78,0,2.69,0v-.57l-2.69,0-1.81,0V248Zm0,2.52,1.88-.05,2.68,0v-.56l-2.69,0-1.86.05v.56Zm0,2.49.84,0,2.17,0H36v-.56H34.39l-2.17,0-.82,0V253Zm0,2.53c1.52,0,3.07,0,4.62,0v-.57c-1.55,0-3.09,0-4.62,0v.56Zm0,2.56,2,0L36,258v-.56l-2.66,0-2,0v.56Zm0,2.55,2.06,0,2.64,0V260l-2.65,0-2.05,0v.56Zm0,2.56,2.11,0H36v-.56H33.36l-2.1,0v.56Zm0,2.53,2.15,0H36v-.56H33.37l-2.15,0v.56Zm0,2.55h2.21c.86,0,1.73,0,2.61,0v-.57H33.39l-2.2,0v.56Zm0,2.56H36v-.56H31.15v.56Zm0,2.52H36v-.56H31.12v.56Zm0,2.59H36v-.56H31.08v.56Zm0,2.55h2.4l2.57,0V278l-2.56,0h-2.4v.56ZM31,281h2.45l2.56,0v-.56l-2.55,0H31V281Zm0,2.58h2.5l2.55.05v-.56l-2.55-.05H31v.56Zm0,2.62,2.55,0,2.54.05v-.56l-2.53-.06-2.55,0v.56Zm0,2.56,2.6,0,2.52.07v-.56l-2.51-.07-2.6,0v.56Zm0,2.61,2.65,0,2.52.06V291l-2.51-.06-2.65,0v.56Zm0,2.6,2.69,0,2.51.06v-.56l-2.5-.06-2.7,0V294Zm0,2.59c.91,0,1.83,0,2.75,0l2.5.07v-.56l-2.49-.07c-.92,0-1.84,0-2.75,0v.56Zm0,2.58,2.8.05,2.49.09v-.56l-2.47-.09-2.81-.05v.56Zm0,2.61,2.84.06,2.48.09v-.57l-2.46-.08-2.85-.06v.56Zm0,2.6,2.9.07,2.46.09V304c-.81,0-1.63-.06-2.45-.09l-2.9-.07v.56Zm0,2.59,3,.08,2.46.1v-.56l-2.44-.1-3-.08V307Zm0,2.65,3,.08,2.44.11v-.56l-2.42-.11-3-.08v.56Zm0,2.63,3,.09,2.43.1v-.56l-2.41-.1-3.06-.09v.56Zm0,2.55c1,0,2.05.06,3.09.1l2.43.11v-.56l-2.41-.11c-1,0-2.08-.08-3.11-.1v.56Zm0,2.68c1,0,2.09.06,3.14.1l2.42.11v-.56L33.67,317c-1.06,0-2.11-.08-3.17-.1v.56Zm0,2.65,3.2.12,2.4.12v-.56l-2.37-.12-3.22-.12v.56Zm0,2.64c1.08,0,2.16.08,3.25.13l2.4.12v-.56c-.8,0-1.58-.09-2.37-.12-1.1-.05-2.18-.1-3.27-.13v.56Zm0,2.65,3.29.14,2.39.14v-.56L33.71,325c-1.11-.06-2.21-.1-3.32-.14v.56Zm0,2.66,3.35.14,2.37.13v-.56l-2.34-.13-3.37-.14v.56Zm0,2.65c1.13,0,2.26.1,3.41.16.78,0,1.56.08,2.36.14v-.57l-2.34-.13c-1.14-.06-2.28-.12-3.42-.16v.56Zm0,2.68,3.46.15,2.35.13v-.56L33.76,333l-3.48-.15v.56Zm0,2.62c1.15,0,2.32.1,3.5.18l2.34.15v-.56l-2.31-.16c-1.18-.07-2.35-.13-3.53-.17V336Zm0,2.69,3.55.18,2.34.16v-.56l-2.3-.16-3.58-.18v.56Zm0,2.68c1.19,0,2.39.12,3.61.2l2.32.15v-.56c-.76-.06-1.53-.11-2.29-.15-1.21-.08-2.42-.15-3.63-.2v.56Zm0,2.68c1.21.05,2.43.12,3.66.2l2.31.17v-.57l-2.27-.16c-1.24-.08-2.47-.15-3.69-.2v.56Zm0,2.65c1.23.05,2.47.13,3.71.21l2.31.17v-.57l-2.27-.16c-1.25-.08-2.49-.16-3.74-.21v.56Zm0,2.72c1.24.06,2.49.14,3.76.22l2.29.17v-.56l-2.25-.17c-1.27-.08-2.53-.16-3.8-.22v.56Zm0,2.68,3.81.24,2.28.18V352l-2.24-.17c-1.28-.09-2.57-.18-3.84-.24v.56Zm0,2.65c1.27.07,2.56.16,3.86.26l2.28.19v-.56l-2.23-.19c-1.3-.1-2.61-.19-3.9-.26v.56Zm0,2.71c1.29.07,2.6.16,3.92.26l2.26.18v-.56l-2.22-.18c-1.32-.1-2.64-.19-3.95-.26v.56Zm0,2.71c2.07.09,4.15.19,6.22.32V360c-2.06-.13-4.14-.23-6.21-.32v.56Zm0,2.71c2.09.06,4.18.15,6.27.25v-.57c-2.09-.09-4.17-.18-6.26-.24v.56Zm0,2.84c2.1,0,4.21.1,6.31.17v-.57c-2.1-.06-4.2-.12-6.3-.16v.56Z"/><polygon class="cls-1" points="7.85 375.34 8.1 375.35 9.31 375.36 10.58 375.37 11.87 375.38 13.19 375.39 14.52 375.41 15.85 375.42 17.18 375.44 18.48 375.45 19.76 375.46 21 375.47 22.2 375.49 23.33 375.5 24.4 375.5 25.39 375.51 26.29 375.52 27.09 375.53 27.78 375.54 28.36 375.54 28.8 375.55 29.11 375.55 29.26 375.55 29.36 375.55 29.5 375.55 29.66 375.55 29.86 375.56 29.88 375.56 29.88 367.12 7.85 367.12 7.85 375.34 7.85 375.34"/><polygon class="cls-2" points="7.96 375.34 8.1 375.35 9.31 375.36 10.58 375.37 10.76 375.37 10.76 367.23 7.96 367.23 7.96 375.34 7.96 375.34"/><polygon class="cls-2" points="13.54 375.4 14.25 375.41 14.25 367.23 13.54 367.23 13.54 375.4 13.54 375.4"/><polygon class="cls-2" points="22.85 375.49 23.33 375.5 23.55 375.5 23.55 367.23 22.85 367.23 22.85 375.49 22.85 375.49"/><polygon class="cls-2" points="27.4 375.53 27.68 375.54 27.68 367.23 27.4 367.23 27.4 375.53 27.4 375.53"/><polygon class="cls-2" points="17.33 375.44 18.48 375.45 18.88 375.45 18.88 367.23 17.33 367.23 17.33 375.44 17.33 375.44"/><polygon class="cls-2" points="29.06 375.55 29.11 375.55 29.26 375.55 29.36 375.55 29.5 375.55 29.6 375.55 29.6 367.23 29.06 367.23 29.06 375.55 29.06 375.55"/><polygon class="cls-1" points="29.88 367.12 29.88 363.68 7.85 363.68 7.85 367.12 29.88 367.12 29.88 367.12"/><polygon class="cls-2" points="8.04 367.01 29.59 367.01 29.59 366.56 8.04 366.56 8.04 367.01 8.04 367.01"/><polygon class="cls-3" points="29.61 366.32 29.61 364.03 8.06 364.03 8.06 366.32 29.61 366.32 29.61 366.32"/><path class="cls-3" d="M7.22,46.59v0L6.8,47.81l-.4,1.24L6,50.33l-.35,1.33-.12.5A167.81,167.81,0,0,1,31.9,45.75c-.19-1.59-.41-3.19-.73-4.76a183.32,183.32,0,0,0-24,5.6Z"/><path class="cls-1" d="M8.4,43.66l-.06.15,1.16-.3c1.56-.41,3.12-.79,4.69-1.16s3.14-.72,4.74-1.05,3.22-.66,4.86-1,3.26-.6,4.92-.87h0l1.39-.21.6-.1-.15-.54-.55.08-1.39.22h0c-1.64.26-3.29.56-4.93.87s-3.25.64-4.86,1-3.18.68-4.76,1L9.35,43l-.71.19-.24.51Z"/><path class="cls-1" d="M30.05,37.05c-.06-.18-.13-.36-.2-.53l-1.21.19h0c-1.65.26-3.29.54-4.93.85s-3.24.64-4.86,1c-1.41.3-2.81.64-4.18,1s-2.75.69-4.11,1l-.7.18-.36.67h.06l1.15-.29c1.36-.35,2.74-.7,4.12-1s2.77-.67,4.15-1c1.59-.34,3.2-.66,4.85-1s3.25-.59,4.91-.86h0l1.31-.21Z"/><path class="cls-1" d="M29.2,35c-.09-.17-.17-.35-.26-.52l-.29,0c-1.66.28-3.31.56-4.92.86s-3.24.63-4.86,1-3.2.72-4.75,1.09l-2.76.69-.42.69c1.09-.28,2.2-.56,3.33-.83,1.59-.39,3.17-.76,4.73-1.09s3.2-.67,4.84-1,3.27-.59,4.91-.86L29.2,35Z"/><path class="cls-1" d="M28.08,33c-.11-.18-.23-.35-.35-.52-1.32.22-2.65.45-4,.7-1.62.3-3.24.62-4.84,1s-3.19.72-4.75,1.1l-1,.24c-.18.23-.35.47-.53.71l1.66-.41c1.58-.38,3.16-.75,4.74-1.1s3.21-.67,4.83-1c1.39-.25,2.8-.49,4.21-.72Z"/><path class="cls-1" d="M26.61,31.11c-.15-.16-.3-.33-.46-.49l-2.36.44c-1.61.3-3.23.64-4.85,1-1.18.25-2.35.52-3.53.8l-.66.73c1.42-.34,2.86-.67,4.32-1s3.2-.67,4.83-1l2.71-.5Z"/><rect x="17.6" y="30.72" width="0.01" transform="translate(-4.53 3.09) rotate(-8.88)"/><polygon class="cls-1" points="46.61 36.78 46.6 37.69 46.6 38.67 46.59 39.72 46.58 40.83 46.57 42.01 46.56 43.25 46.55 44.54 46.54 45.88 46.52 47.27 46.51 48.71 46.5 50.18 46.48 51.69 46.47 53.24 46.46 54.81 46.44 56.41 46.42 58.04 46.41 59.68 46.39 61.34 46.38 63.01 46.36 64.69 46.34 66.36 46.33 68.05 46.31 69.73 46.29 71.4 46.26 75 45.93 72.23 45.88 71.78 45.82 71.33 45.76 70.88 45.7 70.44 45.64 69.99 45.58 69.55 45.52 69.12 45.45 68.68 45.38 68.25 45.31 67.82 45.24 67.4 45.17 66.98 45.1 66.56 45.02 66.15 44.95 65.75 44.87 65.34 44.78 64.94 44.7 64.55 44.62 64.17 44.53 63.78 44.44 63.41 44.35 63.04 44.26 62.68 43.98 61.63 43.71 60.63 43.44 59.68 43.16 58.78 42.9 57.93 42.63 57.13 42.37 56.37 42.11 55.65 41.95 55.22 41.79 54.78 41.62 54.34 41.45 53.9 41.27 53.46 41.09 53.03 40.9 52.59 40.7 52.16 40.49 51.73 40.28 51.31 40.06 50.89 39.83 50.48 39.59 50.08 39.34 49.69 39.07 49.31 38.8 48.95 38.71 48.84 38.64 48.76 38.59 48.7 38.55 48.66 38.52 48.64 38.5 48.61 37.13 48.61 37.1 37.71 37.11 36.57 37.11 35.42 37.11 34.28 37.1 33.13 37.1 31.98 37.09 30.82 37.08 29.67 37.07 28.52 37.06 27.36 37.05 26.2 37.05 24.98 47.42 25.4 47.29 25.92 47.21 26.22 47.15 26.53 47.08 26.84 47.03 27.15 46.98 27.46 46.93 27.78 46.88 28.09 46.85 28.41 46.81 28.73 46.78 29.05 46.75 29.38 46.73 29.71 46.7 30.04 46.69 30.38 46.67 30.72 46.66 31.06 46.65 31.41 46.64 31.76 46.63 32.11 46.62 32.47 46.62 32.84 46.62 33.2 46.62 33.58 46.61 33.96 46.61 34.34 46.61 34.73 46.61 35.13 46.61 35.53 46.61 35.94 46.61 36.36 46.61 36.78 46.61 36.78"/><path class="cls-2" d="M46.44,36.78v9.1l0,1.39v2.91l0,1.51v1.55l0,1.57v1.6l0,1.63,0,1.64v1.66l0,1.67v1.67l0,1.68,0,1.69v1.67l0,1.68v.81l-.05-.45L46,71.31l-.05-.45-.06-.45L45.81,70l-.06-.44-.06-.44-.07-.43-.06-.44-.07-.42-.07-.43L45.34,67l-.07-.42-.08-.41-.07-.41-.08-.4-.09-.4-.08-.39-.08-.39-.09-.38-.09-.38L44.52,63l-.09-.37-.28-1.05-.28-1-.27-.95-.27-.9-.27-.85-.26-.81-.27-.76-.25-.72a25.33,25.33,0,0,0-3.35-6.75l-.08-.11-.07-.08-.06-.06,0-.05,0,0-.08-.07H37.3l0-10.73V25.16l10,.41c-.88,3.29-.74,6.68-.76,11.21Z"/><path class="cls-2" d="M47.65,266.33v-.54h0v.54Zm-6.35-3.68-3.66-1.76c-.55-.25-1.1-.53-1.65-.8v.57l1.64.78,3.68,1.75v-.54Zm6.36,6.07v-.53h0v.53Zm-6.32-3.58-3.72-1.72L36,262.67v.56l1.63.74c1.26.57,2.5,1.15,3.72,1.73v-.56Zm6.33,6v-.53h0v.53Zm-6.3-3.48-3.77-1.71-1.6-.71v.56l1.6.7c1.28.57,2.54,1.13,3.78,1.7v-.54Zm6.3,5.92V273h0v.54Zm-6.26-3.41c-1.25-.57-2.53-1.14-3.83-1.69-.52-.24-1-.46-1.58-.69v.55l1.58.69c1.3.56,2.58,1.11,3.83,1.67v-.53Zm6.27,5.76v-.52h0v.52Zm-6.24-3.26L37.57,271,36,270.33v.56l1.57.65,3.88,1.65v-.55Zm6.24,5.64v-.53h0v.54Zm-6.21-3.19-3.91-1.64L36,272.81v.55l1.55.65c1.33.55,2.64,1.08,3.92,1.62v-.54Zm6.22,5.63v-.52h0v.52Zm-6.18-3.12-4-1.58-1.53-.6V276l1.53.6c1.35.53,2.67,1.07,4,1.6v-.57Zm6.19,5.53v-.52h0v.52Zm-6.16-3c-1.31-.53-2.65-1.06-4-1.57L36,278v.55l1.51.58c1.37.51,2.71,1,4,1.57v-.55Zm6.16,5.43V285h0v.55Zm-6.13-2.94c-1.33-.51-2.69-1-4.07-1.53L36,280.54v.56l1.49.57c1.38.49,2.74,1,4.07,1.5v-.56ZM47.71,288v-.52h0V288Zm-6.1-2.82-4.12-1.49L36,283.12v.56l1.48.52c1.39.51,2.77,1,4.12,1.48v-.54Zm6.11,5.31v-.53h0v.53Zm-6.08-2.78c-1.36-.48-2.75-1-4.17-1.42L36,285.77v.54l1.45.49c1.42.47,2.81.94,4.18,1.42v-.55Zm6.08,5.2v-.54h0v.54Zm-6-2.7c-1.39-.49-2.8-1-4.23-1.42L36,288.31v.55l1.44.44c1.43.47,2.84.94,4.22,1.42v-.55Zm6,5.18v-.55h0v.55Zm-6-2.63c-1.4-.45-2.82-.9-4.27-1.34L36,290.92v.55c.48.15.95.3,1.42.47,1.45.43,2.87.88,4.27,1.33v-.55Zm6,5v-.53h0v.53Zm-6-2.49-4.33-1.35L36,293.51v.55l1.4.44,4.32,1.32v-.55Zm6,4.94v-.54h0v.54Zm-6-2.43c-1.43-.42-2.9-.84-4.38-1.3L36,296.12v.56c.46.12.92.25,1.37.39q2.23.62,4.38,1.26v-.55Zm6,4.87v-.55h0v.55Zm-5.94-2.33c-1.45-.43-2.92-.86-4.43-1.27L36,298.69v.56l1.36.35c1.5.41,3,.83,4.42,1.25v-.53Zm5.94,4.81v-.54h0v.54Zm-5.9-2.26c-1.47-.41-3-.81-4.49-1.19L36,301.31v.58l1.35.32c1.52.4,3,.81,4.47,1.22v-.56Zm5.91,4.68V307h0v.53Zm-5.88-2.16c-1.48-.39-3-.76-4.53-1.14L36,303.92v.56l1.32.32c1.55.38,3.06.77,4.53,1.15v-.56ZM47.77,310v-.53h0V310Zm-5.85-2.05-4.59-1.11-1.28-.29v.55l1.3.29c1.56.38,3.08.72,4.57,1.1v-.54Zm5.85,4.58V312h0v.54Zm-5.82-2c-1.52-.37-3.06-.71-4.64-1.05l-1.26-.26v.56c.43.09.86.18,1.28.29l4.63,1v-.56Zm5.83,4.5v-.57h0V315ZM42,313.07c-1.54-.34-3.1-.67-4.69-1l-1.25-.26v.55c.43.08.85.17,1.27.27,1.59.31,3.15.66,4.67,1v-.57Zm5.8,4.35v-.53h0v.53ZM42,315.6l-4.74-1-1.22-.22V315l1.25.24c1.61.31,3.18.61,4.72.94v-.55Zm5.77,4.34v-.54h0v.54Zm-5.73-1.74c-1.57-.31-3.17-.6-4.79-.88l-1.21-.23v.54l1.23.21c1.63.3,3.22.6,4.77.91v-.55Zm5.74,4.23v-.53h0v.53Zm-5.71-1.65L37.24,320c-.39-.08-.78-.14-1.18-.21v.58l1.21.18c1.65.26,3.26.54,4.83.82v-.54Zm5.71,4.16v-.54h0v.54Zm-5.67-1.57c-1.6-.28-3.24-.54-4.9-.79l-1.16-.17V323l1.19.19c1.66.24,3.29.5,4.87.77v-.54Zm5.68,4.1v-.55h0v.55Zm-5.65-1.53c-1.62-.25-3.27-.48-4.95-.72l-1.14-.16v.56l1.18.19c1.68.21,3.32.43,4.92.69v-.56Zm0,2.63c-1.64-.26-3.31-.48-5-.69l-1.13-.15v.55l1.15.13c1.71.23,3.37.43,5,.68v-.52Zm5.63,3.87v-.51h0v.51Zm-5.6-1.29-5.06-.63-1.09-.14v.56l1.13.13,5,.61v-.53Zm5.6,3.85v-.53h0V335Zm-5.56-1.24c-1.67-.21-3.37-.38-5.11-.54l-1.08-.13v.54l1.11.11,5.09.56v-.54Zm5.57,3.74v-.56h0v.56Zm-5.54-1.2c-1.68-.17-3.4-.32-5.16-.48l-1.06-.09v.56l1.1.12c1.75.1,3.47.27,5.13.46v-.57ZM47.84,340v-.51h0V340Zm-5.5-1.07c-1.71-.17-3.45-.3-5.22-.4l-1-.1V339l1.07.05c1.78.13,3.51.29,5.19.44v-.56Zm5.51,3.6V342h0v.52Zm-5.48-1c-1.72-.13-3.47-.24-5.26-.36l-1,0v.58l1.06.05c1.79.09,3.53.2,5.23.32v-.55Zm0,2.6c-1.74-.08-3.51-.2-5.32-.26l-1,0v.54l1,.05c1.81,0,3.57.15,5.29.26v-.56Zm5.45,3.47V347h0v.56Zm-5.42-.88c-1.75-.1-3.55-.17-5.37-.21l-1,0V347l1,0c1.82,0,3.6.1,5.33.18v-.53Zm5.43,3.4v-.52h0v.52Zm-5.39-.76c-1.77-.06-3.59-.12-5.42-.15h-1v.57h1c1.84,0,3.64.09,5.39.15v-.55Zm5.4,3.3v0ZM42.51,352c-1.79-.05-3.61-.1-5.47-.09l-.94,0v.56h1c1.87,0,3.68,0,5.44,0V352Zm5.37,3.15v0Zm-5.33-.63-5.53,0-.91,0v.56l1,0c1.88,0,3.71,0,5.49,0v-.57Zm0,2.62c-1.82,0-3.68.05-5.58.1l-.89,0v.56l.94,0c1.9-.05,3.75-.08,5.54-.09v-.57Zm0,2.67h-.41c-2,0-4,0-6.1.09v.55c2.08-.05,4.12-.1,6.12-.13h.4v-.52Zm0,2.65-6.54.09v.56c2.22-.06,4.41-.1,6.54-.12v-.53Zm5.25,3.21v-.38l-.5-.15-5.19.09c-2,0-4,.07-6.1.1v.55c2.07-.06,4.11-.11,6.11-.13l5.68-.08Zm0,2.58v-.48l-3,0c-2.85.08-5.77.13-8.77.21v.59l8.77-.25c1,0,2-.07,3-.1Zm0,2.68v-.51c-1.88.05-3.8.12-5.76.19s-4,.08-6,.13v.57c2-.07,4-.14,6-.19l5.76-.19Zm0,2.63V373l-3,.1-8.84.33v.53c3.06-.11,6-.23,8.84-.32l3-.11Z"/><path class="cls-2" d="M47.91,365.24v-2.32H42.66v2.15h5.24v.15Zm0-2.67V360.3c-1.73,0-3.48,0-5.27,0l0,2.13,3.31,0H47.9v.2Zm0-2.81v-2.08c-1.49,0-3,0-4.59,0h-.71l0,2.11c1.79,0,3.55,0,5.28,0Zm0-2.61v-2c-1.48,0-3,0-4.56,0l-.76,0,0,2h.7l4.61.07Zm0-2.55v-2c-1.48-.06-3-.11-4.55-.15h-.81l0,2h.74c1.56,0,3.09.08,4.59.12Zm0-2.38V350.1q-2.2-.12-4.53-.18l-.85,0,0,2.06.79,0,4.58.13v.12Zm0-2.64v-2l-4.51-.3-.9,0,0,2.11.84,0c1.54.05,3.06.13,4.55.21Zm0-2.56v-2c-1.47-.12-3-.22-4.5-.31l-.94-.07,0,2,.89.05c1.54.06,3.05.15,4.53.26Zm0-2.5v-2l-4.48-.38-1-.08,0,2.06.93,0c1.54.14,3,.23,4.51.36Zm0-2.52v-2c-1.45-.15-2.94-.3-4.46-.42l-1-.09,0,2,1,.08,4.5.41Zm0-2.52v-2c-1.45-.17-2.94-.35-4.45-.5l-1.08-.13,0,2.05,1,.1c1.52.14,3,.3,4.48.46Zm0-2.54V335c-1.45-.2-2.92-.39-4.43-.57l-1.12-.13,0,2,1.07.11c1.52.16,3,.34,4.47.53Zm0-2.47v-2l-4.42-.62-1.16-.13,0,2.07,1.11.15,4.45.56Zm0-2.54v-2l-4.4-.67-1.22-.19,0,2.06,1.16.15h0c1.51.2,3,.42,4.43.63Zm0-2.5v-2c-1.43-.26-2.89-.52-4.38-.76l-1.26-.21,0,2.07,1.21.2c1.5.2,3,.42,4.41.66Zm0-2.51v-2l-4.37-.8-1.3-.22,0,2,1.26.19c1.49.29,2.95.53,4.39.79Zm0-2.52v-2l-4.36-.86-1.34-.24,0,2,1.3.22c1.48.27,2.94.53,4.37.81Zm0-2.5v-2c-1.41-.32-2.85-.63-4.33-.91l-1.4-.27,0,2,1.34.24,4.37.88Zm0-2.5v-2c-1.42-.32-2.85-.65-4.32-1L42,316.15l0,2.06,1.39.28c1.48.3,2.92.6,4.34.91Zm0-2.51V315c-1.41-.36-2.84-.73-4.31-1L42,313.64l0,2,1.44.32c1.47.31,2.91.63,4.32,1Zm0-2.46v-1.92l-4.29-1.09L42,311.07l0,2,1.48.34,4.31,1Zm0-2.46v-2l-4.27-1.1h0l-1.58-.41,0,2,1.53.37,4.29,1.1Zm0-2.52v-1.9l-4.26-1.17L41.89,306l0,2,1.58.41,4.26,1.11Zm0-2.43v-1.89l-4.23-1.23-1.66-.47,0,2,1.62.44c1.45.41,2.87.79,4.26,1.19Zm0-2.43v-1.94c-1.38-.44-2.79-.87-4.23-1.28-.56-.18-1.13-.35-1.7-.51l0,2,1.67.49c1.44.41,2.85.81,4.23,1.23Zm0-2.49v-1.89c-1.37-.45-2.78-.9-4.21-1.35l-1.74-.53,0,2,1.72.5c1.43.42,2.84.85,4.22,1.28Zm0-2.43v-1.91c-1.37-.46-2.76-.92-4.19-1.37l-1.79-.57,0,2,1.76.54c1.43.47,2.83.91,4.2,1.35Zm0-2.44v-1.88c-1.37-.48-2.76-1-4.18-1.47l-1.83-.61,0,2,1.79.57c1.43.46,2.83.92,4.19,1.39Zm0-2.43v-1.93c-1.36-.49-2.75-1-4.16-1.49l-1.88-.66,0,2,1.85.61,4.17,1.46Zm0-2.47v-1.88c-1.36-.51-2.74-1-4.15-1.54l-1.92-.69,0,1.95,1.89.66c1.41.49,2.8,1,4.15,1.5Zm0-2.41v-2l-4.12-1.59-2-.69,0,2,1.94.69,4.13,1.56Zm0-2.48v-1.89C46.35,285,45,284.49,43.59,284c-.66-.27-1.33-.53-2-.79l0,2,2,.75c1.4.5,2.77,1,4.11,1.55Zm0-2.44v-1.87c-1.35-.56-2.71-1.11-4.1-1.64l-2.05-.82,0,1.94c.69.27,1.36.53,2,.81,1.4.52,2.76,1.05,4.1,1.58Zm0-2.39v-1.89c-1.34-.57-2.7-1.12-4.08-1.7l-2.1-.85,0,1.95,2.07.82,4.08,1.67Zm0-2.41v-1.92c-1.33-.59-2.68-1.17-4.06-1.73l-2.14-.92,0,2,2.11.87c1.39.58,2.74,1.15,4.07,1.73Zm0-2.46V275.9c-1.33-.61-2.68-1.21-4-1.79l-2.18-.92,0,1.9,2.16.91c1.38.56,2.73,1.15,4,1.74Zm0-2.36v-1.83c-1.32-.63-2.66-1.24-4-1.88l-2.24-1,0,2c.74.33,1.48.64,2.2.95l4,1.79Zm0-2.37v-1.9c-1.32-.63-2.66-1.26-4-1.88l-2.28-1.06,0,2,2.25,1c1.36.61,2.7,1.23,4,1.85Zm0-2.43v-1.86c-1.31-.64-2.64-1.28-4-1.9-.76-.38-1.53-.75-2.32-1.12l0,1.93,2.3,1.05,4,1.9Zm0-2.39v-1.86c-1.3-.67-2.63-1.33-4-2-.77-.39-1.56-.77-2.36-1.16l0,1.95,2.34,1.1,4,1.95Zm0-2.4V264l-4-2-2.4-1.18,0,1.86,2.39,1.16c1.35.65,2.67,1.32,4,2Zm0-2.31V261.6l-4-2.08-.16-.08a18.31,18.31,0,0,0-1.64-.85c-.21-.12-.42-.24-.64-.35l0,2,2.42,1.23c1.35.68,2.67,1.35,4,2Zm0-2.42V259.2q-1.93-1.08-3.93-2.14l-2.49-1.32,0,2,.67.35,1.63.84.17.08q2,1,3.93,2.09Zm0-2.4v-1.85l-3.92-2.17-2.53-1.36,0,1.92c.85.44,1.69.87,2.52,1.32l3.91,2.14Zm0-2.38v-1.85q-1.92-1.12-3.91-2.21c-.84-.48-1.7-.95-2.57-1.42l0,1.93c.87.46,1.72.93,2.56,1.4l3.9,2.15Zm0-2.38v-1.85c-1.27-.75-2.57-1.51-3.88-2.26-.86-.5-1.74-1-2.62-1.49l0,1.94,2.6,1.46c1.32.72,2.61,1.46,3.88,2.2Zm0-2.38v-1.89l-3.87-2.29-2.67-1.55,0,2,2.65,1.51c1.32.77,2.61,1.52,3.86,2.27Zm0-2.42v-1.84c-1.27-.78-2.55-1.56-3.86-2.31-.89-.56-1.79-1.1-2.7-1.65l0,1.93,2.69,1.57c1.31.77,2.6,1.54,3.85,2.3Zm0-2.37v-1.85c-1.27-.8-2.55-1.61-3.85-2.39L41,240.84l0,1.9,2.74,1.63,3.83,2.36Zm0-2.37v-1.89L43.76,240,41,238.32l0,2c.94.57,1.87,1.14,2.78,1.72,1.3.77,2.57,1.58,3.82,2.37Zm0-2.43V240.1c-1.25-.83-2.52-1.64-3.81-2.45-.93-.6-1.87-1.2-2.83-1.8l0,1.92,2.82,1.76c1.3.8,2.56,1.61,3.8,2.4Zm0-2.35v-1.8q-1.87-1.25-3.81-2.49l-2.86-1.87,0,1.87c1,.61,1.93,1.22,2.87,1.82q1.94,1.24,3.78,2.47Zm0-2.33v-1.86c-1.24-.86-2.5-1.72-3.78-2.55-1-.64-1.93-1.29-2.92-1.93l0,2,2.9,1.92q1.94,1.25,3.78,2.47Zm0-2.41V233c-1.24-.86-2.5-1.71-3.77-2.58l-3-2,0,1.92,3,1.94c1.28.85,2.53,1.69,3.75,2.54Zm0-2.4v-1.8q-1.83-1.29-3.75-2.58c-1-.69-2-1.37-3-2.05l0,1.89,3,2,3.73,2.53Zm0-2.33v-1.82c-1.21-.87-2.46-1.74-3.73-2.65l-3-2.12,0,1.93,3.05,2.1q1.88,1.26,3.71,2.56Zm0-2.34v-1.83c-1.21-.89-2.45-1.78-3.73-2.69-1-.72-2-1.44-3.08-2.16l0,1.89c1,.72,2.08,1.44,3.09,2.15l3.69,2.64Zm0-2.35v-1.8l-3.7-2.73-.06,0c-.55-.36-1.09-.78-1.61-1.16l-1.46-1,0,1.88,3.14,2.22c1.24.89,2.46,1.79,3.68,2.68Zm0-2.35v-1.8q-1.8-1.36-3.68-2.74c-1.05-.78-2.11-1.55-3.18-2.33l0,1.9c.51.34,1,.72,1.51,1.08s1.1.78,1.61,1.16l0,0c1.24.88,2.46,1.79,3.67,2.68Zm0-2.34v-1.81l-3.68-2.78c-1.05-.79-2.12-1.58-3.21-2.38l0,1.87L43.88,218c1.24.91,2.45,1.82,3.65,2.73Zm0-2.35V216.6c-1.19-.94-2.41-1.89-3.66-2.81l-3.25-2.48,0,1.88,3.26,2.42,3.64,2.77Zm0-2.32v-1.79l-3.65-2.87c-1.08-.85-2.18-1.69-3.3-2.54l0,1.91,3.31,2.52c1.22.91,2.43,1.84,3.61,2.77Zm0-2.34v-1.78c-1.19-.95-2.4-1.89-3.64-2.87-1.09-.88-2.2-1.75-3.33-2.62l0,1.84c1.14.88,2.26,1.75,3.35,2.61s2.41,1.87,3.6,2.82Zm0-2.32v-1.76l-3.61-2.92c-1.11-.9-2.24-1.79-3.38-2.69l0,1.85c1.16.91,2.29,1.8,3.39,2.69s2.41,1.88,3.59,2.83Zm0-2.31v-1.77l-3.6-3-3.43-2.74,0,1.88,3.44,2.75c1.2,1,2.39,1.91,3.56,2.87Zm0-2.32V205q-1.76-1.49-3.58-3t-3.47-2.8l0,1.84,3.47,2.78c1.21,1,2.39,2,3.56,2.94Zm0-2.32v-1.74l-3.57-3-3.51-2.91,0,1.87,3.51,2.9c1.2.94,2.38,1.93,3.54,2.91Zm0-2.29V200.4q-1.74-1.52-3.56-3h0c-.55-.48-1.08-.92-1.61-1.36l-1.63-1.41-.28-.24,0,1.89c1.22,1,2.41,2,3.57,3s2.36,2,3.52,3Zm0-2.29v-1.8L43.93,195l-3.59-3,0,1.87.33.28c.58.49,1.13.94,1.64,1.41s1.09.89,1.61,1.33l0,0h0q1.78,1.51,3.51,3Zm0-2.35V195.8c-1.17-1-2.34-2.06-3.53-3.09s-2.38-2.09-3.63-3.17l0,1.83q1.86,1.56,3.65,3.1c1.18,1,2.34,2,3.48,3.05Zm0-2.27v-1.73L44,190.36l-3.67-3.22,0,1.84c1.24,1.09,2.48,2.18,3.7,3.23s2.34,2.06,3.47,3Zm0-2.27v-1.74c-1.15-1.05-2.31-2.11-3.51-3.18s-2.44-2.2-3.7-3.32l0,1.83q1.88,1.67,3.74,3.29T47.46,193Zm0-2.29V189c-1.15-1.07-2.31-2.15-3.48-3.22s-2.47-2.25-3.76-3.4l0,1.84c1.27,1.14,2.53,2.28,3.78,3.39s2.3,2.08,3.44,3.12Zm0-2.27v-1.78L44,183.42h0q-.83-.79-1.59-1.47c-.38-.36-.93-.89-1.63-1.48l-.55-.51,0,1.83L44,185.25q1.75,1.6,3.43,3.17Zm0-2.32v-1.73c-1.13-1.08-2.28-2.18-3.45-3.28l-3.84-3.56,0,1.83.62.57c.4.34,1,.87,1.63,1.52s1.09,1,1.59,1.46h0l0,0c1.15,1.07,2.29,2.12,3.4,3.17Zm0-2.26v-1.69L44,178.83c-1.26-1.21-2.55-2.43-3.87-3.68l0,1.81,3.91,3.64c1.14,1.1,2.27,2.17,3.39,3.24Zm0-2.24v-1.8L44,176.45c-1.27-1.23-2.57-2.47-3.91-3.74v1.87c1.33,1.26,2.65,2.51,4,3.77l3.37,3.25Zm0-2.35v-1.7c-1.11-1.11-2.25-2.22-3.41-3.36l-3.93-3.83v1.8c1.35,1.27,2.67,2.53,4,3.8,1.13,1.12,2.24,2.21,3.35,3.29Zm0-2.25v-1.73l-3.4-3.4,0,0c-.53-.54-1.07-1.07-1.58-1.6s-1.09-1.08-1.62-1.58l-.74-.72v1.83c1.36,1.3,2.69,2.59,4,3.88l3.34,3.3Zm0-2.27V173c-1.11-1.13-2.23-2.27-3.38-3.41h0q-2-2-4-4v1.8l.81.79c.55.55,1.1,1.09,1.62,1.58s1.08,1,1.58,1.57h0l3.32,3.35Zm0-2.26v-1.73c-1.1-1.13-2.22-2.27-3.36-3.39-1.32-1.33-2.66-2.69-4-4l0,1.78,4.06,4h0q1.68,1.68,3.31,3.35Zm0-2.25v-1.71c-1.1-1.14-2.21-2.29-3.35-3.45-1.33-1.37-2.68-2.76-4-4.14v1.81l4.09,4.13q1.66,1.68,3.29,3.36Zm0-2.26v-1.69q-1.64-1.72-3.33-3.47h0v0c-.55-.55-1.07-1.12-1.58-1.62s-1.11-1.14-1.61-1.68c-.29-.29-.57-.6-.86-.9v1.81c1.41,1.43,2.79,2.84,4.12,4.21q1.66,1.69,3.28,3.38Zm0-2.24V164l-3.32-3.51c-1.35-1.45-2.72-2.88-4.1-4.31V158l.93,1c.58.6,1.12,1.18,1.62,1.67s1.08,1.1,1.58,1.66h0q1.65,1.71,3.26,3.4Zm0-2.25v-1.71c-1.08-1.18-2.19-2.37-3.3-3.57-1.36-1.44-2.74-2.88-4.13-4.34l0,1.78q2.14,2.22,4.17,4.4l3.25,3.44Zm0-2.27v-1.74c-1.08-1.18-2.17-2.38-3.29-3.59-1.36-1.44-2.75-2.9-4.14-4.41v1.82q2.16,2.26,4.19,4.46c1.1,1.15,2.18,2.31,3.24,3.46Zm0-2.28v-1.71l-3.27-3.6-4.18-4.53v1.8q2.18,2.31,4.22,4.57,1.64,1.74,3.22,3.47Zm0-2.27V155c-1.07-1.21-2.15-2.42-3.26-3.63-1.36-1.51-2.77-3-4.2-4.61v1.77c1.47,1.55,2.88,3.09,4.26,4.59,1.08,1.17,2.14,2.35,3.2,3.52Zm0-2.21v-1.68l-3.25-3.63c-1.36-1.5-2.77-3.07-4.23-4.66v1.75c1.46,1.57,2.89,3.14,4.29,4.68l3.18,3.54Zm0-2.22v-1.7q-1.59-1.82-3.23-3.65h0l0,0h0c-.41-.44-.94-1-1.56-1.73v0l-1.61-1.76-1.07-1.18,0,1.77c1.45,1.61,2.89,3.21,4.31,4.75l3.17,3.57Zm0-2.24v-1.66c-1.05-1.21-2.13-2.42-3.22-3.65q-2.07-2.37-4.27-4.86v1.73L41,142.83c.41.44.94,1.06,1.6,1.79h0c.43.47,1,1.06,1.57,1.76h0L47.35,150Zm0-2.22v-1.69c-1.05-1.22-2.12-2.44-3.2-3.68-1.39-1.6-2.83-3.25-4.31-4.91v1.78c1.47,1.64,2.93,3.3,4.36,4.94,1.07,1.19,2.11,2.38,3.14,3.56Zm0-2.23v-1.65c-1-1.23-2.11-2.48-3.19-3.72l-4.33-5v1.75l4.4,5,3.12,3.62Zm0-2.2v-1.64c-1-1.24-2.11-2.5-3.19-3.76-1.4-1.68-2.86-3.36-4.35-5.09l0,1.76c1.47,1.7,3,3.44,4.42,5.12q1.58,1.82,3.1,3.61Zm0-2.2v-1.71l-3.15-3.77h0l0,0h0c-.56-.68-1.08-1.28-1.56-1.89s-1.08-1.25-1.6-1.85l-1.21-1.43v1.79q2.26,2.63,4.44,5.2c1.05,1.21,2.08,2.43,3.1,3.64Zm0-2.26v-1.65l-3.15-3.77q-2.18-2.61-4.41-5.24V130l1.3,1.53c.56.62,1.09,1.26,1.6,1.86s1.09,1.29,1.57,1.86h0v0h0c1,1.2,2.06,2.42,3.07,3.63Zm0-2.19V135l-3.13-3.8q-2.19-2.65-4.44-5.33v1.73c1.56,1.84,3,3.63,4.51,5.35q1.55,1.86,3.05,3.7Zm0-2.19v-1.72L44.19,129c-1.48-1.78-3-3.6-4.47-5.41l0,1.77c1.56,1.88,3.07,3.69,4.53,5.46q1.54,1.86,3,3.7Zm0-2.25v-1.65q-1.53-1.91-3.11-3.84c-1.47-1.8-3-3.64-4.48-5.46V123c1.57,1.89,3.09,3.74,4.55,5.52q1.54,1.88,3,3.71Zm0-2.2v-1.6q-1.51-1.92-3.09-3.85h0c-.53-.68-1-1.32-1.55-2s-1.1-1.32-1.59-1.95L39.69,119v1.7c1.59,2,3.1,3.82,4.58,5.62l3,3.73Zm0-2.14v-1.65c-1-1.27-2-2.56-3.08-3.86l-4.54-5.68v1.73l1.45,1.8c.58.7,1.1,1.35,1.59,2s1.07,1.3,1.56,1.89l0,0c1,1.28,2,2.52,3,3.75Zm0-2.18V124c-1-1.29-2-2.59-3.06-3.88-1.5-1.91-3-3.81-4.57-5.73l0,1.75,4.63,5.77,3,3.79Zm0-2.24v-1.65c-1-1.3-2-2.6-3.05-3.91h0c-1.52-1.88-3-3.83-4.59-5.78v1.71c1.61,2,3.16,4,4.66,5.86,1,1.27,2,2.52,3,3.77Zm0-2.17v-1.57l-3-3.92h0v0h0c-.56-.71-1.07-1.35-1.55-2s-.92-1.18-1.58-2l-1.47-1.85v1.68q2.44,3.07,4.69,5.93h0c1,1.26,2,2.53,3,3.79Zm0-2.11v-1.66c-1-1.3-2-2.6-3-3.91-1.5-1.92-3-3.92-4.65-6v1.71c.53.67,1.06,1.33,1.57,2s.94,1.18,1.59,2,1.08,1.39,1.55,2h0v0h0l2.94,3.81Zm0-2.2v-1.64l-3-4q-2.27-3-4.67-6.08l0,1.76c1.58,2,3.18,4.11,4.74,6.08L47.27,117Zm0-2.19v-1.58l-3-4q-2.28-3-4.7-6.2v1.65c1.63,2.11,3.22,4.2,4.77,6.25,1,1.29,1.95,2.57,2.91,3.83Zm0-2.13v-1.59l-3-4-4.72-6.27v1.68c1.63,2.12,3.23,4.27,4.81,6.36,1,1.28,1.93,2.55,2.88,3.83Zm0-2.15v-1.61l-3-4h0l-4.75-6.35,0,1.71c1.62,2.16,3.23,4.29,4.82,6.44q1.46,1.92,2.88,3.84Zm0-2.15v-1.63c-1-1.34-2-2.68-3-4-1.54-2.09-3.11-4.22-4.77-6.44V98q2.47,3.35,4.85,6.51h0l2.86,3.91Zm0-2.15v-1.65q-1.44-2-2.94-4c-1.56-2.15-3.15-4.35-4.79-6.56v1.73c1.63,2.21,3.27,4.42,4.87,6.6l2.86,3.92Zm0-2.2v-1.58L44.3,98.38c-1.56-2.19-3.17-4.39-4.82-6.64l0,1.67c1.67,2.26,3.3,4.51,4.9,6.71L47.23,104Zm0-2.11v-1.64l-2.91-4.09c-1.6-2.2-3.22-4.46-4.84-6.7v1.67Q42,94.58,44.41,98l2.82,3.93Zm0-2.2v-1.6L44.32,94c-1.61-2.24-3.23-4.51-4.87-6.78v1.67Q42,92.48,44.41,95.8q1.41,2,2.81,3.92Zm0-2.14V96q-1.41-2-2.88-4.1c-1.61-2.29-3.25-4.61-4.9-6.91v1.65l5,7q1.4,1.95,2.78,3.93Zm0-2.14c0-.18,0-.75,0-1.62l-2.85-4.11c-1.62-2.31-3.27-4.64-4.93-7l0,1.7c1.73,2.44,3.39,4.77,5,7.1l2.77,3.92Zm0-2.18q0-.72,0-1.62l-2.8-4h0v0h0c-.56-.79-1.06-1.53-1.53-2.18s-.93-1.32-1.57-2.24S40,81.37,39.4,80.48v1.68c1.74,2.44,3.42,4.85,5,7.14.93,1.33,1.84,2.66,2.74,4Zm0-2.2c0-.51,0-1.06,0-1.63l-2.73-4q-2.41-3.51-5-7.2V79.9l2,2.8c.41.61.94,1.34,1.56,2.24s1.07,1.55,1.54,2.23h0c.9,1.31,1.8,2.61,2.67,3.89Zm-.06-2.21c0-.53,0-1.09-.07-1.66q-1.3-1.93-2.64-3.89c-1.61-2.38-3.28-4.8-5-7.29l0,1.66q2.59,3.73,5.09,7.38c.88,1.27,1.74,2.54,2.6,3.8ZM47,86.58c0-.56,0-1.13-.08-1.72l-2.53-3.75-5-7.36v1.71q2.6,3.75,5.11,7.43L47,86.58Zm-.11-2.3c0-.56-.06-1.13-.1-1.71L44.38,79l-5.05-7.44v1.64c1.75,2.52,3.46,5.07,5.14,7.54.81,1.21,1.6,2.39,2.39,3.55ZM46.74,82c0-.59-.08-1.17-.12-1.77-.73-1.11-1.48-2.23-2.23-3.35-1.62-2.41-3.31-4.94-5.08-7.62v1.69l5.17,7.71c.76,1.12,1.51,2.23,2.25,3.34Zm-.17-2.38c0-.58-.08-1.17-.13-1.76l-2-3.11c-1.62-2.48-3.3-5-5.1-7.69l0,1.61c1.74,2.65,3.48,5.28,5.2,7.83.69,1,1.38,2.08,2.06,3.12Zm-.19-2.4c-.05-.62-.11-1.24-.17-1.86l-1.81-2.8h0c-.54-.81-1-1.6-1.52-2.29-.56-.86-1.07-1.62-1.55-2.35-.67-1-1.35-2.06-2-3.1v1.66c1.73,2.6,3.49,5.29,5.22,7.89l1.87,2.85Zm-.23-2.5c-.07-.64-.13-1.26-.21-1.89-.5-.79-1-1.58-1.53-2.36h0v0h0c-.55-.82-1.06-1.61-1.51-2.3-.54-.84-1.05-1.63-1.55-2.38-.69-1-1.37-2.1-2.07-3.15v1.68l2.16,3.22c.57.9,1.08,1.66,1.55,2.39s1.06,1.6,1.53,2.29h0c.54.85,1.09,1.69,1.63,2.53Zm-.29-2.57c-.08-.67-.16-1.34-.26-2-.39-.61-.78-1.23-1.18-1.84h0c-.56-.85-1.07-1.64-1.52-2.36l-1.55-2.33c-.69-1.07-1.39-2.14-2.1-3.22l0,1.66c.73,1.12,1.46,2.22,2.18,3.31C42,66.16,42.5,67,43,67.7s1.07,1.64,1.52,2.36h0l1.33,2.06Zm-.35-2.69c-.11-.7-.22-1.4-.33-2.08l-.75-1.16c-1.7-2.65-3.43-5.33-5.2-8.07v1.65l2.22,3.4c.53.84,1,1.64,1.54,2.39s1.07,1.65,1.53,2.34h0v0h0l1,1.49Zm-.46-2.84c-.15-.79-.3-1.55-.46-2.28l-.16-.25c-1.75-2.75-3.52-5.49-5.29-8.25,0,.81,0,1.44.07,1.75,1.83,2.8,3.61,5.58,5.34,8.26l.5.77Zm-.65-3.11c-.06-.27-.13-.54-.2-.8-.17-.66-.34-1.29-.51-1.9q-2.19-3.47-4.52-7.11c0,.56,0,1.09,0,1.58,1.84,2.85,3.59,5.57,5.27,8.23Zm-1-3.71c-.35-1.2-.69-2.27-1-3.24l-3-4.83c-.06.49-.1,1-.13,1.45,1.42,2.25,2.82,4.45,4.2,6.62ZM41.88,55.2a30.77,30.77,0,0,0-2.3-5c-.08.35-.14.71-.19,1.07l2.49,3.93Z"/><path class="cls-2" d="M39.39,51.27,39,50.68c-.72-1.16-1.46-2.32-2.2-3.59a3.69,3.69,0,0,1-.1.52c.74,1.14,1.47,2.29,2.19,3.41l.43.69.06-.44Z"/><path class="cls-2" d="M39.2,53.16l-.19-.3c-1.14-1.76-2.28-3.56-3.43-5.37l0,.54c1.13,1.8,2.24,3.48,3.32,5.2l.29.45,0-.52Z"/><path class="cls-2" d="M39.13,55.26,39,55c-1.15-1.76-2.3-3.56-3.48-5.35v.55c1.14,1.76,2.26,3.45,3.37,5.18l.27.41c0-.18,0-.37,0-.56Z"/><path class="cls-2" d="M39.21,57.57,39,57.21c-1.16-1.8-2.32-3.61-3.51-5.44l0,.55,3.42,5.24.37.57V57.8l0-.23Z"/><path class="cls-2" d="M39.24,59.78q-1.89-2.88-3.85-5.85v.55q2,3,3.86,5.89v-.59Z"/><path class="cls-2" d="M39.26,62c-1.28-1.94-2.59-3.9-3.93-5.9v.54c1.33,2,2.64,4,3.92,5.91V62Z"/><path class="cls-2" d="M39.27,64.26l-3.89-5.88V59q2,2.94,3.89,5.82v-.54Z"/><path class="cls-2" d="M39.29,66.46l-.38-.57h0l-3.48-5.2,0,.59q1.69,2.55,3.36,5h0l.48.73v-.58Z"/><path class="cls-2" d="M39.31,68.65l-.4-.61-3.42-5v.6c1.11,1.62,2.2,3.26,3.3,4.86l.51.77v-.58Z"/><path class="cls-2" d="M39.32,70.93l-.43-.65c-1.1-1.61-2.22-3.29-3.35-5v.59c1.1,1.61,2.17,3.23,3.23,4.83l.55.82v-.62Z"/><path class="cls-2" d="M39.34,73.19l-.46-.66-3.29-4.87v.61c1.08,1.59,2.13,3.13,3.18,4.64l.58.84v-.56Z"/><path class="cls-2" d="M39.36,75.46l-.5-.73c-1.07-1.57-2.15-3.14-3.26-4.74v.58l3.14,4.55.61.89v-.55Z"/><path class="cls-2" d="M39.38,77.67l-.53-.75c-1.06-1.56-2.14-3.08-3.23-4.66v.59q1.59,2.25,3.12,4.45l.64.93v-.56Z"/><path class="cls-2" d="M39.39,79.9c-1.23-1.75-2.48-3.53-3.76-5.32v.57c1.27,1.79,2.53,3.57,3.76,5.33V79.9Z"/><path class="cls-2" d="M39.41,82.16l-.59-.82c-1-1.5-2.1-3-3.17-4.49v.6c1,1.45,2.06,2.87,3.06,4.28l.7,1v-.56Z"/><path class="cls-2" d="M47.21,96v-.56h0V96ZM39.43,84.42l-.62-.87c-1-1.48-2.08-2.94-3.15-4.43v.57c1,1.44,2,2.87,3,4.28l.73,1v-.58Z"/><path class="cls-2" d="M47.22,98.13v-.55h0v.54ZM39.44,86.65l-.66-.93c-1-1.42-2.05-2.84-3.1-4.28V82c1,1.39,2,2.78,3,4.17l.77,1.07v-.6Z"/><path class="cls-2" d="M47.23,100.28v-.56h0v.56ZM39.46,88.92l-.69-1c-1-1.41-2-2.83-3.07-4.24v.59c1,1.37,2,2.76,3,4.08l.8,1.09v-.57Z"/><path class="cls-2" d="M47.23,102.46v-.54h0v.53Zm-7.75-11.3-.72-1-3-4.17v.58l2.95,4,.82,1.13v-.58Z"/><path class="cls-2" d="M47.24,104.58V104h0v.55ZM39.5,93.41l-.76-1-3-4.06v.56l2.91,3.93L39.5,94v-.57Z"/><path class="cls-2" d="M47.24,106.75v-.52h0v.52Zm-7.73-11-.79-1.07-3-4v.57c1,1.3,1.94,2.6,2.89,3.87l.89,1.19v-.58Z"/><path class="cls-2" d="M47.25,108.93v-.55h0v.54ZM39.53,98l-.82-1.11-3-3.91v.59l2.86,3.78.91,1.23V98Z"/><path class="cls-2" d="M47.25,111.09v-.55h0v.56Zm-7.7-10.84-.86-1.12c-.95-1.29-1.92-2.57-2.92-3.88v.59c.94,1.23,1.88,2.48,2.82,3.72l.95,1.25v-.56Z"/><path class="cls-2" d="M47.26,113.24v-.56h0v.55Zm-7.7-10.75c-.29-.39-.58-.77-.88-1.15l-2.89-3.79v.58c1,1.24,1.88,2.46,2.8,3.68l1,1.27v-.59Z"/><path class="cls-2" d="M47.26,115.36v-.55h0v.55Zm-7.68-10.63c-.3-.39-.61-.78-.91-1.18l-2.88-3.71v.56c1,1.21,1.87,2.41,2.79,3.62l1,1.3v-.59Z"/><path class="cls-2" d="M47.27,117.55V117h0v.54ZM39.6,107.08l-1-1.22L35.8,102.2v.57q1.39,1.8,2.76,3.53l1,1.33v-.55Z"/><path class="cls-2" d="M47.28,119.74v-.54h0v.54Zm-7.67-10.4-3.81-4.86v.59l3.82,4.84v-.57Z"/><path class="cls-2" d="M47.28,121.83v-.51h0v.52Zm-7.65-10.24-1-1.27-2.83-3.55v.55c.93,1.15,1.84,2.28,2.74,3.44l1.1,1.38v-.55Z"/><path class="cls-2" d="M47.29,124v-.54h0V124Zm-7.64-10.17c-.35-.43-.69-.86-1-1.28-.93-1.18-1.86-2.34-2.81-3.51v.57c.91,1.13,1.82,2.25,2.71,3.38l1.13,1.4v-.56Z"/><path class="cls-2" d="M47.29,126.26v-.53h0v.53Zm-7.62-10.1-1.08-1.35c-.91-1.16-1.84-2.28-2.78-3.42V112c.91,1.12,1.81,2.2,2.7,3.29.39.49.77,1,1.16,1.46v-.55Z"/><path class="cls-2" d="M47.3,128.44v-.53h0v.54Zm-7.62-10c-1.26-1.57-2.56-3.14-3.87-4.76v.58c1.32,1.6,2.61,3.17,3.88,4.73v-.55Z"/><path class="cls-2" d="M47.3,130.6V130h0v.55Zm-7.6-9.91-1.13-1.38L35.81,116v.57c.9,1.09,1.79,2.16,2.67,3.26l1.23,1.48v-.6Z"/><path class="cls-2" d="M47.31,132.78v-.53h0v.53ZM39.72,123l-1.18-1.4-2.72-3.29v.56c.9,1.09,1.78,2.14,2.65,3.18l1.25,1.5V123Z"/><path class="cls-2" d="M47.31,135v-.55h0V135Zm-7.57-9.71-1.21-1.43c-.89-1.08-1.8-2.17-2.71-3.25v.56c.89,1.06,1.77,2.11,2.63,3.16l1.29,1.53v-.57Z"/><path class="cls-2" d="M47.32,137.23v-.55h0v.55Zm-7.57-9.6c-.4-.48-.81-1-1.23-1.45L35.82,123v.55l2.62,3.1,1.32,1.56v-.58Z"/><path class="cls-2" d="M47.33,139.43v-.55h0v.54ZM39.77,130c-1.29-1.53-2.61-3.06-4-4.61v.58l4,4.58V130Z"/><path class="cls-2" d="M47.33,141.69v-.56h0v.56Zm-7.54-9.4-1.3-1.49c-.87-1-1.76-2.05-2.66-3.08v.56q1.31,1.49,2.58,3l1.38,1.59v-.55Z"/><path class="cls-2" d="M47.34,143.88v-.55h0v.55Zm-7.53-9.28-1.33-1.52c-.87-1-1.75-2-2.65-3v.58c.87,1,1.72,2,2.57,2.91l1.41,1.62v-.58Z"/><path class="cls-2" d="M47.34,146.07v-.54h0v.54Zm-7.52-9.14c-.45-.52-.9-1-1.36-1.54l-2.63-3V133c.86,1,1.71,1.94,2.56,2.91l1.44,1.6v-.55Z"/><path class="cls-2" d="M47.35,148.32v-.55h0v.55Zm-7.51-9.06c-.46-.53-.93-1-1.4-1.56-.86-.95-1.72-1.93-2.6-2.92v.56c.85.95,1.69,1.9,2.53,2.81l1.48,1.66v-.55Z"/><path class="cls-2" d="M47.35,150.53V150h0v.54Zm-7.49-9-4-4.45v.61l4,4.43v-.59Z"/><path class="cls-2" d="M47.36,152.76v-.53h0v.54Zm-7.48-8.86-1.46-1.6-2.58-2.84V140c.84.92,1.68,1.83,2.5,2.75l1.54,1.69v-.57Z"/><path class="cls-2" d="M47.37,155v-.57h0V155Zm-7.48-8.79q-.73-.81-1.5-1.62-1.26-1.38-2.55-2.76v.56c.85.9,1.67,1.77,2.49,2.66l1.57,1.71v-.55Z"/><path class="cls-2" d="M47.37,157.21v-.56h0v.56Zm-7.46-8.67q-.75-.81-1.53-1.62c-.84-.92-1.68-1.83-2.53-2.74v.57l2.47,2.63,1.6,1.7v-.54Z"/><path class="cls-2" d="M47.38,159.46v-.54h0v.54Zm-7.45-8.58c-.51-.55-1-1.1-1.56-1.65-.83-.91-1.67-1.79-2.52-2.68v.57c.83.88,1.64,1.74,2.45,2.57l1.63,1.77v-.58Z"/><path class="cls-2" d="M47.38,161.76v-.56h0v.56ZM40,153.28l-1.6-1.67c-.82-.88-1.66-1.76-2.5-2.65v.58c.82.88,1.64,1.72,2.44,2.56.55.59,1.11,1.17,1.66,1.75v-.57Z"/><path class="cls-2" d="M47.39,164v-.55h0V164ZM40,155.63c-.53-.56-1.07-1.11-1.62-1.67l-2.48-2.57V152l2.42,2.49L40,156.2v-.57Z"/><path class="cls-2" d="M47.4,166.27v-.54h0v.54ZM40,158q-2-2.12-4.12-4.25v.58c1.41,1.41,2.78,2.82,4.13,4.22V158Z"/><path class="cls-2" d="M47.4,168.51V168h0v.55ZM40,160.37l-1.7-1.72-2.44-2.51v.61l2.38,2.39L40,160.92v-.55Z"/><path class="cls-2" d="M47.41,170.74v-.52h0v.52Zm-7.39-8L38.29,161c-.8-.81-1.61-1.61-2.42-2.41v.58l2.36,2.35L40,163.3v-.57Z"/><path class="cls-2" d="M47.41,173v-.55h0V173ZM40,165.08l-1.76-1.74L35.87,161v.57l2.35,2.31L40,165.63v-.55Z"/><path class="cls-2" d="M47.42,175.27v-.54h0v.54Zm-7.37-7.84-4.18-4.06v.56c1.43,1.37,2.82,2.71,4.19,4.06v-.56Z"/><path class="cls-2" d="M47.42,177.55V177h0v.55Zm-7.35-7.73c-.6-.59-1.21-1.17-1.83-1.75l-2.37-2.28v.55l2.32,2.23c.64.59,1.27,1.19,1.89,1.79v-.54Z"/><path class="cls-2" d="M47.43,179.8v-.54h0v.55Zm-7.34-7.64-1.86-1.77c-.77-.73-1.56-1.47-2.35-2.23v.55l2.3,2.2q1,.92,1.92,1.8v-.55Z"/><path class="cls-2" d="M47.44,182.15v-.54h0v.55Zm-7.33-7.57-1.9-1.79-2.33-2.16v.56c.76.71,1.52,1.42,2.28,2.1l2,1.86v-.57Z"/><path class="cls-2" d="M47.44,184.37v-.53h0v.53ZM40.14,177l-1.94-1.82c-.76-.68-1.53-1.39-2.32-2.11v.57c.76.7,1.52,1.4,2.27,2.07l2,1.86V177Z"/><path class="cls-2" d="M47.45,186.64v-.54h0v.54Zm-7.28-7.28c-1.39-1.3-2.82-2.59-4.28-3.9V176L40.18,180v-.59Z"/><path class="cls-2" d="M47.45,189v-.54h0V189Zm-7.24-7.18c-.68-.61-1.36-1.22-2.05-1.81s-1.5-1.37-2.27-2.06v.57l2.22,2c.71.62,1.41,1.25,2.1,1.87v-.56Z"/><path class="cls-2" d="M47.46,191.24v-.55h0v.55Zm-7.22-7.06-2.09-1.87-2.26-2v.58l2.21,2c.73.63,1.44,1.26,2.15,1.89v-.56Z"/><path class="cls-2" d="M47.47,193.52V193h0v.54Zm-7.2-7c-.71-.63-1.42-1.26-2.13-1.87s-1.49-1.3-2.25-2v.58l2.2,1.91,2.19,1.91v-.57Z"/><path class="cls-2" d="M47.47,195.8v-.55h0v.55ZM40.3,189c-.72-.64-1.45-1.27-2.18-1.9l-2.22-1.9v.58l2.18,1.85,2.23,1.93V189Z"/><path class="cls-2" d="M47.48,198.08v-.56h0v.55Zm-7.14-6.71-2.24-1.88h0c-.72-.62-1.46-1.24-2.2-1.86v.56l2.16,1.8,2.28,1.94v-.56Z"/><path class="cls-2" d="M47.48,200.4v-.53h0v.53Zm-7.11-6.6c-1.45-1.23-2.94-2.49-4.47-3.73v.56q2.28,1.86,4.48,3.71v-.54Z"/><path class="cls-2" d="M47.49,202.71v-.55h0v.55Zm-7.09-6.48-2.33-1.92c-.71-.6-1.43-1.19-2.16-1.78v.56L38,194.82l2.37,2v-.54Z"/><path class="cls-2" d="M47.5,205v-.54h0V205Zm-7.06-6.35-2.38-1.94c-.71-.56-1.43-1.14-2.15-1.73v.57c.71.57,1.41,1.14,2.11,1.73l2.42,1.94v-.57Z"/><path class="cls-2" d="M47.5,207.32v-.55h0v.55Zm-7-6.27L38,199.11c-.7-.54-1.41-1.11-2.13-1.68V198c.71.55,1.4,1.11,2.09,1.67l2.47,1.94v-.54Z"/><path class="cls-2" d="M47.51,209.64v-.55h0v.55Zm-7-6.17L38,201.53c-.7-.56-1.4-1.1-2.11-1.65v.55L38,202l2.52,2v-.56Z"/><path class="cls-2" d="M47.51,211.94v-.53h0v.54Zm-7-6.06-2.52-2-2.09-1.61v.58l2.06,1.6c.86.65,1.71,1.31,2.56,2v-.57Z"/><path class="cls-2" d="M47.52,214.27v-.55h0v.55Zm-7-6-2.57-2-2.08-1.58v.56l2,1.56,2.61,2v-.57Z"/><path class="cls-2" d="M47.53,216.6v-.54h0v.54Zm-6.93-5.83-2.62-2c-.68-.52-1.36-1-2.06-1.55v.58l2,1.48,2.67,2v-.55Z"/><path class="cls-2" d="M47.53,218.92v-.54h0v.54Zm-6.9-5.73L38,211.25l-2-1.54v.57c.67.49,1.34,1,2,1.48l2.71,2v-.57Z"/><path class="cls-2" d="M47.54,221.27v-.54h0v.54Zm-6.87-5.64-2.72-2c-.67-.46-1.34-.94-2-1.44v.56c.67.48,1.33,1,2,1.46.93.66,1.85,1.33,2.76,2v-.57Z"/><path class="cls-2" d="M47.54,223.63v-.56h0v.55ZM40.7,218.1l-.15-.1q-2.25-1.65-4.62-3.31v.56l4.59,3.26.19.13v-.54Z"/><path class="cls-2" d="M47.55,225.94v-.52h0v.52Zm-6.82-5.41c-.92-.66-1.86-1.32-2.82-2l-2-1.36v.56l1.94,1.34,2.86,2v-.56Z"/><path class="cls-2" d="M47.56,228.29v-.52h0v.52ZM40.77,223l-2.87-2-2-1.34v.55l1.93,1.33,2.9,2V223Z"/><path class="cls-2" d="M47.56,230.64v-.53h0v.53Zm-6.76-5.19-2.92-2-1.94-1.31v.58L37.86,224l3,2v-.56Z"/><path class="cls-2" d="M47.57,233v-.55h0V233Zm-6.74-5.09-3-2c-.64-.39-1.28-.81-1.92-1.23v.57l1.89,1.24,3,2v-.54Z"/><path class="cls-2" d="M47.57,235.39v-.55h0v.55Zm-6.7-5-3-2-1.9-1.2v.55l1.87,1.2c1,.66,2,1.32,3,2v-.55Z"/><path class="cls-2" d="M47.58,237.78v-.53h0v.53Zm-6.68-4.92-3.07-2L36,229.69v.56c.63.38,1.24.77,1.86,1.16l3.1,2v-.56Z"/><path class="cls-2" d="M47.58,240.1v-.52h0v.52Zm-6.65-4.81c-1-.64-2.06-1.28-3.11-1.95q-.93-.56-1.86-1.14v.55l1.84,1.15c1.06.65,2.11,1.3,3.14,1.95v-.56Z"/><path class="cls-2" d="M47.59,242.47v-.54h0v.54ZM41,237.77l-3.17-2L36,234.71v.56l1.82,1.11L41,238.32v-.55Z"/><path class="cls-2" d="M47.6,244.88v-.52h0v.52ZM41,240.27c-1-.64-2.13-1.28-3.22-1.93L36,237.24v.57q.91.52,1.8,1.08c1.1.64,2.18,1.3,3.25,2v-.57Z"/><path class="cls-2" d="M47.6,247.26v-.53h0v.53ZM41,242.74c-1.07-.63-2.16-1.26-3.26-1.92l-1.8-1v.57l1.78,1L41,243.3v-.56Z"/><path class="cls-2" d="M47.61,249.63v-.53h0v.53Zm-6.54-4.4-3.32-1.93-1.78-1v.57l1.77,1,3.33,1.93v-.56Z"/><path class="cls-2" d="M47.62,252.05v-.53h0v.53Zm-6.52-4.31c-1.1-.62-2.22-1.26-3.37-1.89l-1.76-1v.59l1.76,1,3.38,1.9v-.56Z"/><path class="cls-2" d="M47.62,254.43v-.53h0v.53Zm-6.48-4.19c-1.12-.62-2.26-1.26-3.42-1.87L36,247.43V248l1.73.93,3.43,1.88v-.56Z"/><path class="cls-2" d="M47.63,256.81v-.53h0v.53Zm-6.46-4.08c-1.14-.62-2.29-1.23-3.47-1.85L36,250v.56l1.71.91,3.49,1.85v-.55Z"/><path class="cls-2" d="M47.63,259.2v-.54h0v.54Zm-6.43-4c-.75-.39-1.51-.78-2.27-1.19s-1.66-.86-2.51-1.31l-.44-.23V253l.44.21c.83.47,1.67.9,2.5,1.3l2.29,1.21v-.54Z"/><path class="cls-2" d="M47.64,261.6v-.54h0v.54Zm-6.4-3.9-1-.52c-1.38-.73-2.8-1.44-4.24-2.14v.56c1.44.7,2.85,1.4,4.23,2.13.34.16.69.33,1,.51v-.54Z"/><path class="cls-2" d="M47.65,264v-.53h0V264Zm-6.38-3.78-3.62-1.8L36,257.61v.57c.55.28,1.1.54,1.65.8l3.64,1.81v-.56Z"/><path class="cls-2" d="M47.46,191.24v-.55h0v.55Zm-7.22-6.51v-.56h0v.56Z"/><polygon class="cls-2" points="47.47 193.52 47.46 192.98 47.46 192.98 47.46 193.51 47.47 193.52 47.47 193.52"/><polygon class="cls-2" points="47.47 195.8 47.47 195.25 47.47 195.25 47.47 195.8 47.47 195.8 47.47 195.8"/><polygon class="cls-2" points="47.48 198.08 47.48 197.52 47.47 197.52 47.48 198.07 47.48 198.08 47.48 198.08"/><polygon class="cls-2" points="47.58 237.78 47.58 237.75 47.58 237.75 47.58 237.78 47.58 237.78 47.58 237.78"/><polygon class="cls-2" points="47.59 240.1 47.58 239.58 47.58 239.58 47.59 240.1 47.59 240.1 47.59 240.1"/><path class="cls-2" d="M47.59,242.47v-.54h0v.54ZM41,238.32v-.55h0v.55Z"/><path class="cls-2" d="M47.37,157.21v-.56h0v.56Zm-7.45-8.13v-.55h0v.54Z"/><polygon class="cls-2" points="47.38 159.46 47.38 158.92 47.37 158.91 47.37 159.46 47.38 159.46 47.38 159.46"/><polygon class="cls-2" points="47.38 161.76 47.38 161.2 47.38 161.2 47.38 161.76 47.38 161.76 47.38 161.76"/><polygon class="cls-2" points="47.23 102.46 47.23 101.92 47.23 101.92 47.23 102.45 47.23 102.46 47.23 102.46"/><polygon class="cls-2" points="47.24 104.58 47.23 104.04 47.23 104.03 47.23 104.58 47.24 104.58 47.24 104.58"/><polygon class="cls-2" points="47.24 106.75 47.24 106.23 47.24 106.23 47.24 106.75 47.24 106.75 47.24 106.75"/><path class="cls-2" d="M47.25,108.93v-.55h0v.54ZM39.52,98.52v0Z"/><path class="cls-2" d="M47.25,111.09v-.55h0v.56Zm-7.73-10.32v-.55l0,0v.56l0,0Z"/><path class="cls-1" d="M42.6,375.67c1.87-.11,3.4-.24,4.49-.36v-8l-2,0-2.46.05v8.31Z"/><polygon class="cls-1" points="46.11 375.41 46.63 375.36 46.63 367.28 46.11 367.29 46.11 375.41 46.11 375.41"/><path class="cls-1" d="M44.52,375.54l1-.08V367.3h-1v8.22Z"/><polygon class="cls-2" points="46.24 375.28 46.51 375.26 46.51 367.4 46.24 367.4 46.24 375.28 46.24 375.28"/><polygon class="cls-2" points="44.64 375.42 44.65 375.42 44.78 375.41 44.91 375.4 45.05 375.39 45.17 375.38 45.3 375.37 45.43 375.36 45.44 375.36 45.44 367.42 45.06 367.43 44.64 367.43 44.64 375.42 44.64 375.42"/><polygon class="cls-2" points="42.85 375.56 42.86 375.56 43.03 375.55 43.21 375.55 43.38 375.53 43.56 375.52 43.73 375.51 43.89 375.5 43.9 375.5 43.9 367.49 43.41 367.5 42.85 367.5 42.85 375.56 42.85 375.56"/><path class="cls-1" d="M42.61,364.34l2.79.12,2.5.11V367l-2.5,0-2.79.05v-2.76Z"/><path class="cls-3" d="M47.71,364.71V367l-4.91.09v-2.58l4.91.22Z"/><polygon class="cls-3" points="47.79 317.4 47.77 312.93 41.99 311.57 42.03 316.16 47.79 317.4 47.79 317.4"/><polygon class="cls-3" points="47.69 281.31 47.67 273.48 41.41 270.68 41.53 278.8 47.69 281.31 47.69 281.31"/><path class="cls-3" d="M47.48,199.07l0-9c-1.07-1-2.07-1.9-3-2.71-2-1.85-3.58-3.23-4.25-3.85,0,2.82.1,6.08.15,9.67,2.5,2,4.86,4,7.1,5.91Z"/><path class="cls-3" d="M47.59,242.87v-5.12c-2.2-1.47-4.38-2.95-6.66-4.36,0,2,0,3.66.06,5.56,2.33,1.32,4.55,2.66,6.61,3.92Z"/><path class="cls-3" d="M47.38,162.57v-6.45l-1.69-1.87c-2.35-2.61-4.31-4.75-5.78-6.37,0,2.43,0,4.53.06,6.84,2.64,2.76,5.1,5.37,7.42,7.85Z"/><path class="cls-3" d="M47.25,112.66l0-10.82-1-1.41c-2.74-3.88-5.12-7.19-6.71-9.31,0,3.86,0,7.29,0,11.34,2.75,3.62,5.29,6.94,7.7,10.2Z"/><polygon class="cls-3" points="47.89 349.6 47.88 344.99 42.42 344.7 42.46 349.46 47.89 349.6 47.89 349.6"/><path class="cls-1" d="M38.49,0l-.23,2-.13,1.13L38,4.29l-.11,1.14-.09,1.15-.09,1.14-.07,1.15L37.6,10l-.06,1.15,0,1.15,0,1.15,0,1.16,0,1.15,0,1.16,0,1.16V37.71l.22,86.17-.18,251.9-.84.07h0l-.3,0v0h-.84L35.3,123.94l0-26.24h-.47l-.54-49.33h0l0-.4,0-.23,0-.28-.06-.34L34,46.73l-.08-.44-.09-.49-.11-.53-.13-.56-.14-.6-.16-.64-.19-.66-.2-.69-.23-.71-.25-.74-.28-.75-.29-.76-.33-.77-.35-.78-.39-.78L30.37,36l-.44-.78-.47-.77L29,33.72,28.41,33l-.57-.74-.61-.72-.64-.7-.69-.68-.68-.61-2.89.36V26.73l.15-.34.13-.28.12-.28.12-.28.12-.28.12-.28.11-.28.11-.28.12-.28.11-.28.11-.28.12-.29.11-.28.12-.29.11-.28.12-.29.29-.7.3-.69.3-.7.32-.69.32-.7.33-.69.33-.69.34-.7.36-.69.35-.69.37-.69.37-.68.38-.68.39-.68.39-.68.41-.67.41-.67.41-.66L31,9.15l.43-.65.43-.64.45-.65.45-.63L33.23,6l.47-.62.47-.61.48-.61.48-.59.49-.59.5-.58.51-.57A14.86,14.86,0,0,1,38.49,0Z"/><path class="cls-3" d="M37.35,1.41C37,4,36.67,6.64,36.51,9.28c-.56,9.45-.24,19.11-.24,28.48l0,86.18V375.78H35.7l-.11-251.84v-10.3l-.5-40.28-.52-25.27h-.07l0-.15,0-.23,0-.28,0-.35-.07-.39-.08-.45-.09-.49L34,45.21l-.13-.57-.14-.6-.17-.64-.18-.67-.21-.7-.23-.71-.25-.74-.27-.76-.31-.77-.33-.78-.35-.78L31,36.7l-.41-.79-.45-.79-.48-.79-.51-.77-.54-.77L28.07,32l-.62-.73-.66-.71-.69-.68-.79-.71-2.69.34V26.79c.7-1.51,1.24-3,1.88-4.52A71.44,71.44,0,0,1,37.35,1.41Z"/><path class="cls-2" d="M37.54,1.79l.08-.52.49-.42c-1.55,12.1-.94,24.69-1,36.86l.22,86.18-.18,251.83-.6.06V123.94l0-86.18V17.3l0-.9,0-.89,0-.89,0-.89,0-.89,0-.89,0-.88,0-.89.05-.88V9.05l0-.25,0-.24,0-.25,0-.25,0-.24,0-.25,0-.25,0-.24,0-.25,0-.24,0-.25,0-.25,0-.24,0-.25,0-.24,0-.25,0-.24,0-.25,0-.25,0-.24,0-.25,0-.24,0-.25,0-.24,0-.25,0-.24,0-.24,0-.25,0-.24,0-.14Z"/><path class="cls-4" d="M4.9,97l1.36-.4,0,1.66-1.43.42L4.9,97Zm3-.86,1.53-.43,0,1.65-1.53.44,0-1.66ZM11,95.3l1.53-.41,0,1.66L11,97l0-1.66Zm3.13-.82,1.53-.38,0,1.64-1.53.39,0-1.65Zm3.13-.76,1.53-.35,0,1.64-1.53.35,0-1.64Zm3.13-.7,1.53-.32,0,1.64-1.53.31,0-1.63Zm3.12-.63c.51-.09,1-.19,1.54-.27l0,1.62L23.53,94l0-1.63Zm3.14-.55,1.53-.24,0,1.62-1.53.24,0-1.62Zm3.13-.46,1.76-.23.06,1.61L29.79,93l0-1.61Zm-24.92,9L6.33,100l0,1.66-1.56.46,0-1.68Zm3.08-.9,1.53-.43,0,1.66L8,101.16l0-1.66Zm3.13-.87,1.53-.4,0,1.65-1.53.41,0-1.66Zm3.12-.81,1.54-.38,0,1.65-1.54.38,0-1.65Zm3.13-.75,1.53-.35,0,1.64-1.53.35,0-1.64Zm3.13-.69L22,96.06l0,1.63L20.46,98l0-1.63Zm3.13-.63,1.53-.27,0,1.62-1.53.28,0-1.63Zm3.13-.54L28.23,95l0,1.62c-.52.07-1,.16-1.54.24l0-1.62Zm3.13-.47,1.83-.23.06,1.61q-.93.1-1.86.24l0-1.62Z"/><path class="cls-4" d="M5.87,188.54l1.29-.31,0,1.54-1.35.33.1-1.56Zm2.8-.67,1.46-.33,0,1.53-1.45.34,0-1.54Zm3-.67,1.46-.32,0,1.54-1.45.31,0-1.53Zm3-.63,1.45-.29,0,1.53-1.46.29,0-1.53Zm3-.57,1.45-.26,0,1.52-1.45.26,0-1.52Zm3-.51,1.45-.23,0,1.52L20.5,187l0-1.52Zm3-.45,1.45-.19,0,1.51-1.45.2,0-1.52Zm3-.37c.48,0,1-.11,1.45-.15l0,1.5-1.45.16,0-1.51Zm3-.3,1.66-.13v1.5l-1.69.14,0-1.51ZM5.67,191.65l1.41-.34,0,1.55-1.48.35.11-1.56ZM8.6,191l1.45-.34,0,1.54-1.45.34,0-1.54Zm3-.67L13,190l0,1.53-1.45.32,0-1.54Zm3-.62,1.46-.28,0,1.53-1.45.28,0-1.53Zm3-.56,1.45-.26,0,1.52-1.45.26,0-1.52Zm3-.51,1.46-.22,0,1.52-1.45.22,0-1.52Zm3-.43,1.45-.19,0,1.5-1.45.2,0-1.51Zm3-.37,1.45-.16,0,1.51-1.45.15,0-1.5Zm3-.3,1.72-.13v1.49l-1.75.14,0-1.5Z"/><path class="cls-4" d="M7.61,272.9l1.13-.17c0,.44,0,.87,0,1.31l-1.19.19c0-.44,0-.89.07-1.33Zm2.46-.38,1.27-.18c0,.44,0,.87,0,1.31l-1.27.19c0-.44,0-.88,0-1.32Zm2.6-.36,1.27-.17v1.31l-1.28.17c0-.44,0-.88,0-1.31Zm2.6-.33,1.28-.15c0,.44,0,.87,0,1.31l-1.28.14c0-.43,0-.87,0-1.3Zm2.6-.28c.42,0,.85-.09,1.28-.12,0,.43,0,.86,0,1.3-.43,0-.85.07-1.27.12v-1.3Zm2.61-.23c.42,0,.84-.07,1.27-.09,0,.43,0,.86,0,1.29l-1.27.09c0-.43,0-.86,0-1.29Zm2.6-.18,1.27-.06c0,.43,0,.86,0,1.29l-1.27.07c0-.43,0-.87,0-1.3Zm2.6-.11L27,271c0,.43,0,.86,0,1.28l-1.27,0c0-.43,0-.86,0-1.29Zm2.6,0h1.46c0,.43,0,.85,0,1.28H28.27c0-.43,0-.86,0-1.28Zm-20.8,4.56,1.24-.19c0,.44,0,.87,0,1.31l-1.29.21.06-1.33Zm2.57-.39c.42-.06.84-.13,1.27-.18v1.31l-1.28.18c0-.44,0-.87,0-1.31Zm2.6-.36,1.28-.17c0,.44,0,.88,0,1.31l-1.28.17c0-.44,0-.88,0-1.31Zm2.6-.33,1.28-.14c0,.44,0,.87,0,1.31l-1.27.14v-1.31Zm2.61-.27,1.27-.12c0,.44,0,.87,0,1.3l-1.27.12c0-.43,0-.87,0-1.3Zm2.6-.22c.42,0,.84-.06,1.27-.09,0,.43,0,.86,0,1.29l-1.27.09c0-.43,0-.86,0-1.29Zm2.6-.17c.42,0,.84-.05,1.27-.06,0,.43,0,.85,0,1.28l-1.27.07c0-.43,0-.86,0-1.29Zm2.6-.11,1.27,0c0,.43,0,.85,0,1.28l-1.27,0c0-.42,0-.85,0-1.28Zm2.6-.05h1.51c0,.42,0,.85,0,1.28H28.25c0-.42,0-.85,0-1.28Z"/><path class="cls-4" d="M9,345.11l1-.07c0,.36,0,.73,0,1.09l-1,.08.09-1.1Zm2.14-.16,1.11-.07,0,1.09-1.11.07,0-1.09Zm2.27-.14,1.11-.06c0,.36,0,.72,0,1.09l-1.11.06c0-.37,0-.73,0-1.09Zm2.27-.11,1.1,0,0,1.08-1.11,0c0-.36,0-.72,0-1.08Zm2.26-.07,1.11,0c0,.37,0,.72,0,1.08l-1.11,0c0-.35,0-.71,0-1.07Zm2.26,0h1.11l0,1.07H20.15l0-1.07Zm2.27,0,1.1,0,0,1.07-1.11,0c0-.36,0-.72,0-1.08Zm2.26.07,1.1.06c0,.35,0,.7,0,1.06l-1.1-.05c0-.36,0-.71,0-1.07Zm2.25.13,1.27.09c0,.35,0,.71,0,1.06l-1.29-.1,0-1.05ZM8.81,347.3l1.08-.08,0,1.09-1.13.09c0-.37,0-.73.08-1.1Zm2.24-.16,1.11-.08c0,.37,0,.73,0,1.09l-1.11.08c0-.37,0-.73,0-1.09Zm2.27-.14,1.11-.06c0,.36,0,.72,0,1.08l-1.11.06c0-.36,0-.72,0-1.08Zm2.26-.11,1.11,0,0,1.08-1.11,0,0-1.08Zm2.27-.07H19c0,.36,0,.71,0,1.07l-1.11,0c0-.36,0-.72,0-1.08Zm2.26,0h1.11c0,.36,0,.72,0,1.07H20.07c0-.36,0-.71,0-1.07Zm2.26,0,1.11,0c0,.35,0,.71,0,1.07-.37,0-.74,0-1.11,0,0-.36,0-.71,0-1.07Zm2.26.07,1.11.06c0,.35,0,.7,0,1.06L24.59,348c0-.36,0-.71,0-1.07Zm2.26.13,1.31.09c0,.36,0,.71,0,1.06l-1.34-.1c0-.35,0-.7,0-1.05Z"/><path class="cls-4" d="M41.66,98.66,40.35,97c0,.59,0,1.18-.05,1.77.47.56.92,1.09,1.34,1.61,0-.57,0-1.13,0-1.7Z"/><path class="cls-4" d="M43.6,101.2,42.7,100c0,.54,0,1.07,0,1.61l.91,1.13c0-.52,0-1,0-1.55Z"/><path class="cls-4" d="M45.22,103.38l-.76-1c0,.5,0,1,0,1.49l.76,1c0-.47,0-1,0-1.43Z"/><path class="cls-4" d="M46.59,105.3l-.64-.91c0,.46,0,.92,0,1.38.23.29.44.58.65.85,0-.43,0-.88,0-1.32Z"/><path class="cls-4" d="M41.71,95.14l-1.27-1.83c0,.59,0,1.17,0,1.76.45.61.88,1.19,1.29,1.76,0-.57,0-1.13,0-1.69Z"/><path class="cls-4" d="M43.64,98l-.9-1.34c0,.54,0,1.07,0,1.61l.9,1.27c0-.51,0-1,0-1.54Z"/><path class="cls-4" d="M45.25,100.44l-.75-1.16c0,.5,0,1,0,1.49l.76,1.09c0-.47,0-1,0-1.42Z"/><path class="cls-4" d="M46.62,102.58l-.64-1c0,.45,0,.91,0,1.37l.64,1c0-.44,0-.88,0-1.32Z"/><path class="cls-4" d="M41.74,188.41c-.32-.29-.64-.58-1-.86,0,.39,0,.79,0,1.19l1,.88c0-.4,0-.8,0-1.21Z"/><path class="cls-4" d="M43.41,190l-.82-.77c0,.41,0,.81,0,1.21l.82.77c0-.4,0-.81,0-1.21Z"/><path class="cls-4" d="M45.09,191.58l-.82-.8V192l.83.81c0-.4,0-.81,0-1.22Z"/><path class="cls-4" d="M46.8,193.28l-.84-.84v1.22l.84.84v-1.22Z"/><path class="cls-4" d="M41.7,185.87l-.93-.84v1.21l.95.85c0-.4,0-.81,0-1.22Z"/><path class="cls-4" d="M43.38,187.42c-.27-.26-.54-.52-.82-.77,0,.41,0,.82,0,1.23l.83.77c0-.41,0-.82,0-1.23Z"/><path class="cls-4" d="M45.09,189l-.84-.8c0,.41,0,.82,0,1.23l.83.81V189Z"/><path class="cls-4" d="M46.81,190.75c-.28-.29-.56-.56-.85-.84v1.23c.29.28.57.56.84.85,0-.41,0-.83,0-1.24Z"/><path class="cls-4" d="M42.87,275l-.84-.3c0,.4,0,.8,0,1.2l.85.31V275Z"/><path class="cls-4" d="M44.3,275.6l-.7-.29v1.22l.69.28c0-.4,0-.8,0-1.21Z"/><path class="cls-4" d="M45.73,276.23l-.7-.32c0,.41,0,.82,0,1.22l.7.31c0-.4,0-.8,0-1.21Z"/><path class="cls-4" d="M47.15,276.91l-.69-.34c0,.41,0,.81,0,1.22l.7.34c0-.4,0-.81,0-1.22Z"/><path class="cls-4" d="M42.86,272.47l-.81-.3c0,.41,0,.82,0,1.23l.82.3v-1.23Z"/><path class="cls-4" d="M44.31,273.05l-.71-.29V274l.7.29c0-.41,0-.82,0-1.23Z"/><path class="cls-4" d="M45.75,273.69l-.71-.32v1.23l.7.33c0-.41,0-.82,0-1.24Z"/><path class="cls-4" d="M47.18,274.39c-.23-.12-.46-.24-.7-.35,0,.41,0,.82,0,1.24l.7.34c0-.41,0-.82,0-1.23Z"/><path class="cls-4" d="M43.81,347,43,347v.83l.86-.05c0-.26,0-.53,0-.8Z"/><path class="cls-4" d="M45.14,347h-.63v.77h.62c0-.25,0-.5,0-.76Z"/><path class="cls-4" d="M46.32,347.05l-.56,0c0,.24,0,.49,0,.73h.55c0-.23,0-.47,0-.71Z"/><path class="cls-4" d="M47.37,347.11l-.5,0c0,.23,0,.46,0,.7h.5c0-.22,0-.45,0-.68Z"/><path class="cls-4" d="M43.81,345.3l-.83,0c0,.28,0,.57,0,.85l.84,0v-.83Z"/><path class="cls-4" d="M45.16,345.4l-.64,0v.8l.63,0c0-.26,0-.53,0-.79Z"/><path class="cls-4" d="M46.36,345.53l-.57-.06c0,.25,0,.51,0,.76l.56,0c0-.24,0-.49,0-.74Z"/><path class="cls-4" d="M47.43,345.68l-.51-.07c0,.24,0,.48,0,.72l.5.05,0-.7Z"/></g></g></svg>